CooperHewittInterpol1-Light.ufo
<glyph name="exclam" format="1">
  <advance width="200"/>
  <unicode hex="0021"/>
  <outline>
    <contour>
      <point x="130" y="60" type="line" smooth="yes"/>
      <point x="70" y="60" type="line" smooth="yes"/>
      <point x="70" y="0" type="line" smooth="yes"/>
      <point x="130" y="0" type="line" smooth="yes"/>
    </contour>
    <contour>
      <point x="77" y="780" type="line" smooth="yes"/>
      <point x="88" y="175" type="line" smooth="yes"/>
      <point x="112" y="175" type="line" smooth="yes"/>
      <point x="123" y="780" type="line" smooth="yes"/>
    </contour>
  </outline>
</glyph>
<glyph name="dollar" format="1">
  <advance width="600"/>
  <unicode hex="0024"/>
  <outline>
    <contour>
      <point x="120" y="553" type="line" smooth="yes"/>
      <point x="120" y="558" type="line" smooth="yes"/>
      <point x="172" y="654" type="line" smooth="yes"/>
      <point x="299" y="688" type="line" smooth="yes"/>
      <point x="302" y="688" type="line" smooth="yes"/>
      <point x="324" y="687" type="line" smooth="yes"/>
      <point x="346" y="685" type="line" smooth="yes"/>
      <point x="282" y="420" type="line" smooth="yes"/>
      <point x="156" y="467" type="line" smooth="yes"/>
    </contour>
    <contour>
      <point x="312" y="92" type="line" smooth="yes"/>
      <point x="309" y="92" type="line" smooth="yes"/>
      <point x="276" y="94" type="line" smooth="yes"/>
      <point x="246" y="99" type="line" smooth="yes"/>
      <point x="313" y="379" type="line" smooth="yes"/>
      <point x="444" y="336" type="line" smooth="yes"/>
      <point x="488" y="238" type="line" smooth="yes"/>
      <point x="488" y="233" type="line" smooth="yes"/>
      <point x="440" y="129" type="line" smooth="yes"/>
    </contour>
    <contour>
      <point x="423" y="840" type="line" smooth="yes"/>
      <point x="383" y="840" type="line" smooth="yes"/>
      <point x="355" y="722" type="line" smooth="yes"/>
      <point x="328" y="725" type="line" smooth="yes"/>
      <point x="300" y="726" type="line" smooth="yes"/>
      <point x="140" y="679" type="line" smooth="yes"/>
      <point x="78" y="554" type="line" smooth="yes"/>
      <point x="78" y="548" type="line" smooth="yes"/>
      <point x="122" y="444" type="line" smooth="yes"/>
      <point x="274" y="384" type="line" smooth="yes"/>
      <point x="209" y="112" type="line" smooth="yes"/>
      <point x="136" y="174" type="line" smooth="yes"/>
      <point x="110" y="271" type="line" smooth="yes"/>
      <point x="70" y="271" type="line" smooth="yes"/>
      <point x="70" y="264" type="line" smooth="yes"/>
      <point x="103" y="150" type="line" smooth="yes"/>
      <point x="200" y="73" type="line" smooth="yes"/>
      <point x="168" y="-60" type="line" smooth="yes"/>
      <point x="208" y="-60" type="line" smooth="yes"/>
      <point x="237" y="62" type="line" smooth="yes"/>
      <point x="272" y="56" type="line" smooth="yes"/>
      <point x="310" y="54" type="line" smooth="yes"/>
      <point x="471" y="103" type="line" smooth="yes"/>
      <point x="530" y="235" type="line" smooth="yes"/>
      <point x="530" y="242" type="line" smooth="yes"/>
      <point x="480" y="359" type="line" smooth="yes"/>
      <point x="321" y="415" type="line" smooth="yes"/>
      <point x="383" y="675" type="line" smooth="yes"/>
      <point x="459" y="612" type="line" smooth="yes"/>
      <point x="483" y="498" type="line" smooth="yes"/>
      <point x="523" y="498" type="line" smooth="yes"/>
      <point x="523" y="515" type="line" smooth="yes"/>
      <point x="491" y="640" type="line" smooth="yes"/>
      <point x="392" y="713" type="line" smooth="yes"/>
    </contour>
  </outline>
</glyph>
<glyph name="percent" format="1">
  <advance width="900"/>
  <unicode hex="0025"/>
  <outline>
    <contour>
      <point x="324" y="629" type="line" smooth="yes"/>
      <point x="324" y="611" type="line" smooth="yes"/>
      <point x="289" y="519" type="line" smooth="yes"/>
      <point x="205" y="488" type="line" smooth="yes"/>
      <point x="199" y="488" type="line" smooth="yes"/>
      <point x="116" y="519" type="line" smooth="yes"/>
      <point x="80" y="611" type="line" smooth="yes"/>
      <point x="80" y="629" type="line" smooth="yes"/>
      <point x="116" y="721" type="line" smooth="yes"/>
      <point x="199" y="752" type="line" smooth="yes"/>
      <point x="205" y="752" type="line" smooth="yes"/>
      <point x="289" y="721" type="line" smooth="yes"/>
    </contour>
    <contour>
      <point x="576" y="151" type="line" smooth="yes"/>
      <point x="576" y="169" type="line" smooth="yes"/>
      <point x="612" y="261" type="line" smooth="yes"/>
      <point x="695" y="292" type="line" smooth="yes"/>
      <point x="701" y="292" type="line" smooth="yes"/>
      <point x="785" y="261" type="line" smooth="yes"/>
      <point x="820" y="169" type="line" smooth="yes"/>
      <point x="820" y="151" type="line" smooth="yes"/>
      <point x="785" y="59" type="line" smooth="yes"/>
      <point x="701" y="28" type="line" smooth="yes"/>
      <point x="695" y="28" type="line" smooth="yes"/>
      <point x="612" y="59" type="line" smooth="yes"/>
    </contour>
    <contour>
      <point x="538" y="165" type="line" smooth="yes"/>
      <point x="538" y="155" type="line" smooth="yes"/>
      <point x="585" y="31" type="line" smooth="yes"/>
      <point x="698" y="-10" type="line" smooth="yes"/>
      <point x="811" y="31" type="line" smooth="yes"/>
      <point x="858" y="155" type="line" smooth="yes"/>
      <point x="858" y="165" type="line" smooth="yes"/>
      <point x="811" y="289" type="line" smooth="yes"/>
      <point x="698" y="330" type="line" smooth="yes"/>
      <point x="585" y="289" type="line" smooth="yes"/>
    </contour>
    <contour>
      <point x="309" y="0" type="line" smooth="yes"/>
      <point x="617" y="743" type="line" smooth="yes"/>
      <point x="617" y="780" type="line" smooth="yes"/>
      <point x="543" y="760" type="line" smooth="yes"/>
      <point x="440" y="748" type="line" smooth="yes"/>
      <point x="353" y="757" type="line" smooth="yes"/>
      <point x="263" y="780" type="line" smooth="yes"/>
      <point x="233" y="788" type="line" smooth="yes"/>
      <point x="202" y="790" type="line" smooth="yes"/>
      <point x="89" y="749" type="line" smooth="yes"/>
      <point x="42" y="625" type="line" smooth="yes"/>
      <point x="42" y="615" type="line" smooth="yes"/>
      <point x="89" y="491" type="line" smooth="yes"/>
      <point x="202" y="450" type="line" smooth="yes"/>
      <point x="315" y="491" type="line" smooth="yes"/>
      <point x="362" y="615" type="line" smooth="yes"/>
      <point x="362" y="625" type="line" smooth="yes"/>
      <point x="356" y="678" type="line" smooth="yes"/>
      <point x="337" y="721" type="line" smooth="yes"/>
      <point x="386" y="713" type="line" smooth="yes"/>
      <point x="440" y="710" type="line" smooth="yes"/>
      <point x="532" y="719" type="line" smooth="yes"/>
      <point x="569" y="728" type="line" smooth="yes"/>
      <point x="267" y="0" type="line" smooth="yes"/>
    </contour>
  </outline>
</glyph>
<glyph name="ampersand" format="1">
  <advance width="650"/>
  <unicode hex="0026"/>
  <outline>
    <contour>
      <point x="112" y="635" type="line" smooth="yes"/>
      <point x="144" y="715" type="line" smooth="yes"/>
      <point x="241" y="750" type="line" smooth="yes"/>
      <point x="249" y="750" type="line" smooth="yes"/>
      <point x="346" y="715" type="line" smooth="yes"/>
      <point x="378" y="635" type="line" smooth="yes"/>
      <point x="378" y="625" type="line" smooth="yes"/>
      <point x="328" y="526" type="line" smooth="yes"/>
      <point x="218" y="445" type="line" smooth="yes"/>
      <point x="143" y="531" type="line" smooth="yes"/>
      <point x="112" y="625" type="line" smooth="yes"/>
    </contour>
    <contour>
      <point x="267" y="30" type="line" smooth="yes"/>
      <point x="133" y="78" type="line" smooth="yes"/>
      <point x="90" y="200" type="line" smooth="yes"/>
      <point x="90" y="210" type="line" smooth="yes"/>
      <point x="126" y="315" type="line" smooth="yes"/>
      <point x="210" y="394" type="line" smooth="yes"/>
      <point x="467" y="123" type="line" smooth="yes"/>
      <point x="377" y="50" type="line" smooth="yes"/>
      <point x="273" y="30" type="line" smooth="yes"/>
    </contour>
    <contour>
      <point x="270" y="-10" type="line" smooth="yes"/>
      <point x="392" y="14" type="line" smooth="yes"/>
      <point x="495" y="94" type="line" smooth="yes"/>
      <point x="584" y="0" type="line" smooth="yes"/>
      <point x="640" y="0" type="line" smooth="yes"/>
      <point x="518" y="129" type="line" smooth="yes"/>
      <point x="560" y="241" type="line" smooth="yes"/>
      <point x="575" y="395" type="line" smooth="yes"/>
      <point x="535" y="395" type="line" smooth="yes"/>
      <point x="535" y="390" type="line" smooth="yes"/>
      <point x="523" y="257" type="line" smooth="yes"/>
      <point x="489" y="159" type="line" smooth="yes"/>
      <point x="244" y="417" type="line" smooth="yes"/>
      <point x="364" y="508" type="line" smooth="yes"/>
      <point x="420" y="625" type="line" smooth="yes"/>
      <point x="420" y="635" type="line" smooth="yes"/>
      <point x="374" y="746" type="line" smooth="yes"/>
      <point x="245" y="790" type="line" smooth="yes"/>
      <point x="116" y="746" type="line" smooth="yes"/>
      <point x="70" y="635" type="line" smooth="yes"/>
      <point x="70" y="625" type="line" smooth="yes"/>
      <point x="100" y="522" type="line" smooth="yes"/>
      <point x="184" y="421" type="line" smooth="yes"/>
      <point x="90" y="334" type="line" smooth="yes"/>
      <point x="50" y="210" type="line" smooth="yes"/>
      <point x="50" y="200" type="line" smooth="yes"/>
      <point x="109" y="44" type="line" smooth="yes"/>
    </contour>
  </outline>
</glyph>
<glyph name="parenleft" format="1">
  <advance width="300"/>
  <unicode hex="0028"/>
  <outline>
    <contour>
      <point x="55" y="350" type="line" smooth="yes"/>
      <point x="103" y="73" type="line" smooth="yes"/>
      <point x="215" y="-120" type="line" smooth="yes"/>
      <point x="260" y="-120" type="line" smooth="yes"/>
      <point x="142" y="82" type="line" smooth="yes"/>
      <point x="95" y="350" type="line" smooth="yes"/>
      <point x="95" y="370" type="line" smooth="yes"/>
      <point x="142" y="638" type="line" smooth="yes"/>
      <point x="260" y="840" type="line" smooth="yes"/>
      <point x="215" y="840" type="line" smooth="yes"/>
      <point x="103" y="647" type="line" smooth="yes"/>
      <point x="55" y="370" type="line" smooth="yes"/>
    </contour>
  </outline>
</glyph>
<glyph name="parenright" format="1">
  <advance width="300"/>
  <unicode hex="0029"/>
  <outline>
    <contour>
      <point x="245" y="370" type="line" smooth="yes"/>
      <point x="197" y="647" type="line" smooth="yes"/>
      <point x="85" y="840" type="line" smooth="yes"/>
      <point x="40" y="840" type="line" smooth="yes"/>
      <point x="158" y="638" type="line" smooth="yes"/>
      <point x="205" y="370" type="line" smooth="yes"/>
      <point x="205" y="350" type="line" smooth="yes"/>
      <point x="158" y="82" type="line" smooth="yes"/>
      <point x="40" y="-120" type="line" smooth="yes"/>
      <point x="85" y="-120" type="line" smooth="yes"/>
      <point x="197" y="73" type="line" smooth="yes"/>
      <point x="245" y="350" type="line" smooth="yes"/>
    </contour>
  </outline>
</glyph>
<glyph name="period" format="1">
  <advance width="200"/>
  <unicode hex="002E"/>
  <outline>
    <contour>
      <point x="130" y="60" type="line" smooth="yes"/>
      <point x="70" y="60" type="line" smooth="yes"/>
      <point x="70" y="0" type="line" smooth="yes"/>
      <point x="130" y="0" type="line" smooth="yes"/>
    </contour>
  </outline>
</glyph>
<glyph name="zero" format="1">
  <advance width="600"/>
  <unicode hex="0030"/>
  <outline>
    <contour>
      <point x="490" y="545" type="line" smooth="yes"/>
      <point x="490" y="235" type="line" smooth="yes"/>
      <point x="450" y="85" type="line" smooth="yes"/>
      <point x="303" y="28" type="line" smooth="yes"/>
      <point x="297" y="28" type="line" smooth="yes"/>
      <point x="150" y="85" type="line" smooth="yes"/>
      <point x="110" y="235" type="line" smooth="yes"/>
      <point x="110" y="545" type="line" smooth="yes"/>
      <point x="150" y="695" type="line" smooth="yes"/>
      <point x="297" y="752" type="line" smooth="yes"/>
      <point x="303" y="752" type="line" smooth="yes"/>
      <point x="450" y="695" type="line" smooth="yes"/>
    </contour>
    <contour>
      <point x="532" y="225" type="line" smooth="yes"/>
      <point x="532" y="555" type="line" smooth="yes"/>
      <point x="480" y="723" type="line" smooth="yes"/>
      <point x="300" y="790" type="line" smooth="yes"/>
      <point x="120" y="723" type="line" smooth="yes"/>
      <point x="68" y="555" type="line" smooth="yes"/>
      <point x="68" y="225" type="line" smooth="yes"/>
      <point x="120" y="57" type="line" smooth="yes"/>
      <point x="300" y="-10" type="line" smooth="yes"/>
      <point x="480" y="57" type="line" smooth="yes"/>
    </contour>
  </outline>
</glyph>
<glyph name="two" format="1">
  <advance width="600"/>
  <unicode hex="0032"/>
  <outline>
    <contour>
      <point x="205" y="40" type="line" smooth="yes"/>
      <point x="128" y="39" type="line" smooth="yes"/>
      <point x="448" y="375" type="line" smooth="yes"/>
      <point x="522" y="475" type="line" smooth="yes"/>
      <point x="540" y="575" type="line" smooth="yes"/>
      <point x="540" y="585" type="line" smooth="yes"/>
      <point x="475" y="736" type="line" smooth="yes"/>
      <point x="300" y="790" type="line" smooth="yes"/>
      <point x="117" y="725" type="line" smooth="yes"/>
      <point x="60" y="545" type="line" smooth="yes"/>
      <point x="60" y="520" type="line" smooth="yes"/>
      <point x="100" y="520" type="line" smooth="yes"/>
      <point x="149" y="698" type="line" smooth="yes"/>
      <point x="297" y="752" type="line" smooth="yes"/>
      <point x="303" y="752" type="line" smooth="yes"/>
      <point x="444" y="705" type="line" smooth="yes"/>
      <point x="498" y="580" type="line" smooth="yes"/>
      <point x="498" y="570" type="line" smooth="yes"/>
      <point x="480" y="485" type="line" smooth="yes"/>
      <point x="410" y="393" type="line" smooth="yes"/>
      <point x="60" y="25" type="line" smooth="yes"/>
      <point x="60" y="0" type="line" smooth="yes"/>
      <point x="540" y="0" type="line" smooth="yes"/>
      <point x="540" y="40" type="line" smooth="yes"/>
    </contour>
  </outline>
</glyph>
<glyph name="three" format="1">
  <advance width="600"/>
  <unicode hex="0033"/>
  <outline>
    <contour>
      <point x="95" y="250" type="line" smooth="yes"/>
      <point x="55" y="250" type="line" smooth="yes"/>
      <point x="55" y="240" type="line" smooth="yes"/>
      <point x="114" y="58" type="line" smooth="yes"/>
      <point x="300" y="-10" type="line" smooth="yes"/>
      <point x="472" y="44" type="line" smooth="yes"/>
      <point x="545" y="197" type="line" smooth="yes"/>
      <point x="545" y="212" type="line" smooth="yes"/>
      <point x="505" y="334" type="line" smooth="yes"/>
      <point x="400" y="398" type="line" smooth="yes"/>
      <point x="502" y="457" type="line" smooth="yes"/>
      <point x="540" y="571" type="line" smooth="yes"/>
      <point x="540" y="585" type="line" smooth="yes"/>
      <point x="475" y="736" type="line" smooth="yes"/>
      <point x="300" y="790" type="line" smooth="yes"/>
      <point x="117" y="725" type="line" smooth="yes"/>
      <point x="60" y="545" type="line" smooth="yes"/>
      <point x="60" y="520" type="line" smooth="yes"/>
      <point x="100" y="520" type="line" smooth="yes"/>
      <point x="148" y="698" type="line" smooth="yes"/>
      <point x="295" y="752" type="line" smooth="yes"/>
      <point x="305" y="752" type="line" smooth="yes"/>
      <point x="445" y="705" type="line" smooth="yes"/>
      <point x="498" y="580" type="line" smooth="yes"/>
      <point x="498" y="573" type="line" smooth="yes"/>
      <point x="444" y="454" type="line" smooth="yes"/>
      <point x="312" y="417" type="line" smooth="yes"/>
      <point x="200" y="417" type="line" smooth="yes"/>
      <point x="200" y="379" type="line" smooth="yes"/>
      <point x="317" y="379" type="line" smooth="yes"/>
      <point x="449" y="337" type="line" smooth="yes"/>
      <point x="503" y="210" type="line" smooth="yes"/>
      <point x="503" y="195" type="line" smooth="yes"/>
      <point x="443" y="69" type="line" smooth="yes"/>
      <point x="305" y="28" type="line" smooth="yes"/>
      <point x="295" y="28" type="line" smooth="yes"/>
      <point x="148" y="82" type="line" smooth="yes"/>
    </contour>
  </outline>
</glyph>
<glyph name="five" format="1">
  <advance width="600"/>
  <unicode hex="0035"/>
  <outline>
    <contour>
      <point x="55" y="250" type="line" smooth="yes"/>
      <point x="55" y="240" type="line" smooth="yes"/>
      <point x="114" y="58" type="line" smooth="yes"/>
      <point x="300" y="-10" type="line" smooth="yes"/>
      <point x="472" y="51" type="line" smooth="yes"/>
      <point x="545" y="235" type="line" smooth="yes"/>
      <point x="545" y="245" type="line" smooth="yes"/>
      <point x="472" y="429" type="line" smooth="yes"/>
      <point x="300" y="490" type="line" smooth="yes"/>
      <point x="186" y="468" type="line" smooth="yes"/>
      <point x="104" y="405" type="line" smooth="yes"/>
      <point x="118" y="740" type="line" smooth="yes"/>
      <point x="535" y="740" type="line" smooth="yes"/>
      <point x="535" y="780" type="line" smooth="yes"/>
      <point x="80" y="780" type="line" smooth="yes"/>
      <point x="61" y="339" type="line" smooth="yes"/>
      <point x="94" y="330" type="line" smooth="yes"/>
      <point x="176" y="422" type="line" smooth="yes"/>
      <point x="295" y="452" type="line" smooth="yes"/>
      <point x="305" y="452" type="line" smooth="yes"/>
      <point x="443" y="404" type="line" smooth="yes"/>
      <point x="503" y="250" type="line" smooth="yes"/>
      <point x="503" y="230" type="line" smooth="yes"/>
      <point x="443" y="76" type="line" smooth="yes"/>
      <point x="305" y="28" type="line" smooth="yes"/>
      <point x="295" y="28" type="line" smooth="yes"/>
      <point x="148" y="82" type="line" smooth="yes"/>
      <point x="95" y="250" type="line" smooth="yes"/>
    </contour>
  </outline>
</glyph>
<glyph name="six" format="1">
  <advance width="600"/>
  <unicode hex="0036"/>
  <outline>
    <contour>
      <point x="307" y="450" type="line" smooth="yes"/>
      <point x="313" y="450" type="line" smooth="yes"/>
      <point x="455" y="397" type="line" smooth="yes"/>
      <point x="508" y="248" type="line" smooth="yes"/>
      <point x="508" y="232" type="line" smooth="yes"/>
      <point x="455" y="83" type="line" smooth="yes"/>
      <point x="308" y="30" type="line" smooth="yes"/>
      <point x="302" y="30" type="line" smooth="yes"/>
      <point x="159" y="91" type="line" smooth="yes"/>
      <point x="100" y="260" type="line" smooth="yes"/>
      <point x="100" y="270" type="line" smooth="yes"/>
      <point x="100" y="296" type="line" smooth="yes"/>
      <point x="102" y="323" type="line" smooth="yes"/>
      <point x="183" y="415" type="line" smooth="yes"/>
    </contour>
    <contour>
      <point x="515" y="790" type="line" smooth="yes"/>
      <point x="332" y="751" type="line" smooth="yes"/>
      <point x="170" y="626" type="line" smooth="yes"/>
      <point x="84" y="453" type="line" smooth="yes"/>
      <point x="60" y="270" type="line" smooth="yes"/>
      <point x="60" y="260" type="line" smooth="yes"/>
      <point x="132" y="59" type="line" smooth="yes"/>
      <point x="305" y="-10" type="line" smooth="yes"/>
      <point x="480" y="50" type="line" smooth="yes"/>
      <point x="550" y="235" type="line" smooth="yes"/>
      <point x="550" y="245" type="line" smooth="yes"/>
      <point x="481" y="431" type="line" smooth="yes"/>
      <point x="310" y="490" type="line" smooth="yes"/>
      <point x="196" y="464" type="line" smooth="yes"/>
      <point x="113" y="395" type="line" smooth="yes"/>
      <point x="146" y="499" type="line" smooth="yes"/>
      <point x="204" y="600" type="line" smooth="yes"/>
      <point x="353" y="716" type="line" smooth="yes"/>
      <point x="515" y="750" type="line" smooth="yes"/>
    </contour>
  </outline>
</glyph>
<glyph name="eight" format="1">
  <advance width="600"/>
  <unicode hex="0038"/>
  <outline>
    <contour>
      <point x="305" y="752" type="line" smooth="yes"/>
      <point x="445" y="707" type="line" smooth="yes"/>
      <point x="498" y="583" type="line" smooth="yes"/>
      <point x="498" y="576" type="line" smooth="yes"/>
      <point x="444" y="456" type="line" smooth="yes"/>
      <point x="312" y="417" type="line" smooth="yes"/>
      <point x="288" y="417" type="line" smooth="yes"/>
      <point x="156" y="456" type="line" smooth="yes"/>
      <point x="102" y="576" type="line" smooth="yes"/>
      <point x="102" y="583" type="line" smooth="yes"/>
      <point x="155" y="707" type="line" smooth="yes"/>
      <point x="295" y="752" type="line" smooth="yes"/>
    </contour>
    <contour>
      <point x="283" y="379" type="line" smooth="yes"/>
      <point x="317" y="379" type="line" smooth="yes"/>
      <point x="449" y="336" type="line" smooth="yes"/>
      <point x="503" y="207" type="line" smooth="yes"/>
      <point x="503" y="192" type="line" smooth="yes"/>
      <point x="443" y="67" type="line" smooth="yes"/>
      <point x="305" y="28" type="line" smooth="yes"/>
      <point x="295" y="28" type="line" smooth="yes"/>
      <point x="157" y="67" type="line" smooth="yes"/>
      <point x="97" y="192" type="line" smooth="yes"/>
      <point x="97" y="207" type="line" smooth="yes"/>
      <point x="151" y="336" type="line" smooth="yes"/>
    </contour>
    <contour>
      <point x="300" y="-10" type="line" smooth="yes"/>
      <point x="472" y="42" type="line" smooth="yes"/>
      <point x="545" y="194" type="line" smooth="yes"/>
      <point x="545" y="209" type="line" smooth="yes"/>
      <point x="505" y="332" type="line" smooth="yes"/>
      <point x="399" y="398" type="line" smooth="yes"/>
      <point x="501" y="458" type="line" smooth="yes"/>
      <point x="540" y="574" type="line" smooth="yes"/>
      <point x="540" y="588" type="line" smooth="yes"/>
      <point x="475" y="738" type="line" smooth="yes"/>
      <point x="300" y="790" type="line" smooth="yes"/>
      <point x="125" y="738" type="line" smooth="yes"/>
      <point x="60" y="588" type="line" smooth="yes"/>
      <point x="60" y="574" type="line" smooth="yes"/>
      <point x="99" y="458" type="line" smooth="yes"/>
      <point x="200" y="398" type="line" smooth="yes"/>
      <point x="95" y="332" type="line" smooth="yes"/>
      <point x="55" y="209" type="line" smooth="yes"/>
      <point x="55" y="194" type="line" smooth="yes"/>
      <point x="128" y="42" type="line" smooth="yes"/>
    </contour>
  </outline>
</glyph>
<glyph name="nine" format="1">
  <advance width="600"/>
  <unicode hex="0039"/>
  <outline>
    <contour>
      <point x="293" y="330" type="line" smooth="yes"/>
      <point x="287" y="330" type="line" smooth="yes"/>
      <point x="145" y="383" type="line" smooth="yes"/>
      <point x="92" y="532" type="line" smooth="yes"/>
      <point x="92" y="548" type="line" smooth="yes"/>
      <point x="146" y="697" type="line" smooth="yes"/>
      <point x="292" y="750" type="line" smooth="yes"/>
      <point x="298" y="750" type="line" smooth="yes"/>
      <point x="441" y="689" type="line" smooth="yes"/>
      <point x="500" y="520" type="line" smooth="yes"/>
      <point x="500" y="510" type="line" smooth="yes"/>
      <point x="499" y="484" type="line" smooth="yes"/>
      <point x="497" y="456" type="line" smooth="yes"/>
      <point x="416" y="365" type="line" smooth="yes"/>
    </contour>
    <contour>
      <point x="85" y="-10" type="line" smooth="yes"/>
      <point x="268" y="29" type="line" smooth="yes"/>
      <point x="430" y="154" type="line" smooth="yes"/>
      <point x="516" y="327" type="line" smooth="yes"/>
      <point x="540" y="510" type="line" smooth="yes"/>
      <point x="540" y="520" type="line" smooth="yes"/>
      <point x="468" y="721" type="line" smooth="yes"/>
      <point x="295" y="790" type="line" smooth="yes"/>
      <point x="120" y="731" type="line" smooth="yes"/>
      <point x="50" y="545" type="line" smooth="yes"/>
      <point x="50" y="535" type="line" smooth="yes"/>
      <point x="119" y="350" type="line" smooth="yes"/>
      <point x="290" y="290" type="line" smooth="yes"/>
      <point x="404" y="316" type="line" smooth="yes"/>
      <point x="486" y="384" type="line" smooth="yes"/>
      <point x="454" y="281" type="line" smooth="yes"/>
      <point x="396" y="180" type="line" smooth="yes"/>
      <point x="247" y="64" type="line" smooth="yes"/>
      <point x="85" y="30" type="line" smooth="yes"/>
    </contour>
  </outline>
</glyph>
<glyph name="colon" format="1">
  <advance width="200"/>
  <unicode hex="003A"/>
  <outline>
    <contour>
      <point x="130" y="420" type="line" smooth="yes"/>
      <point x="70" y="420" type="line" smooth="yes"/>
      <point x="70" y="360" type="line" smooth="yes"/>
      <point x="130" y="360" type="line" smooth="yes"/>
    </contour>
    <contour>
      <point x="130" y="60" type="line" smooth="yes"/>
      <point x="70" y="60" type="line" smooth="yes"/>
      <point x="70" y="0" type="line" smooth="yes"/>
      <point x="130" y="0" type="line" smooth="yes"/>
    </contour>
  </outline>
</glyph>
<glyph name="question" format="1">
  <advance width="440"/>
  <unicode hex="003F"/>
  <outline>
    <contour>
      <point x="250" y="60" type="line" smooth="yes"/>
      <point x="190" y="60" type="line" smooth="yes"/>
      <point x="190" y="0" type="line" smooth="yes"/>
      <point x="250" y="0" type="line" smooth="yes"/>
    </contour>
    <contour>
      <point x="223" y="752" type="line" smooth="yes"/>
      <point x="337" y="705" type="line" smooth="yes"/>
      <point x="366" y="575" type="line" smooth="yes"/>
      <point x="285" y="393" type="line" smooth="yes"/>
      <point x="208" y="175" type="line" smooth="yes"/>
      <point x="232" y="175" type="line" smooth="yes"/>
      <point x="322" y="380" type="line" smooth="yes"/>
      <point x="408" y="580" type="line" smooth="yes"/>
      <point x="363" y="735" type="line" smooth="yes"/>
      <point x="223" y="790" type="line" smooth="yes"/>
      <point x="66" y="707" type="line" smooth="yes"/>
      <point x="28" y="510" type="line" smooth="yes"/>
      <point x="28" y="500" type="line" smooth="yes"/>
      <point x="68" y="500" type="line" smooth="yes"/>
      <point x="99" y="683" type="line" smooth="yes"/>
    </contour>
  </outline>
</glyph>
<glyph name="at" format="1">
  <advance width="950"/>
  <unicode hex="0040"/>
  <outline>
    <contour>
      <point x="610" y="410" type="line" smooth="yes"/>
      <point x="610" y="180" type="line" smooth="yes"/>
      <point x="554" y="119" type="line" smooth="yes"/>
      <point x="460" y="88" type="line" smooth="yes"/>
      <point x="336" y="145" type="line" smooth="yes"/>
      <point x="297" y="285" type="line" smooth="yes"/>
      <point x="297" y="305" type="line" smooth="yes"/>
      <point x="336" y="445" type="line" smooth="yes"/>
      <point x="460" y="502" type="line" smooth="yes"/>
      <point x="554" y="471" type="line" smooth="yes"/>
    </contour>
    <contour>
      <point x="497" y="-172" type="line" smooth="yes"/>
      <point x="193" y="-58" type="line" smooth="yes"/>
      <point x="75" y="270" type="line" smooth="yes"/>
      <point x="75" y="310" type="line" smooth="yes"/>
      <point x="191" y="634" type="line" smooth="yes"/>
      <point x="492" y="752" type="line" smooth="yes"/>
      <point x="498" y="752" type="line" smooth="yes"/>
      <point x="759" y="664" type="line" smooth="yes"/>
      <point x="873" y="385" type="line" smooth="yes"/>
      <point x="873" y="355" type="line" smooth="yes"/>
      <point x="809" y="143" type="line" smooth="yes"/>
      <point x="650" y="97" type="line" smooth="yes"/>
      <point x="650" y="380" type="line" smooth="yes"/>
      <point x="655" y="530" type="line" smooth="yes"/>
      <point x="625" y="530" type="line" smooth="yes"/>
      <point x="615" y="453" type="line" smooth="yes"/>
      <point x="556" y="514" type="line" smooth="yes"/>
      <point x="455" y="540" type="line" smooth="yes"/>
      <point x="301" y="467" type="line" smooth="yes"/>
      <point x="255" y="305" type="line" smooth="yes"/>
      <point x="255" y="285" type="line" smooth="yes"/>
      <point x="301" y="123" type="line" smooth="yes"/>
      <point x="455" y="50" type="line" smooth="yes"/>
      <point x="556" y="76" type="line" smooth="yes"/>
      <point x="615" y="136" type="line" smooth="yes"/>
      <point x="625" y="60" type="line" smooth="yes"/>
      <point x="650" y="60" type="line" smooth="yes"/>
      <point x="841" y="118" type="line" smooth="yes"/>
      <point x="915" y="355" type="line" smooth="yes"/>
      <point x="915" y="385" type="line" smooth="yes"/>
      <point x="791" y="689" type="line" smooth="yes"/>
      <point x="495" y="790" type="line" smooth="yes"/>
      <point x="162" y="663" type="line" smooth="yes"/>
      <point x="35" y="310" type="line" smooth="yes"/>
      <point x="35" y="270" type="line" smooth="yes"/>
      <point x="164" y="-83" type="line" smooth="yes"/>
      <point x="500" y="-210" type="line" smooth="yes"/>
      <point x="680" y="-187" type="line" smooth="yes"/>
      <point x="854" y="-100" type="line" smooth="yes"/>
      <point x="832" y="-70" type="line" smooth="yes"/>
      <point x="675" y="-149" type="line" smooth="yes"/>
      <point x="503" y="-172" type="line" smooth="yes"/>
    </contour>
  </outline>
</glyph>
<glyph name="J" format="1">
  <advance width="480"/>
  <unicode hex="004A"/>
  <outline>
    <contour>
      <point x="365" y="780" type="line" smooth="yes"/>
      <point x="365" y="250" type="line" smooth="yes"/>
      <point x="330" y="81" type="line" smooth="yes"/>
      <point x="217" y="28" type="line" smooth="yes"/>
      <point x="104" y="81" type="line" smooth="yes"/>
      <point x="69" y="250" type="line" smooth="yes"/>
      <point x="31" y="250" type="line" smooth="yes"/>
      <point x="31" y="240" type="line" smooth="yes"/>
      <point x="72" y="56" type="line" smooth="yes"/>
      <point x="217" y="-10" type="line" smooth="yes"/>
      <point x="364" y="57" type="line" smooth="yes"/>
      <point x="405" y="240" type="line" smooth="yes"/>
      <point x="405" y="780" type="line" smooth="yes"/>
    </contour>
  </outline>
</glyph>
<glyph name="O" format="1">
  <advance width="640"/>
  <unicode hex="004F"/>
  <outline>
    <contour>
      <point x="317" y="28" type="line" smooth="yes"/>
      <point x="158" y="107" type="line" smooth="yes"/>
      <point x="105" y="370" type="line" smooth="yes"/>
      <point x="105" y="410" type="line" smooth="yes"/>
      <point x="158" y="673" type="line" smooth="yes"/>
      <point x="317" y="752" type="line" smooth="yes"/>
      <point x="323" y="752" type="line" smooth="yes"/>
      <point x="482" y="673" type="line" smooth="yes"/>
      <point x="535" y="410" type="line" smooth="yes"/>
      <point x="535" y="370" type="line" smooth="yes"/>
      <point x="482" y="107" type="line" smooth="yes"/>
      <point x="323" y="28" type="line" smooth="yes"/>
    </contour>
    <contour>
      <point x="320" y="-10" type="line" smooth="yes"/>
      <point x="512" y="79" type="line" smooth="yes"/>
      <point x="577" y="370" type="line" smooth="yes"/>
      <point x="577" y="410" type="line" smooth="yes"/>
      <point x="512" y="701" type="line" smooth="yes"/>
      <point x="320" y="790" type="line" smooth="yes"/>
      <point x="128" y="701" type="line" smooth="yes"/>
      <point x="63" y="410" type="line" smooth="yes"/>
      <point x="63" y="370" type="line" smooth="yes"/>
      <point x="128" y="79" type="line" smooth="yes"/>
    </contour>
  </outline>
</glyph>
<glyph name="P" format="1">
  <advance width="560"/>
  <unicode hex="0050"/>
  <outline>
    <contour>
      <point x="120" y="368" type="line" smooth="yes"/>
      <point x="120" y="742" type="line" smooth="yes"/>
      <point x="282" y="742" type="line" smooth="yes"/>
      <point x="404" y="709" type="line" smooth="yes"/>
      <point x="468" y="563" type="line" smooth="yes"/>
      <point x="468" y="547" type="line" smooth="yes"/>
      <point x="404" y="401" type="line" smooth="yes"/>
      <point x="282" y="368" type="line" smooth="yes"/>
    </contour>
    <contour>
      <point x="120" y="330" type="line" smooth="yes"/>
      <point x="282" y="330" type="line" smooth="yes"/>
      <point x="436" y="374" type="line" smooth="yes"/>
      <point x="510" y="545" type="line" smooth="yes"/>
      <point x="510" y="565" type="line" smooth="yes"/>
      <point x="436" y="736" type="line" smooth="yes"/>
      <point x="282" y="780" type="line" smooth="yes"/>
      <point x="80" y="780" type="line" smooth="yes"/>
      <point x="80" y="0" type="line" smooth="yes"/>
      <point x="120" y="0" type="line" smooth="yes"/>
    </contour>
  </outline>
</glyph>
<glyph name="Q" format="1">
  <advance width="640"/>
  <unicode hex="0051"/>
  <outline>
    <contour>
      <point x="340" y="213" type="line" smooth="yes"/>
      <point x="300" y="213" type="line" smooth="yes"/>
      <point x="366" y="31" type="line" smooth="yes"/>
      <point x="345" y="29" type="line" smooth="yes"/>
      <point x="323" y="28" type="line" smooth="yes"/>
      <point x="317" y="28" type="line" smooth="yes"/>
      <point x="158" y="107" type="line" smooth="yes"/>
      <point x="105" y="370" type="line" smooth="yes"/>
      <point x="105" y="410" type="line" smooth="yes"/>
      <point x="158" y="673" type="line" smooth="yes"/>
      <point x="317" y="752" type="line" smooth="yes"/>
      <point x="323" y="752" type="line" smooth="yes"/>
      <point x="482" y="673" type="line" smooth="yes"/>
      <point x="535" y="410" type="line" smooth="yes"/>
      <point x="535" y="370" type="line" smooth="yes"/>
      <point x="503" y="147" type="line" smooth="yes"/>
      <point x="405" y="42" type="line" smooth="yes"/>
    </contour>
    <contour>
      <point x="320" y="-10" type="line" smooth="yes"/>
      <point x="351" y="-9" type="line" smooth="yes"/>
      <point x="380" y="-4" type="line" smooth="yes"/>
      <point x="415" y="-100" type="line" smooth="yes"/>
      <point x="460" y="-100" type="line" smooth="yes"/>
      <point x="419" y="6" type="line" smooth="yes"/>
      <point x="537" y="124" type="line" smooth="yes"/>
      <point x="577" y="370" type="line" smooth="yes"/>
      <point x="577" y="410" type="line" smooth="yes"/>
      <point x="512" y="701" type="line" smooth="yes"/>
      <point x="320" y="790" type="line" smooth="yes"/>
      <point x="128" y="701" type="line" smooth="yes"/>
      <point x="63" y="410" type="line" smooth="yes"/>
      <point x="63" y="370" type="line" smooth="yes"/>
      <point x="128" y="79" type="line" smooth="yes"/>
    </contour>
  </outline>
</glyph>
<glyph name="X" format="1">
  <advance width="600"/>
  <unicode hex="0058"/>
  <outline>
    <contour>
      <point x="35" y="0" type="line" smooth="yes"/>
      <point x="83" y="0" type="line" smooth="yes"/>
      <point x="300" y="355" type="line" smooth="yes"/>
      <point x="517" y="0" type="line" smooth="yes"/>
      <point x="565" y="0" type="line" smooth="yes"/>
      <point x="323" y="393" type="line" smooth="yes"/>
      <point x="565" y="780" type="line" smooth="yes"/>
      <point x="517" y="780" type="line" smooth="yes"/>
      <point x="300" y="427" type="line" smooth="yes"/>
      <point x="83" y="780" type="line" smooth="yes"/>
      <point x="35" y="780" type="line" smooth="yes"/>
      <point x="277" y="393" type="line" smooth="yes"/>
    </contour>
  </outline>
</glyph>
<glyph name="backslash" format="1">
  <advance width="300"/>
  <unicode hex="005C"/>
  <outline>
    <contour>
      <point x="245" y="-120" type="line" smooth="yes"/>
      <point x="285" y="-120" type="line" smooth="yes"/>
      <point x="55" y="840" type="line" smooth="yes"/>
      <point x="15" y="840" type="line" smooth="yes"/>
    </contour>
  </outline>
</glyph>
<glyph name="asciicircum" format="1">
  <advance width="600"/>
  <unicode hex="005E"/>
  <outline>
    <contour>
      <point x="320" y="780" type="line" smooth="yes"/>
      <point x="280" y="780" type="line" smooth="yes"/>
      <point x="34" y="280" type="line" smooth="yes"/>
      <point x="76" y="280" type="line" smooth="yes"/>
      <point x="300" y="739" type="line" smooth="yes"/>
      <point x="524" y="280" type="line" smooth="yes"/>
      <point x="566" y="280" type="line" smooth="yes"/>
    </contour>
  </outline>
</glyph>
<glyph name="underscore" format="1">
  <advance width="320"/>
  <unicode hex="005F"/>
  <outline>
    <contour>
      <point x="50" y="-118" type="line" smooth="yes"/>
      <point x="270" y="-118" type="line" smooth="yes"/>
      <point x="270" y="-80" type="line" smooth="yes"/>
      <point x="50" y="-80" type="line" smooth="yes"/>
    </contour>
  </outline>
</glyph>
<glyph name="b" format="1">
  <advance width="525"/>
  <unicode hex="0062"/>
  <outline>
    <contour>
      <point x="110" y="120" type="line" smooth="yes"/>
      <point x="110" y="410" type="line" smooth="yes"/>
      <point x="164" y="471" type="line" smooth="yes"/>
      <point x="260" y="502" type="line" smooth="yes"/>
      <point x="386" y="440" type="line" smooth="yes"/>
      <point x="428" y="275" type="line" smooth="yes"/>
      <point x="428" y="255" type="line" smooth="yes"/>
      <point x="386" y="90" type="line" smooth="yes"/>
      <point x="260" y="28" type="line" smooth="yes"/>
      <point x="164" y="59" type="line" smooth="yes"/>
    </contour>
    <contour>
      <point x="110" y="800" type="line" smooth="yes"/>
      <point x="70" y="800" type="line" smooth="yes"/>
      <point x="70" y="150" type="line" smooth="yes"/>
      <point x="65" y="0" type="line" smooth="yes"/>
      <point x="95" y="0" type="line" smooth="yes"/>
      <point x="104" y="75" type="line" smooth="yes"/>
      <point x="163" y="16" type="line" smooth="yes"/>
      <point x="265" y="-10" type="line" smooth="yes"/>
      <point x="422" y="68" type="line" smooth="yes"/>
      <point x="470" y="255" type="line" smooth="yes"/>
      <point x="470" y="275" type="line" smooth="yes"/>
      <point x="422" y="462" type="line" smooth="yes"/>
      <point x="265" y="540" type="line" smooth="yes"/>
      <point x="168" y="517" type="line" smooth="yes"/>
      <point x="110" y="464" type="line" smooth="yes"/>
    </contour>
  </outline>
</glyph>
<glyph name="d" format="1">
  <advance width="525"/>
  <unicode hex="0064"/>
  <outline>
    <contour>
      <point x="415" y="120" type="line" smooth="yes"/>
      <point x="361" y="59" type="line" smooth="yes"/>
      <point x="265" y="28" type="line" smooth="yes"/>
      <point x="139" y="90" type="line" smooth="yes"/>
      <point x="97" y="255" type="line" smooth="yes"/>
      <point x="97" y="275" type="line" smooth="yes"/>
      <point x="139" y="440" type="line" smooth="yes"/>
      <point x="265" y="502" type="line" smooth="yes"/>
      <point x="361" y="471" type="line" smooth="yes"/>
      <point x="415" y="410" type="line" smooth="yes"/>
    </contour>
    <contour>
      <point x="260" y="540" type="line" smooth="yes"/>
      <point x="103" y="462" type="line" smooth="yes"/>
      <point x="55" y="275" type="line" smooth="yes"/>
      <point x="55" y="255" type="line" smooth="yes"/>
      <point x="103" y="68" type="line" smooth="yes"/>
      <point x="260" y="-10" type="line" smooth="yes"/>
      <point x="362" y="16" type="line" smooth="yes"/>
      <point x="420" y="75" type="line" smooth="yes"/>
      <point x="430" y="0" type="line" smooth="yes"/>
      <point x="460" y="0" type="line" smooth="yes"/>
      <point x="455" y="150" type="line" smooth="yes"/>
      <point x="455" y="800" type="line" smooth="yes"/>
      <point x="415" y="800" type="line" smooth="yes"/>
      <point x="415" y="464" type="line" smooth="yes"/>
      <point x="357" y="517" type="line" smooth="yes"/>
    </contour>
  </outline>
</glyph>
<glyph name="i" format="1">
  <advance width="200"/>
  <unicode hex="0069"/>
  <outline>
    <contour>
      <point x="130" y="735" type="line" smooth="yes"/>
      <point x="70" y="735" type="line" smooth="yes"/>
      <point x="70" y="675" type="line" smooth="yes"/>
      <point x="130" y="675" type="line" smooth="yes"/>
    </contour>
    <contour>
      <point x="80" y="0" type="line" smooth="yes"/>
      <point x="120" y="0" type="line" smooth="yes"/>
      <point x="120" y="530" type="line" smooth="yes"/>
      <point x="80" y="530" type="line" smooth="yes"/>
    </contour>
  </outline>
</glyph>
<glyph name="m" format="1">
  <advance width="785"/>
  <unicode hex="006D"/>
  <outline>
    <contour>
      <point x="720" y="0" type="line" smooth="yes"/>
      <point x="720" y="390" type="line" smooth="yes"/>
      <point x="681" y="503" type="line" smooth="yes"/>
      <point x="575" y="540" type="line" smooth="yes"/>
      <point x="467" y="513" type="line" smooth="yes"/>
      <point x="406" y="451" type="line" smooth="yes"/>
      <point x="357" y="518" type="line" smooth="yes"/>
      <point x="270" y="540" type="line" smooth="yes"/>
      <point x="165" y="514" type="line" smooth="yes"/>
      <point x="104" y="455" type="line" smooth="yes"/>
      <point x="95" y="530" type="line" smooth="yes"/>
      <point x="65" y="530" type="line" smooth="yes"/>
      <point x="70" y="380" type="line" smooth="yes"/>
      <point x="70" y="0" type="line" smooth="yes"/>
      <point x="110" y="0" type="line" smooth="yes"/>
      <point x="110" y="410" type="line" smooth="yes"/>
      <point x="163" y="471" type="line" smooth="yes"/>
      <point x="260" y="502" type="line" smooth="yes"/>
      <point x="342" y="479" type="line" smooth="yes"/>
      <point x="375" y="385" type="line" smooth="yes"/>
      <point x="375" y="0" type="line" smooth="yes"/>
      <point x="415" y="0" type="line" smooth="yes"/>
      <point x="415" y="410" type="line" smooth="yes"/>
      <point x="468" y="471" type="line" smooth="yes"/>
      <point x="565" y="502" type="line" smooth="yes"/>
      <point x="647" y="479" type="line" smooth="yes"/>
      <point x="680" y="385" type="line" smooth="yes"/>
      <point x="680" y="0" type="line" smooth="yes"/>
    </contour>
  </outline>
</glyph>
<glyph name="n" format="1">
  <advance width="510"/>
  <unicode hex="006E"/>
  <outline>
    <contour>
      <point x="445" y="0" type="line" smooth="yes"/>
      <point x="445" y="375" type="line" smooth="yes"/>
      <point x="403" y="495" type="line" smooth="yes"/>
      <point x="285" y="540" type="line" smooth="yes"/>
      <point x="170" y="513" type="line" smooth="yes"/>
      <point x="104" y="452" type="line" smooth="yes"/>
      <point x="95" y="530" type="line" smooth="yes"/>
      <point x="65" y="530" type="line" smooth="yes"/>
      <point x="70" y="380" type="line" smooth="yes"/>
      <point x="70" y="0" type="line" smooth="yes"/>
      <point x="110" y="0" type="line" smooth="yes"/>
      <point x="110" y="410" type="line" smooth="yes"/>
      <point x="166" y="471" type="line" smooth="yes"/>
      <point x="275" y="502" type="line" smooth="yes"/>
      <point x="368" y="472" type="line" smooth="yes"/>
      <point x="405" y="370" type="line" smooth="yes"/>
      <point x="405" y="0" type="line" smooth="yes"/>
    </contour>
  </outline>
</glyph>
<glyph name="q" format="1">
  <advance width="525"/>
  <unicode hex="0071"/>
  <outline>
    <contour>
      <point x="415" y="410" type="line" smooth="yes"/>
      <point x="415" y="120" type="line" smooth="yes"/>
      <point x="361" y="59" type="line" smooth="yes"/>
      <point x="265" y="28" type="line" smooth="yes"/>
      <point x="139" y="90" type="line" smooth="yes"/>
      <point x="97" y="255" type="line" smooth="yes"/>
      <point x="97" y="275" type="line" smooth="yes"/>
      <point x="139" y="440" type="line" smooth="yes"/>
      <point x="265" y="502" type="line" smooth="yes"/>
      <point x="361" y="471" type="line" smooth="yes"/>
    </contour>
    <contour>
      <point x="415" y="-200" type="line" smooth="yes"/>
      <point x="455" y="-200" type="line" smooth="yes"/>
      <point x="455" y="380" type="line" smooth="yes"/>
      <point x="460" y="530" type="line" smooth="yes"/>
      <point x="430" y="530" type="line" smooth="yes"/>
      <point x="420" y="455" type="line" smooth="yes"/>
      <point x="362" y="514" type="line" smooth="yes"/>
      <point x="260" y="540" type="line" smooth="yes"/>
      <point x="103" y="462" type="line" smooth="yes"/>
      <point x="55" y="275" type="line" smooth="yes"/>
      <point x="55" y="255" type="line" smooth="yes"/>
      <point x="103" y="68" type="line" smooth="yes"/>
      <point x="260" y="-10" type="line" smooth="yes"/>
      <point x="356" y="12" type="line" smooth="yes"/>
      <point x="415" y="65" type="line" smooth="yes"/>
    </contour>
  </outline>
</glyph>
<glyph name="v" format="1">
  <advance width="500"/>
  <unicode hex="0076"/>
  <outline>
    <contour>
      <point x="226" y="0" type="line" smooth="yes"/>
      <point x="274" y="0" type="line" smooth="yes"/>
      <point x="470" y="530" type="line" smooth="yes"/>
      <point x="425" y="530" type="line" smooth="yes"/>
      <point x="250" y="45" type="line" smooth="yes"/>
      <point x="75" y="530" type="line" smooth="yes"/>
      <point x="30" y="530" type="line" smooth="yes"/>
    </contour>
  </outline>
</glyph>
<glyph name="braceleft" format="1">
  <advance width="300"/>
  <unicode hex="007B"/>
  <outline>
    <contour>
      <point x="255" y="840" type="line" smooth="yes"/>
      <point x="240" y="840" type="line" smooth="yes"/>
      <point x="157" y="815" type="line" smooth="yes"/>
      <point x="115" y="715" type="line" smooth="yes"/>
      <point x="115" y="470" type="line" smooth="yes"/>
      <point x="93" y="396" type="line" smooth="yes"/>
      <point x="25" y="380" type="line" smooth="yes"/>
      <point x="25" y="340" type="line" smooth="yes"/>
      <point x="93" y="324" type="line" smooth="yes"/>
      <point x="115" y="250" type="line" smooth="yes"/>
      <point x="115" y="5" type="line" smooth="yes"/>
      <point x="157" y="-95" type="line" smooth="yes"/>
      <point x="240" y="-120" type="line" smooth="yes"/>
      <point x="255" y="-120" type="line" smooth="yes"/>
      <point x="255" y="-80" type="line" smooth="yes"/>
      <point x="182" y="-59" type="line" smooth="yes"/>
      <point x="155" y="30" type="line" smooth="yes"/>
      <point x="155" y="262" type="line" smooth="yes"/>
      <point x="140" y="326" type="line" smooth="yes"/>
      <point x="102" y="360" type="line" smooth="yes"/>
      <point x="140" y="394" type="line" smooth="yes"/>
      <point x="155" y="458" type="line" smooth="yes"/>
      <point x="155" y="690" type="line" smooth="yes"/>
      <point x="182" y="779" type="line" smooth="yes"/>
      <point x="255" y="800" type="line" smooth="yes"/>
    </contour>
  </outline>
</glyph>
<glyph name="braceright" format="1">
  <advance width="300"/>
  <unicode hex="007D"/>
  <outline>
    <contour>
      <point x="45" y="-120" type="line" smooth="yes"/>
      <point x="60" y="-120" type="line" smooth="yes"/>
      <point x="143" y="-95" type="line" smooth="yes"/>
      <point x="185" y="5" type="line" smooth="yes"/>
      <point x="185" y="250" type="line" smooth="yes"/>
      <point x="208" y="324" type="line" smooth="yes"/>
      <point x="275" y="340" type="line" smooth="yes"/>
      <point x="275" y="380" type="line" smooth="yes"/>
      <point x="208" y="396" type="line" smooth="yes"/>
      <point x="185" y="470" type="line" smooth="yes"/>
      <point x="185" y="715" type="line" smooth="yes"/>
      <point x="143" y="815" type="line" smooth="yes"/>
      <point x="60" y="840" type="line" smooth="yes"/>
      <point x="45" y="840" type="line" smooth="yes"/>
      <point x="45" y="800" type="line" smooth="yes"/>
      <point x="118" y="779" type="line" smooth="yes"/>
      <point x="145" y="690" type="line" smooth="yes"/>
      <point x="145" y="458" type="line" smooth="yes"/>
      <point x="160" y="394" type="line" smooth="yes"/>
      <point x="198" y="360" type="line" smooth="yes"/>
      <point x="160" y="326" type="line" smooth="yes"/>
      <point x="145" y="262" type="line" smooth="yes"/>
      <point x="145" y="30" type="line" smooth="yes"/>
      <point x="118" y="-59" type="line" smooth="yes"/>
      <point x="45" y="-80" type="line" smooth="yes"/>
    </contour>
  </outline>
</glyph>
<glyph name="cent" format="1">
  <advance width="600"/>
  <unicode hex="00A2"/>
  <outline>
    <contour>
      <point x="112" y="378" type="line" smooth="yes"/>
      <point x="112" y="403" type="line" smooth="yes"/>
      <point x="165" y="616" type="line" smooth="yes"/>
      <point x="314" y="686" type="line" smooth="yes"/>
      <point x="317" y="686" type="line" smooth="yes"/>
      <point x="332" y="685" type="line" smooth="yes"/>
      <point x="346" y="684" type="line" smooth="yes"/>
      <point x="211" y="122" type="line" smooth="yes"/>
      <point x="137" y="215" type="line" smooth="yes"/>
    </contour>
    <contour>
      <point x="423" y="840" type="line" smooth="yes"/>
      <point x="383" y="840" type="line" smooth="yes"/>
      <point x="355" y="723" type="line" smooth="yes"/>
      <point x="336" y="725" type="line" smooth="yes"/>
      <point x="315" y="726" type="line" smooth="yes"/>
      <point x="132" y="643" type="line" smooth="yes"/>
      <point x="70" y="403" type="line" smooth="yes"/>
      <point x="70" y="378" type="line" smooth="yes"/>
      <point x="103" y="189" type="line" smooth="yes"/>
      <point x="201" y="80" type="line" smooth="yes"/>
      <point x="168" y="-60" type="line" smooth="yes"/>
      <point x="208" y="-60" type="line" smooth="yes"/>
      <point x="238" y="66" type="line" smooth="yes"/>
      <point x="275" y="58" type="line" smooth="yes"/>
      <point x="315" y="56" type="line" smooth="yes"/>
      <point x="480" y="118" type="line" smooth="yes"/>
      <point x="530" y="266" type="line" smooth="yes"/>
      <point x="530" y="278" type="line" smooth="yes"/>
      <point x="489" y="278" type="line" smooth="yes"/>
      <point x="450" y="147" type="line" smooth="yes"/>
      <point x="317" y="96" type="line" smooth="yes"/>
      <point x="314" y="96" type="line" smooth="yes"/>
      <point x="279" y="98" type="line" smooth="yes"/>
      <point x="247" y="105" type="line" smooth="yes"/>
      <point x="384" y="677" type="line" smooth="yes"/>
      <point x="464" y="611" type="line" smooth="yes"/>
      <point x="489" y="481" type="line" smooth="yes"/>
      <point x="530" y="481" type="line" smooth="yes"/>
      <point x="530" y="503" type="line" smooth="yes"/>
      <point x="498" y="635" type="line" smooth="yes"/>
      <point x="393" y="715" type="line" smooth="yes"/>
    </contour>
  </outline>
</glyph>
<glyph name="sterling" format="1">
  <advance width="600"/>
  <unicode hex="00A3"/>
  <outline>
    <contour>
      <point x="330" y="752" type="line" smooth="yes"/>
      <point x="464" y="683" type="line" smooth="yes"/>
      <point x="505" y="500" type="line" smooth="yes"/>
      <point x="545" y="500" type="line" smooth="yes"/>
      <point x="545" y="510" type="line" smooth="yes"/>
      <point x="497" y="707" type="line" smooth="yes"/>
      <point x="330" y="790" type="line" smooth="yes"/>
      <point x="180" y="733" type="line" smooth="yes"/>
      <point x="125" y="575" type="line" smooth="yes"/>
      <point x="131" y="491" type="line" smooth="yes"/>
      <point x="145" y="410" type="line" smooth="yes"/>
      <point x="60" y="410" type="line" smooth="yes"/>
      <point x="60" y="370" type="line" smooth="yes"/>
      <point x="155" y="370" type="line" smooth="yes"/>
      <point x="200" y="210" type="line" smooth="yes"/>
      <point x="229" y="40" type="line" smooth="yes"/>
      <point x="60" y="40" type="line" smooth="yes"/>
      <point x="60" y="0" type="line" smooth="yes"/>
      <point x="540" y="0" type="line" smooth="yes"/>
      <point x="540" y="40" type="line" smooth="yes"/>
      <point x="264" y="40" type="line" smooth="yes"/>
      <point x="242" y="210" type="line" smooth="yes"/>
      <point x="201" y="370" type="line" smooth="yes"/>
      <point x="400" y="370" type="line" smooth="yes"/>
      <point x="400" y="410" type="line" smooth="yes"/>
      <point x="191" y="410" type="line" smooth="yes"/>
      <point x="174" y="492" type="line" smooth="yes"/>
      <point x="167" y="570" type="line" smooth="yes"/>
      <point x="207" y="702" type="line" smooth="yes"/>
    </contour>
  </outline>
</glyph>
<glyph name="yen" format="1">
  <advance width="600"/>
  <unicode hex="00A5"/>
  <outline>
    <contour>
      <point x="45" y="440" type="line" smooth="yes"/>
      <point x="187" y="440" type="line" smooth="yes"/>
      <point x="265" y="280" type="line" smooth="yes"/>
      <point x="45" y="280" type="line" smooth="yes"/>
      <point x="45" y="240" type="line" smooth="yes"/>
      <point x="280" y="240" type="line" smooth="yes"/>
      <point x="280" y="0" type="line" smooth="yes"/>
      <point x="320" y="0" type="line" smooth="yes"/>
      <point x="320" y="240" type="line" smooth="yes"/>
      <point x="555" y="240" type="line" smooth="yes"/>
      <point x="555" y="280" type="line" smooth="yes"/>
      <point x="334" y="280" type="line" smooth="yes"/>
      <point x="413" y="440" type="line" smooth="yes"/>
      <point x="555" y="440" type="line" smooth="yes"/>
      <point x="555" y="480" type="line" smooth="yes"/>
      <point x="432" y="480" type="line" smooth="yes"/>
      <point x="580" y="780" type="line" smooth="yes"/>
      <point x="535" y="780" type="line" smooth="yes"/>
      <point x="300" y="299" type="line" smooth="yes"/>
      <point x="65" y="780" type="line" smooth="yes"/>
      <point x="20" y="780" type="line" smooth="yes"/>
      <point x="167" y="480" type="line" smooth="yes"/>
      <point x="45" y="480" type="line" smooth="yes"/>
    </contour>
  </outline>
</glyph>
<glyph name="section" format="1">
  <advance width="500"/>
  <unicode hex="00A7"/>
  <outline>
    <contour>
      <point x="413" y="390" type="line" smooth="yes"/>
      <point x="373" y="308" type="line" smooth="yes"/>
      <point x="260" y="278" type="line" smooth="yes"/>
      <point x="243" y="278" type="line" smooth="yes"/>
      <point x="125" y="307" type="line" smooth="yes"/>
      <point x="87" y="390" type="line" smooth="yes"/>
      <point x="127" y="472" type="line" smooth="yes"/>
      <point x="240" y="502" type="line" smooth="yes"/>
      <point x="256" y="502" type="line" smooth="yes"/>
      <point x="375" y="473" type="line" smooth="yes"/>
    </contour>
    <contour>
      <point x="455" y="388" type="line" smooth="yes"/>
      <point x="455" y="392" type="line" smooth="yes"/>
      <point x="415" y="495" type="line" smooth="yes"/>
      <point x="275" y="536" type="line" smooth="yes"/>
      <point x="144" y="571" type="line" smooth="yes"/>
      <point x="113" y="645" type="line" smooth="yes"/>
      <point x="152" y="724" type="line" smooth="yes"/>
      <point x="260" y="752" type="line" smooth="yes"/>
      <point x="379" y="714" type="line" smooth="yes"/>
      <point x="410" y="610" type="line" smooth="yes"/>
      <point x="450" y="610" type="line" smooth="yes"/>
      <point x="450" y="614" type="line" smooth="yes"/>
      <point x="408" y="740" type="line" smooth="yes"/>
      <point x="260" y="790" type="line" smooth="yes"/>
      <point x="119" y="749" type="line" smooth="yes"/>
      <point x="71" y="647" type="line" smooth="yes"/>
      <point x="71" y="642" type="line" smooth="yes"/>
      <point x="87" y="572" type="line" smooth="yes"/>
      <point x="149" y="523" type="line" smooth="yes"/>
      <point x="72" y="473" type="line" smooth="yes"/>
      <point x="45" y="392" type="line" smooth="yes"/>
      <point x="45" y="388" type="line" smooth="yes"/>
      <point x="85" y="285" type="line" smooth="yes"/>
      <point x="225" y="244" type="line" smooth="yes"/>
      <point x="356" y="209" type="line" smooth="yes"/>
      <point x="387" y="135" type="line" smooth="yes"/>
      <point x="348" y="56" type="line" smooth="yes"/>
      <point x="240" y="28" type="line" smooth="yes"/>
      <point x="122" y="66" type="line" smooth="yes"/>
      <point x="90" y="170" type="line" smooth="yes"/>
      <point x="50" y="170" type="line" smooth="yes"/>
      <point x="50" y="166" type="line" smooth="yes"/>
      <point x="92" y="41" type="line" smooth="yes"/>
      <point x="240" y="-10" type="line" smooth="yes"/>
      <point x="381" y="31" type="line" smooth="yes"/>
      <point x="429" y="133" type="line" smooth="yes"/>
      <point x="429" y="138" type="line" smooth="yes"/>
      <point x="412" y="207" type="line" smooth="yes"/>
      <point x="350" y="256" type="line" smooth="yes"/>
      <point x="428" y="306" type="line" smooth="yes"/>
    </contour>
  </outline>
</glyph>
<glyph name="dieresis" format="1">
  <advance width="500"/>
  <unicode hex="00A8"/>
  <outline>
    <contour>
      <point x="355" y="735" type="line" smooth="yes"/>
      <point x="295" y="735" type="line" smooth="yes"/>
      <point x="295" y="675" type="line" smooth="yes"/>
      <point x="355" y="675" type="line" smooth="yes"/>
    </contour>
    <contour>
      <point x="205" y="735" type="line" smooth="yes"/>
      <point x="145" y="735" type="line" smooth="yes"/>
      <point x="145" y="675" type="line" smooth="yes"/>
      <point x="205" y="675" type="line" smooth="yes"/>
    </contour>
  </outline>
</glyph>
<glyph name="copyright" format="1">
  <advance width="920"/>
  <unicode hex="00A9"/>
  <outline>
    <contour>
      <point x="460" y="185" type="line" smooth="yes"/>
      <point x="334" y="248" type="line" smooth="yes"/>
      <point x="297" y="380" type="line" smooth="yes"/>
      <point x="297" y="400" type="line" smooth="yes"/>
      <point x="334" y="532" type="line" smooth="yes"/>
      <point x="460" y="595" type="line" smooth="yes"/>
      <point x="575" y="553" type="line" smooth="yes"/>
      <point x="605" y="465" type="line" smooth="yes"/>
      <point x="645" y="465" type="line" smooth="yes"/>
      <point x="645" y="480" type="line" smooth="yes"/>
      <point x="607" y="576" type="line" smooth="yes"/>
      <point x="460" y="635" type="line" smooth="yes"/>
      <point x="301" y="556" type="line" smooth="yes"/>
      <point x="255" y="400" type="line" smooth="yes"/>
      <point x="255" y="380" type="line" smooth="yes"/>
      <point x="301" y="224" type="line" smooth="yes"/>
      <point x="460" y="145" type="line" smooth="yes"/>
      <point x="607" y="201" type="line" smooth="yes"/>
      <point x="645" y="295" type="line" smooth="yes"/>
      <point x="645" y="305" type="line" smooth="yes"/>
      <point x="605" y="305" type="line" smooth="yes"/>
      <point x="576" y="227" type="line" smooth="yes"/>
    </contour>
    <contour>
      <point x="98" y="390" type="line" smooth="yes"/>
      <point x="204" y="646" type="line" smooth="yes"/>
      <point x="460" y="752" type="line" smooth="yes"/>
      <point x="716" y="646" type="line" smooth="yes"/>
      <point x="822" y="390" type="line" smooth="yes"/>
      <point x="716" y="134" type="line" smooth="yes"/>
      <point x="460" y="28" type="line" smooth="yes"/>
      <point x="204" y="134" type="line" smooth="yes"/>
    </contour>
    <contour>
      <point x="60" y="390" type="line" smooth="yes"/>
      <point x="177" y="107" type="line" smooth="yes"/>
      <point x="460" y="-10" type="line" smooth="yes"/>
      <point x="743" y="107" type="line" smooth="yes"/>
      <point x="860" y="390" type="line" smooth="yes"/>
      <point x="743" y="673" type="line" smooth="yes"/>
      <point x="460" y="790" type="line" smooth="yes"/>
      <point x="177" y="673" type="line" smooth="yes"/>
    </contour>
  </outline>
</glyph>
<glyph name="ordfeminine" format="1">
  <advance width="377"/>
  <unicode hex="00AA"/>
  <outline>
    <contour>
      <point x="50" y="223" type="line" smooth="yes"/>
      <point x="335" y="223" type="line" smooth="yes"/>
      <point x="335" y="258" type="line" smooth="yes"/>
      <point x="50" y="258" type="line" smooth="yes"/>
    </contour>
    <contour>
      <point x="162" y="414" type="line" smooth="yes"/>
      <point x="99" y="436" type="line" smooth="yes"/>
      <point x="80" y="487" type="line" smooth="yes"/>
      <point x="80" y="494" type="line" smooth="yes"/>
      <point x="104" y="552" type="line" smooth="yes"/>
      <point x="169" y="580" type="line" smooth="yes"/>
      <point x="293" y="600" type="line" smooth="yes"/>
      <point x="293" y="483" type="line" smooth="yes"/>
      <point x="252" y="440" type="line" smooth="yes"/>
    </contour>
    <contour>
      <point x="306" y="388" type="line" smooth="yes"/>
      <point x="335" y="388" type="line" smooth="yes"/>
      <point x="331" y="499" type="line" smooth="yes"/>
      <point x="331" y="645" type="line" smooth="yes"/>
      <point x="302" y="749" type="line" smooth="yes"/>
      <point x="194" y="790" type="line" smooth="yes"/>
      <point x="83" y="746" type="line" smooth="yes"/>
      <point x="57" y="659" type="line" smooth="yes"/>
      <point x="57" y="652" type="line" smooth="yes"/>
      <point x="94" y="652" type="line" smooth="yes"/>
      <point x="113" y="725" type="line" smooth="yes"/>
      <point x="194" y="756" type="line" smooth="yes"/>
      <point x="272" y="728" type="line" smooth="yes"/>
      <point x="293" y="645" type="line" smooth="yes"/>
      <point x="293" y="631" type="line" smooth="yes"/>
      <point x="169" y="612" type="line" smooth="yes"/>
      <point x="83" y="581" type="line" smooth="yes"/>
      <point x="42" y="493" type="line" smooth="yes"/>
      <point x="42" y="485" type="line" smooth="yes"/>
      <point x="73" y="409" type="line" smooth="yes"/>
      <point x="155" y="380" type="line" smooth="yes"/>
      <point x="244" y="400" type="line" smooth="yes"/>
      <point x="298" y="445" type="line" smooth="yes"/>
    </contour>
  </outline>
</glyph>
<glyph name="macron" format="1">
  <advance width="500"/>
  <unicode hex="00AF"/>
  <outline>
    <contour>
      <point x="145" y="680" type="line" smooth="yes"/>
      <point x="355" y="680" type="line" smooth="yes"/>
      <point x="355" y="720" type="line" smooth="yes"/>
      <point x="145" y="720" type="line" smooth="yes"/>
    </contour>
  </outline>
</glyph>
<glyph name="twosuperior" format="1">
  <advance width="300"/>
  <unicode hex="00B2"/>
  <outline>
    <contour>
      <point x="272" y="422" type="line" smooth="yes"/>
      <point x="82" y="422" type="line" smooth="yes"/>
      <point x="226" y="575" type="line" smooth="yes"/>
      <point x="262" y="624" type="line" smooth="yes"/>
      <point x="272" y="675" type="line" smooth="yes"/>
      <point x="272" y="681" type="line" smooth="yes"/>
      <point x="241" y="756" type="line" smooth="yes"/>
      <point x="150" y="785" type="line" smooth="yes"/>
      <point x="57" y="753" type="line" smooth="yes"/>
      <point x="28" y="662" type="line" smooth="yes"/>
      <point x="28" y="650" type="line" smooth="yes"/>
      <point x="63" y="650" type="line" smooth="yes"/>
      <point x="85" y="729" type="line" smooth="yes"/>
      <point x="148" y="753" type="line" smooth="yes"/>
      <point x="151" y="753" type="line" smooth="yes"/>
      <point x="213" y="733" type="line" smooth="yes"/>
      <point x="236" y="676" type="line" smooth="yes"/>
      <point x="236" y="671" type="line" smooth="yes"/>
      <point x="227" y="632" type="line" smooth="yes"/>
      <point x="196" y="591" type="line" smooth="yes"/>
      <point x="28" y="412" type="line" smooth="yes"/>
      <point x="28" y="390" type="line" smooth="yes"/>
      <point x="272" y="390" type="line" smooth="yes"/>
    </contour>
  </outline>
</glyph>
<glyph name="threesuperior" format="1">
  <advance width="300"/>
  <unicode hex="00B3"/>
  <outline>
    <contour>
      <point x="61" y="515" type="line" smooth="yes"/>
      <point x="25" y="515" type="line" smooth="yes"/>
      <point x="25" y="509" type="line" smooth="yes"/>
      <point x="56" y="418" type="line" smooth="yes"/>
      <point x="150" y="384" type="line" smooth="yes"/>
      <point x="239" y="414" type="line" smooth="yes"/>
      <point x="274" y="490" type="line" smooth="yes"/>
      <point x="274" y="498" type="line" smooth="yes"/>
      <point x="256" y="556" type="line" smooth="yes"/>
      <point x="211" y="588" type="line" smooth="yes"/>
      <point x="255" y="619" type="line" smooth="yes"/>
      <point x="272" y="675" type="line" smooth="yes"/>
      <point x="272" y="682" type="line" smooth="yes"/>
      <point x="241" y="756" type="line" smooth="yes"/>
      <point x="150" y="785" type="line" smooth="yes"/>
      <point x="57" y="753" type="line" smooth="yes"/>
      <point x="28" y="662" type="line" smooth="yes"/>
      <point x="28" y="650" type="line" smooth="yes"/>
      <point x="63" y="650" type="line" smooth="yes"/>
      <point x="84" y="729" type="line" smooth="yes"/>
      <point x="147" y="753" type="line" smooth="yes"/>
      <point x="152" y="753" type="line" smooth="yes"/>
      <point x="213" y="733" type="line" smooth="yes"/>
      <point x="236" y="678" type="line" smooth="yes"/>
      <point x="236" y="674" type="line" smooth="yes"/>
      <point x="212" y="622" type="line" smooth="yes"/>
      <point x="155" y="605" type="line" smooth="yes"/>
      <point x="100" y="605" type="line" smooth="yes"/>
      <point x="100" y="573" type="line" smooth="yes"/>
      <point x="157" y="573" type="line" smooth="yes"/>
      <point x="215" y="554" type="line" smooth="yes"/>
      <point x="239" y="498" type="line" smooth="yes"/>
      <point x="239" y="491" type="line" smooth="yes"/>
      <point x="212" y="434" type="line" smooth="yes"/>
      <point x="152" y="416" type="line" smooth="yes"/>
      <point x="147" y="416" type="line" smooth="yes"/>
      <point x="84" y="440" type="line" smooth="yes"/>
    </contour>
  </outline>
</glyph>
<glyph name="paragraph" format="1">
  <advance width="500"/>
  <unicode hex="00B6"/>
  <outline>
    <contour>
      <point x="82" y="547" type="line" smooth="yes"/>
      <point x="82" y="563" type="line" smooth="yes"/>
      <point x="147" y="709" type="line" smooth="yes"/>
      <point x="268" y="742" type="line" smooth="yes"/>
      <point x="280" y="742" type="line" smooth="yes"/>
      <point x="280" y="368" type="line" smooth="yes"/>
      <point x="268" y="368" type="line" smooth="yes"/>
      <point x="147" y="401" type="line" smooth="yes"/>
    </contour>
    <contour>
      <point x="390" y="0" type="line" smooth="yes"/>
      <point x="430" y="0" type="line" smooth="yes"/>
      <point x="430" y="780" type="line" smooth="yes"/>
      <point x="268" y="780" type="line" smooth="yes"/>
      <point x="114" y="736" type="line" smooth="yes"/>
      <point x="40" y="565" type="line" smooth="yes"/>
      <point x="40" y="545" type="line" smooth="yes"/>
      <point x="114" y="374" type="line" smooth="yes"/>
      <point x="268" y="330" type="line" smooth="yes"/>
      <point x="280" y="330" type="line" smooth="yes"/>
      <point x="280" y="0" type="line" smooth="yes"/>
      <point x="320" y="0" type="line" smooth="yes"/>
      <point x="320" y="742" type="line" smooth="yes"/>
      <point x="390" y="742" type="line" smooth="yes"/>
    </contour>
  </outline>
</glyph>
<glyph name="cedilla" format="1">
  <advance width="602"/>
  <unicode hex="00B8"/>
  <outline>
    <contour>
      <point x="159" y="-188" type="line" smooth="yes"/>
      <point x="198" y="-204" type="line" smooth="yes"/>
      <point x="247" y="-210" type="line" smooth="yes"/>
      <point x="316" y="-193" type="line" smooth="yes"/>
      <point x="344" y="-135" type="line" smooth="yes"/>
      <point x="313" y="-79" type="line" smooth="yes"/>
      <point x="251" y="-64" type="line" smooth="yes"/>
      <point x="246" y="-64" type="line" smooth="yes"/>
      <point x="270" y="0" type="line" smooth="yes"/>
      <point x="234" y="0" type="line" smooth="yes"/>
      <point x="203" y="-83" type="line" smooth="yes"/>
      <point x="220" y="-99" type="line" smooth="yes"/>
      <point x="228" y="-98" type="line" smooth="yes"/>
      <point x="246" y="-97" type="line" smooth="yes"/>
      <point x="292" y="-106" type="line" smooth="yes"/>
      <point x="311" y="-136" type="line" smooth="yes"/>
      <point x="294" y="-168" type="line" smooth="yes"/>
      <point x="242" y="-177" type="line" smooth="yes"/>
      <point x="204" y="-172" type="line" smooth="yes"/>
      <point x="172" y="-158" type="line" smooth="yes"/>
    </contour>
  </outline>
</glyph>
<glyph name="ordmasculine" format="1">
  <advance width="410"/>
  <unicode hex="00BA"/>
  <outline>
    <contour>
      <point x="50" y="223" type="line" smooth="yes"/>
      <point x="360" y="223" type="line" smooth="yes"/>
      <point x="360" y="258" type="line" smooth="yes"/>
      <point x="50" y="258" type="line" smooth="yes"/>
    </contour>
    <contour>
      <point x="82" y="577" type="line" smooth="yes"/>
      <point x="82" y="593" type="line" smooth="yes"/>
      <point x="112" y="710" type="line" smooth="yes"/>
      <point x="205" y="755" type="line" smooth="yes"/>
      <point x="298" y="710" type="line" smooth="yes"/>
      <point x="328" y="593" type="line" smooth="yes"/>
      <point x="328" y="577" type="line" smooth="yes"/>
      <point x="298" y="460" type="line" smooth="yes"/>
      <point x="205" y="415" type="line" smooth="yes"/>
      <point x="112" y="460" type="line" smooth="yes"/>
    </contour>
    <contour>
      <point x="367" y="577" type="line" smooth="yes"/>
      <point x="367" y="593" type="line" smooth="yes"/>
      <point x="328" y="732" type="line" smooth="yes"/>
      <point x="205" y="790" type="line" smooth="yes"/>
      <point x="82" y="732" type="line" smooth="yes"/>
      <point x="43" y="593" type="line" smooth="yes"/>
      <point x="43" y="577" type="line" smooth="yes"/>
      <point x="82" y="438" type="line" smooth="yes"/>
      <point x="205" y="380" type="line" smooth="yes"/>
      <point x="328" y="438" type="line" smooth="yes"/>
    </contour>
  </outline>
</glyph>
<glyph name="onehalf" format="1">
  <advance width="800"/>
  <unicode hex="00BD"/>
  <outline>
    <contour>
      <point x="274" y="390" type="line" smooth="yes"/>
      <point x="274" y="422" type="line" smooth="yes"/>
      <point x="173" y="422" type="line" smooth="yes"/>
      <point x="173" y="782" type="line" smooth="yes"/>
      <point x="150" y="782" type="line" smooth="yes"/>
      <point x="27" y="699" type="line" smooth="yes"/>
      <point x="45" y="671" type="line" smooth="yes"/>
      <point x="137" y="733" type="line" smooth="yes"/>
      <point x="137" y="422" type="line" smooth="yes"/>
      <point x="35" y="422" type="line" smooth="yes"/>
      <point x="35" y="390" type="line" smooth="yes"/>
    </contour>
    <contour>
      <point x="772" y="32" type="line" smooth="yes"/>
      <point x="582" y="32" type="line" smooth="yes"/>
      <point x="726" y="185" type="line" smooth="yes"/>
      <point x="762" y="234" type="line" smooth="yes"/>
      <point x="772" y="285" type="line" smooth="yes"/>
      <point x="772" y="291" type="line" smooth="yes"/>
      <point x="741" y="366" type="line" smooth="yes"/>
      <point x="650" y="395" type="line" smooth="yes"/>
      <point x="557" y="363" type="line" smooth="yes"/>
      <point x="528" y="272" type="line" smooth="yes"/>
      <point x="528" y="260" type="line" smooth="yes"/>
      <point x="563" y="260" type="line" smooth="yes"/>
      <point x="585" y="339" type="line" smooth="yes"/>
      <point x="648" y="363" type="line" smooth="yes"/>
      <point x="651" y="363" type="line" smooth="yes"/>
      <point x="713" y="343" type="line" smooth="yes"/>
      <point x="736" y="286" type="line" smooth="yes"/>
      <point x="736" y="281" type="line" smooth="yes"/>
      <point x="727" y="242" type="line" smooth="yes"/>
      <point x="696" y="201" type="line" smooth="yes"/>
      <point x="528" y="22" type="line" smooth="yes"/>
      <point x="528" y="0" type="line" smooth="yes"/>
      <point x="772" y="0" type="line" smooth="yes"/>
    </contour>
    <contour>
      <point x="134" y="0" type="line" smooth="yes"/>
      <point x="710" y="780" type="line" smooth="yes"/>
      <point x="666" y="780" type="line" smooth="yes"/>
      <point x="90" y="0" type="line" smooth="yes"/>
    </contour>
  </outline>
</glyph>
<glyph name="questiondown" format="1">
  <advance width="440"/>
  <unicode hex="00BF"/>
  <outline>
    <contour>
      <point x="190" y="470" type="line" smooth="yes"/>
      <point x="250" y="470" type="line" smooth="yes"/>
      <point x="250" y="530" type="line" smooth="yes"/>
      <point x="190" y="530" type="line" smooth="yes"/>
    </contour>
    <contour>
      <point x="217" y="-172" type="line" smooth="yes"/>
      <point x="107" y="-132" type="line" smooth="yes"/>
      <point x="74" y="-25" type="line" smooth="yes"/>
      <point x="155" y="155" type="line" smooth="yes"/>
      <point x="232" y="355" type="line" smooth="yes"/>
      <point x="208" y="355" type="line" smooth="yes"/>
      <point x="118" y="168" type="line" smooth="yes"/>
      <point x="32" y="-30" type="line" smooth="yes"/>
      <point x="81" y="-163" type="line" smooth="yes"/>
      <point x="217" y="-210" type="line" smooth="yes"/>
      <point x="374" y="-133" type="line" smooth="yes"/>
      <point x="412" y="50" type="line" smooth="yes"/>
      <point x="412" y="60" type="line" smooth="yes"/>
      <point x="372" y="60" type="line" smooth="yes"/>
      <point x="341" y="-109" type="line" smooth="yes"/>
    </contour>
  </outline>
</glyph>
<glyph name="Atilde" format="1">
  <advance width="600"/>
  <unicode hex="00C3"/>
  <outline>
    <contour>
      <point x="404" y="932" type="line" smooth="yes"/>
      <point x="394" y="893" type="line" smooth="yes"/>
      <point x="365" y="881" type="line" smooth="yes"/>
      <point x="305" y="912" type="line" smooth="yes"/>
      <point x="232" y="942" type="line" smooth="yes"/>
      <point x="180" y="921" type="line" smooth="yes"/>
      <point x="160" y="858" type="line" smooth="yes"/>
      <point x="196" y="858" type="line" smooth="yes"/>
      <point x="206" y="897" type="line" smooth="yes"/>
      <point x="235" y="909" type="line" smooth="yes"/>
      <point x="295" y="879" type="line" smooth="yes"/>
      <point x="368" y="848" type="line" smooth="yes"/>
      <point x="420" y="869" type="line" smooth="yes"/>
      <point x="440" y="932" type="line" smooth="yes"/>
    </contour>
    <contour>
      <point x="300" y="750" type="line" smooth="yes"/>
      <point x="448" y="249" type="line" smooth="yes"/>
      <point x="151" y="249" type="line" smooth="yes"/>
    </contour>
    <contour>
      <point x="270" y="790" type="line" smooth="yes"/>
      <point x="34" y="0" type="line" smooth="yes"/>
      <point x="78" y="0" type="line" smooth="yes"/>
      <point x="140" y="211" type="line" smooth="yes"/>
      <point x="459" y="211" type="line" smooth="yes"/>
      <point x="522" y="0" type="line" smooth="yes"/>
      <point x="566" y="0" type="line" smooth="yes"/>
      <point x="330" y="790" type="line" smooth="yes"/>
    </contour>
  </outline>
</glyph>
<glyph name="Aring" format="1">
  <advance width="600"/>
  <unicode hex="00C5"/>
  <outline>
    <contour>
      <point x="242" y="870" type="line" smooth="yes"/>
      <point x="259" y="911" type="line" smooth="yes"/>
      <point x="300" y="928" type="line" smooth="yes"/>
      <point x="341" y="911" type="line" smooth="yes"/>
      <point x="358" y="870" type="line" smooth="yes"/>
      <point x="341" y="829" type="line" smooth="yes"/>
      <point x="300" y="812" type="line" smooth="yes"/>
      <point x="259" y="829" type="line" smooth="yes"/>
    </contour>
    <contour>
      <point x="300" y="750" type="line" smooth="yes"/>
      <point x="448" y="249" type="line" smooth="yes"/>
      <point x="151" y="249" type="line" smooth="yes"/>
    </contour>
    <contour>
      <point x="210" y="870" type="line" smooth="yes"/>
      <point x="226" y="818" type="line" smooth="yes"/>
      <point x="268" y="785" type="line" smooth="yes"/>
      <point x="34" y="0" type="line" smooth="yes"/>
      <point x="78" y="0" type="line" smooth="yes"/>
      <point x="140" y="211" type="line" smooth="yes"/>
      <point x="459" y="211" type="line" smooth="yes"/>
      <point x="522" y="0" type="line" smooth="yes"/>
      <point x="566" y="0" type="line" smooth="yes"/>
      <point x="331" y="785" type="line" smooth="yes"/>
      <point x="374" y="818" type="line" smooth="yes"/>
      <point x="390" y="870" type="line" smooth="yes"/>
      <point x="364" y="934" type="line" smooth="yes"/>
      <point x="300" y="960" type="line" smooth="yes"/>
      <point x="236" y="934" type="line" smooth="yes"/>
    </contour>
  </outline>
</glyph>
<glyph name="Ccedilla" format="1">
  <advance width="607"/>
  <unicode hex="00C7"/>
  <outline>
    <contour>
      <point x="233" y="-188" type="line" smooth="yes"/>
      <point x="272" y="-204" type="line" smooth="yes"/>
      <point x="321" y="-210" type="line" smooth="yes"/>
      <point x="390" y="-193" type="line" smooth="yes"/>
      <point x="418" y="-135" type="line" smooth="yes"/>
      <point x="387" y="-79" type="line" smooth="yes"/>
      <point x="325" y="-64" type="line" smooth="yes"/>
      <point x="320" y="-64" type="line" smooth="yes"/>
      <point x="340" y="-9" type="line" smooth="yes"/>
      <point x="500" y="63" type="line" smooth="yes"/>
      <point x="552" y="240" type="line" smooth="yes"/>
      <point x="552" y="250" type="line" smooth="yes"/>
      <point x="510" y="250" type="line" smooth="yes"/>
      <point x="466" y="85" type="line" smooth="yes"/>
      <point x="323" y="28" type="line" smooth="yes"/>
      <point x="317" y="28" type="line" smooth="yes"/>
      <point x="158" y="107" type="line" smooth="yes"/>
      <point x="105" y="370" type="line" smooth="yes"/>
      <point x="105" y="410" type="line" smooth="yes"/>
      <point x="159" y="673" type="line" smooth="yes"/>
      <point x="317" y="752" type="line" smooth="yes"/>
      <point x="323" y="752" type="line" smooth="yes"/>
      <point x="465" y="694" type="line" smooth="yes"/>
      <point x="510" y="500" type="line" smooth="yes"/>
      <point x="552" y="500" type="line" smooth="yes"/>
      <point x="552" y="525" type="line" smooth="yes"/>
      <point x="495" y="721" type="line" smooth="yes"/>
      <point x="318" y="790" type="line" smooth="yes"/>
      <point x="127" y="701" type="line" smooth="yes"/>
      <point x="63" y="410" type="line" smooth="yes"/>
      <point x="63" y="370" type="line" smooth="yes"/>
      <point x="123" y="84" type="line" smooth="yes"/>
      <point x="304" y="-10" type="line" smooth="yes"/>
      <point x="277" y="-83" type="line" smooth="yes"/>
      <point x="294" y="-99" type="line" smooth="yes"/>
      <point x="302" y="-98" type="line" smooth="yes"/>
      <point x="320" y="-97" type="line" smooth="yes"/>
      <point x="366" y="-106" type="line" smooth="yes"/>
      <point x="385" y="-136" type="line" smooth="yes"/>
      <point x="368" y="-168" type="line" smooth="yes"/>
      <point x="316" y="-177" type="line" smooth="yes"/>
      <point x="278" y="-172" type="line" smooth="yes"/>
      <point x="246" y="-158" type="line" smooth="yes"/>
    </contour>
  </outline>
</glyph>
<glyph name="Egrave" format="1">
  <advance width="540"/>
  <unicode hex="00C8"/>
  <outline>
    <contour>
      <point x="217" y="950" type="line" smooth="yes"/>
      <point x="279" y="840" type="line" smooth="yes"/>
      <point x="321" y="840" type="line" smooth="yes"/>
      <point x="259" y="950" type="line" smooth="yes"/>
    </contour>
    <contour>
      <point x="80" y="780" type="line" smooth="yes"/>
      <point x="80" y="0" type="line" smooth="yes"/>
      <point x="500" y="0" type="line" smooth="yes"/>
      <point x="500" y="38" type="line" smooth="yes"/>
      <point x="120" y="38" type="line" smooth="yes"/>
      <point x="120" y="379" type="line" smooth="yes"/>
      <point x="450" y="379" type="line" smooth="yes"/>
      <point x="450" y="417" type="line" smooth="yes"/>
      <point x="120" y="417" type="line" smooth="yes"/>
      <point x="120" y="742" type="line" smooth="yes"/>
      <point x="500" y="742" type="line" smooth="yes"/>
      <point x="500" y="780" type="line" smooth="yes"/>
    </contour>
  </outline>
</glyph>
<glyph name="Eacute" format="1">
  <advance width="540"/>
  <unicode hex="00C9"/>
  <outline>
    <contour>
      <point x="341" y="950" type="line" smooth="yes"/>
      <point x="279" y="840" type="line" smooth="yes"/>
      <point x="321" y="840" type="line" smooth="yes"/>
      <point x="383" y="950" type="line" smooth="yes"/>
    </contour>
    <contour>
      <point x="80" y="780" type="line" smooth="yes"/>
      <point x="80" y="0" type="line" smooth="yes"/>
      <point x="500" y="0" type="line" smooth="yes"/>
      <point x="500" y="38" type="line" smooth="yes"/>
      <point x="120" y="38" type="line" smooth="yes"/>
      <point x="120" y="379" type="line" smooth="yes"/>
      <point x="450" y="379" type="line" smooth="yes"/>
      <point x="450" y="417" type="line" smooth="yes"/>
      <point x="120" y="417" type="line" smooth="yes"/>
      <point x="120" y="742" type="line" smooth="yes"/>
      <point x="500" y="742" type="line" smooth="yes"/>
      <point x="500" y="780" type="line" smooth="yes"/>
    </contour>
  </outline>
</glyph>
<glyph name="Ntilde" format="1">
  <advance width="650"/>
  <unicode hex="00D1"/>
  <outline>
    <contour>
      <point x="429" y="932" type="line" smooth="yes"/>
      <point x="419" y="893" type="line" smooth="yes"/>
      <point x="390" y="881" type="line" smooth="yes"/>
      <point x="330" y="912" type="line" smooth="yes"/>
      <point x="257" y="942" type="line" smooth="yes"/>
      <point x="205" y="921" type="line" smooth="yes"/>
      <point x="185" y="858" type="line" smooth="yes"/>
      <point x="221" y="858" type="line" smooth="yes"/>
      <point x="231" y="897" type="line" smooth="yes"/>
      <point x="260" y="909" type="line" smooth="yes"/>
      <point x="320" y="879" type="line" smooth="yes"/>
      <point x="393" y="848" type="line" smooth="yes"/>
      <point x="445" y="869" type="line" smooth="yes"/>
      <point x="465" y="932" type="line" smooth="yes"/>
    </contour>
    <contour>
      <point x="570" y="780" type="line" smooth="yes"/>
      <point x="532" y="780" type="line" smooth="yes"/>
      <point x="532" y="250" type="line" smooth="yes"/>
      <point x="535" y="60" type="line" smooth="yes"/>
      <point x="125" y="780" type="line" smooth="yes"/>
      <point x="80" y="780" type="line" smooth="yes"/>
      <point x="80" y="0" type="line" smooth="yes"/>
      <point x="118" y="0" type="line" smooth="yes"/>
      <point x="118" y="530" type="line" smooth="yes"/>
      <point x="115" y="720" type="line" smooth="yes"/>
      <point x="525" y="0" type="line" smooth="yes"/>
      <point x="570" y="0" type="line" smooth="yes"/>
    </contour>
  </outline>
</glyph>
<glyph name="Ograve" format="1">
  <advance width="640"/>
  <unicode hex="00D2"/>
  <outline>
    <contour>
      <point x="237" y="950" type="line" smooth="yes"/>
      <point x="299" y="840" type="line" smooth="yes"/>
      <point x="341" y="840" type="line" smooth="yes"/>
      <point x="279" y="950" type="line" smooth="yes"/>
    </contour>
    <contour>
      <point x="317" y="28" type="line" smooth="yes"/>
      <point x="158" y="107" type="line" smooth="yes"/>
      <point x="105" y="370" type="line" smooth="yes"/>
      <point x="105" y="410" type="line" smooth="yes"/>
      <point x="158" y="673" type="line" smooth="yes"/>
      <point x="317" y="752" type="line" smooth="yes"/>
      <point x="323" y="752" type="line" smooth="yes"/>
      <point x="482" y="673" type="line" smooth="yes"/>
      <point x="535" y="410" type="line" smooth="yes"/>
      <point x="535" y="370" type="line" smooth="yes"/>
      <point x="482" y="107" type="line" smooth="yes"/>
      <point x="323" y="28" type="line" smooth="yes"/>
    </contour>
    <contour>
      <point x="320" y="-10" type="line" smooth="yes"/>
      <point x="512" y="79" type="line" smooth="yes"/>
      <point x="577" y="370" type="line" smooth="yes"/>
      <point x="577" y="410" type="line" smooth="yes"/>
      <point x="512" y="701" type="line" smooth="yes"/>
      <point x="320" y="790" type="line" smooth="yes"/>
      <point x="128" y="701" type="line" smooth="yes"/>
      <point x="63" y="410" type="line" smooth="yes"/>
      <point x="63" y="370" type="line" smooth="yes"/>
      <point x="128" y="79" type="line" smooth="yes"/>
    </contour>
  </outline>
</glyph>
<glyph name="Ocircumflex" format="1">
  <advance width="640"/>
  <unicode hex="00D4"/>
  <outline>
    <contour>
      <point x="250" y="840" type="line" smooth="yes"/>
      <point x="320" y="917" type="line" smooth="yes"/>
      <point x="390" y="840" type="line" smooth="yes"/>
      <point x="435" y="840" type="line" smooth="yes"/>
      <point x="335" y="950" type="line" smooth="yes"/>
      <point x="305" y="950" type="line" smooth="yes"/>
      <point x="205" y="840" type="line" smooth="yes"/>
    </contour>
    <contour>
      <point x="317" y="28" type="line" smooth="yes"/>
      <point x="158" y="107" type="line" smooth="yes"/>
      <point x="105" y="370" type="line" smooth="yes"/>
      <point x="105" y="410" type="line" smooth="yes"/>
      <point x="158" y="673" type="line" smooth="yes"/>
      <point x="317" y="752" type="line" smooth="yes"/>
      <point x="323" y="752" type="line" smooth="yes"/>
      <point x="482" y="673" type="line" smooth="yes"/>
      <point x="535" y="410" type="line" smooth="yes"/>
      <point x="535" y="370" type="line" smooth="yes"/>
      <point x="482" y="107" type="line" smooth="yes"/>
      <point x="323" y="28" type="line" smooth="yes"/>
    </contour>
    <contour>
      <point x="320" y="-10" type="line" smooth="yes"/>
      <point x="512" y="79" type="line" smooth="yes"/>
      <point x="577" y="370" type="line" smooth="yes"/>
      <point x="577" y="410" type="line" smooth="yes"/>
      <point x="512" y="701" type="line" smooth="yes"/>
      <point x="320" y="790" type="line" smooth="yes"/>
      <point x="128" y="701" type="line" smooth="yes"/>
      <point x="63" y="410" type="line" smooth="yes"/>
      <point x="63" y="370" type="line" smooth="yes"/>
      <point x="128" y="79" type="line" smooth="yes"/>
    </contour>
  </outline>
</glyph>
<glyph name="Otilde" format="1">
  <advance width="640"/>
  <unicode hex="00D5"/>
  <outline>
    <contour>
      <point x="424" y="932" type="line" smooth="yes"/>
      <point x="414" y="893" type="line" smooth="yes"/>
      <point x="385" y="881" type="line" smooth="yes"/>
      <point x="325" y="912" type="line" smooth="yes"/>
      <point x="252" y="942" type="line" smooth="yes"/>
      <point x="200" y="921" type="line" smooth="yes"/>
      <point x="180" y="858" type="line" smooth="yes"/>
      <point x="216" y="858" type="line" smooth="yes"/>
      <point x="226" y="897" type="line" smooth="yes"/>
      <point x="255" y="909" type="line" smooth="yes"/>
      <point x="315" y="879" type="line" smooth="yes"/>
      <point x="388" y="848" type="line" smooth="yes"/>
      <point x="440" y="869" type="line" smooth="yes"/>
      <point x="460" y="932" type="line" smooth="yes"/>
    </contour>
    <contour>
      <point x="317" y="28" type="line" smooth="yes"/>
      <point x="158" y="107" type="line" smooth="yes"/>
      <point x="105" y="370" type="line" smooth="yes"/>
      <point x="105" y="410" type="line" smooth="yes"/>
      <point x="158" y="673" type="line" smooth="yes"/>
      <point x="317" y="752" type="line" smooth="yes"/>
      <point x="323" y="752" type="line" smooth="yes"/>
      <point x="482" y="673" type="line" smooth="yes"/>
      <point x="535" y="410" type="line" smooth="yes"/>
      <point x="535" y="370" type="line" smooth="yes"/>
      <point x="482" y="107" type="line" smooth="yes"/>
      <point x="323" y="28" type="line" smooth="yes"/>
    </contour>
    <contour>
      <point x="320" y="-10" type="line" smooth="yes"/>
      <point x="512" y="79" type="line" smooth="yes"/>
      <point x="577" y="370" type="line" smooth="yes"/>
      <point x="577" y="410" type="line" smooth="yes"/>
      <point x="512" y="701" type="line" smooth="yes"/>
      <point x="320" y="790" type="line" smooth="yes"/>
      <point x="128" y="701" type="line" smooth="yes"/>
      <point x="63" y="410" type="line" smooth="yes"/>
      <point x="63" y="370" type="line" smooth="yes"/>
      <point x="128" y="79" type="line" smooth="yes"/>
    </contour>
  </outline>
</glyph>
<glyph name="Oslash" format="1">
  <advance width="626"/>
  <unicode hex="00D8"/>
  <outline>
    <contour>
      <point x="105" y="370" type="line" smooth="yes"/>
      <point x="105" y="410" type="line" smooth="yes"/>
      <point x="158" y="673" type="line" smooth="yes"/>
      <point x="317" y="752" type="line" smooth="yes"/>
      <point x="323" y="752" type="line" smooth="yes"/>
      <point x="408" y="737" type="line" smooth="yes"/>
      <point x="471" y="688" type="line" smooth="yes"/>
      <point x="141" y="137" type="line" smooth="yes"/>
      <point x="114" y="235" type="line" smooth="yes"/>
    </contour>
    <contour>
      <point x="535" y="410" type="line" smooth="yes"/>
      <point x="535" y="370" type="line" smooth="yes"/>
      <point x="482" y="107" type="line" smooth="yes"/>
      <point x="323" y="28" type="line" smooth="yes"/>
      <point x="317" y="28" type="line" smooth="yes"/>
      <point x="228" y="45" type="line" smooth="yes"/>
      <point x="163" y="99" type="line" smooth="yes"/>
      <point x="494" y="652" type="line" smooth="yes"/>
      <point x="525" y="551" type="line" smooth="yes"/>
    </contour>
    <contour>
      <point x="63" y="410" type="line" smooth="yes"/>
      <point x="63" y="370" type="line" smooth="yes"/>
      <point x="77" y="210" type="line" smooth="yes"/>
      <point x="117" y="95" type="line" smooth="yes"/>
      <point x="60" y="0" type="line" smooth="yes"/>
      <point x="104" y="0" type="line" smooth="yes"/>
      <point x="141" y="62" type="line" smooth="yes"/>
      <point x="217" y="7" type="line" smooth="yes"/>
      <point x="320" y="-10" type="line" smooth="yes"/>
      <point x="512" y="79" type="line" smooth="yes"/>
      <point x="577" y="370" type="line" smooth="yes"/>
      <point x="577" y="410" type="line" smooth="yes"/>
      <point x="562" y="577" type="line" smooth="yes"/>
      <point x="518" y="693" type="line" smooth="yes"/>
      <point x="570" y="780" type="line" smooth="yes"/>
      <point x="526" y="780" type="line" smooth="yes"/>
      <point x="493" y="725" type="line" smooth="yes"/>
      <point x="418" y="774" type="line" smooth="yes"/>
      <point x="320" y="790" type="line" smooth="yes"/>
      <point x="128" y="701" type="line" smooth="yes"/>
    </contour>
  </outline>
</glyph>
<glyph name="Uacute" format="1">
  <advance width="630"/>
  <unicode hex="00DA"/>
  <outline>
    <contour>
      <point x="356" y="950" type="line" smooth="yes"/>
      <point x="294" y="840" type="line" smooth="yes"/>
      <point x="336" y="840" type="line" smooth="yes"/>
      <point x="398" y="950" type="line" smooth="yes"/>
    </contour>
    <contour>
      <point x="315" y="-10" type="line" smooth="yes"/>
      <point x="491" y="42" type="line" smooth="yes"/>
      <point x="555" y="240" type="line" smooth="yes"/>
      <point x="555" y="780" type="line" smooth="yes"/>
      <point x="515" y="780" type="line" smooth="yes"/>
      <point x="515" y="245" type="line" smooth="yes"/>
      <point x="464" y="72" type="line" smooth="yes"/>
      <point x="315" y="28" type="line" smooth="yes"/>
      <point x="166" y="72" type="line" smooth="yes"/>
      <point x="115" y="245" type="line" smooth="yes"/>
      <point x="115" y="780" type="line" smooth="yes"/>
      <point x="75" y="780" type="line" smooth="yes"/>
      <point x="75" y="240" type="line" smooth="yes"/>
      <point x="139" y="42" type="line" smooth="yes"/>
    </contour>
  </outline>
</glyph>
<glyph name="Ucircumflex" format="1">
  <advance width="630"/>
  <unicode hex="00DB"/>
  <outline>
    <contour>
      <point x="245" y="840" type="line" smooth="yes"/>
      <point x="315" y="917" type="line" smooth="yes"/>
      <point x="385" y="840" type="line" smooth="yes"/>
      <point x="430" y="840" type="line" smooth="yes"/>
      <point x="330" y="950" type="line" smooth="yes"/>
      <point x="300" y="950" type="line" smooth="yes"/>
      <point x="200" y="840" type="line" smooth="yes"/>
    </contour>
    <contour>
      <point x="315" y="-10" type="line" smooth="yes"/>
      <point x="491" y="42" type="line" smooth="yes"/>
      <point x="555" y="240" type="line" smooth="yes"/>
      <point x="555" y="780" type="line" smooth="yes"/>
      <point x="515" y="780" type="line" smooth="yes"/>
      <point x="515" y="245" type="line" smooth="yes"/>
      <point x="464" y="72" type="line" smooth="yes"/>
      <point x="315" y="28" type="line" smooth="yes"/>
      <point x="166" y="72" type="line" smooth="yes"/>
      <point x="115" y="245" type="line" smooth="yes"/>
      <point x="115" y="780" type="line" smooth="yes"/>
      <point x="75" y="780" type="line" smooth="yes"/>
      <point x="75" y="240" type="line" smooth="yes"/>
      <point x="139" y="42" type="line" smooth="yes"/>
    </contour>
  </outline>
</glyph>
<glyph name="Udieresis" format="1">
  <advance width="630"/>
  <unicode hex="00DC"/>
  <outline>
    <contour>
      <point x="270" y="925" type="line" smooth="yes"/>
      <point x="210" y="925" type="line" smooth="yes"/>
      <point x="210" y="865" type="line" smooth="yes"/>
      <point x="270" y="865" type="line" smooth="yes"/>
    </contour>
    <contour>
      <point x="420" y="925" type="line" smooth="yes"/>
      <point x="360" y="925" type="line" smooth="yes"/>
      <point x="360" y="865" type="line" smooth="yes"/>
      <point x="420" y="865" type="line" smooth="yes"/>
    </contour>
    <contour>
      <point x="315" y="-10" type="line" smooth="yes"/>
      <point x="491" y="42" type="line" smooth="yes"/>
      <point x="555" y="240" type="line" smooth="yes"/>
      <point x="555" y="780" type="line" smooth="yes"/>
      <point x="515" y="780" type="line" smooth="yes"/>
      <point x="515" y="245" type="line" smooth="yes"/>
      <point x="464" y="72" type="line" smooth="yes"/>
      <point x="315" y="28" type="line" smooth="yes"/>
      <point x="166" y="72" type="line" smooth="yes"/>
      <point x="115" y="245" type="line" smooth="yes"/>
      <point x="115" y="780" type="line" smooth="yes"/>
      <point x="75" y="780" type="line" smooth="yes"/>
      <point x="75" y="240" type="line" smooth="yes"/>
      <point x="139" y="42" type="line" smooth="yes"/>
    </contour>
  </outline>
</glyph>
<glyph name="Thorn" format="1">
  <advance width="560"/>
  <unicode hex="00DE"/>
  <outline>
    <contour>
      <point x="120" y="203" type="line" smooth="yes"/>
      <point x="120" y="577" type="line" smooth="yes"/>
      <point x="282" y="577" type="line" smooth="yes"/>
      <point x="404" y="544" type="line" smooth="yes"/>
      <point x="468" y="398" type="line" smooth="yes"/>
      <point x="468" y="382" type="line" smooth="yes"/>
      <point x="404" y="236" type="line" smooth="yes"/>
      <point x="282" y="203" type="line" smooth="yes"/>
    </contour>
    <contour>
      <point x="120" y="780" type="line" smooth="yes"/>
      <point x="80" y="780" type="line" smooth="yes"/>
      <point x="80" y="0" type="line" smooth="yes"/>
      <point x="120" y="0" type="line" smooth="yes"/>
      <point x="120" y="165" type="line" smooth="yes"/>
      <point x="282" y="165" type="line" smooth="yes"/>
      <point x="436" y="209" type="line" smooth="yes"/>
      <point x="510" y="380" type="line" smooth="yes"/>
      <point x="510" y="400" type="line" smooth="yes"/>
      <point x="436" y="571" type="line" smooth="yes"/>
      <point x="282" y="615" type="line" smooth="yes"/>
      <point x="120" y="615" type="line" smooth="yes"/>
    </contour>
  </outline>
</glyph>
<glyph name="germandbls" format="1">
  <advance width="550"/>
  <unicode hex="00DF"/>
  <outline>
    <contour>
      <point x="255" y="382" type="line" smooth="yes"/>
      <point x="326" y="336" type="line" smooth="yes"/>
      <point x="441" y="250" type="line" smooth="yes"/>
      <point x="480" y="160" type="line" smooth="yes"/>
      <point x="454" y="69" type="line" smooth="yes"/>
      <point x="350" y="28" type="line" smooth="yes"/>
      <point x="246" y="69" type="line" smooth="yes"/>
      <point x="220" y="160" type="line" smooth="yes"/>
      <point x="180" y="160" type="line" smooth="yes"/>
      <point x="180" y="156" type="line" smooth="yes"/>
      <point x="213" y="46" type="line" smooth="yes"/>
      <point x="350" y="-10" type="line" smooth="yes"/>
      <point x="488" y="46" type="line" smooth="yes"/>
      <point x="520" y="157" type="line" smooth="yes"/>
      <point x="520" y="161" type="line" smooth="yes"/>
      <point x="480" y="266" type="line" smooth="yes"/>
      <point x="365" y="358" type="line" smooth="yes"/>
      <point x="307" y="396" type="line" smooth="yes"/>
      <point x="418" y="495" type="line" smooth="yes"/>
      <point x="450" y="608" type="line" smooth="yes"/>
      <point x="450" y="614" type="line" smooth="yes"/>
      <point x="404" y="756" type="line" smooth="yes"/>
      <point x="260" y="810" type="line" smooth="yes"/>
      <point x="116" y="756" type="line" smooth="yes"/>
      <point x="70" y="614" type="line" smooth="yes"/>
      <point x="70" y="0" type="line" smooth="yes"/>
      <point x="110" y="0" type="line" smooth="yes"/>
      <point x="110" y="610" type="line" smooth="yes"/>
      <point x="146" y="726" type="line" smooth="yes"/>
      <point x="260" y="770" type="line" smooth="yes"/>
      <point x="374" y="726" type="line" smooth="yes"/>
      <point x="410" y="610" type="line" smooth="yes"/>
      <point x="375" y="501" type="line" smooth="yes"/>
      <point x="255" y="410" type="line" smooth="yes"/>
    </contour>
  </outline>
</glyph>
<glyph name="atilde" format="1">
  <advance width="500"/>
  <unicode hex="00E3"/>
  <outline>
    <contour>
      <point x="355" y="737" type="line" smooth="yes"/>
      <point x="344" y="698" type="line" smooth="yes"/>
      <point x="318" y="687" type="line" smooth="yes"/>
      <point x="255" y="717" type="line" smooth="yes"/>
      <point x="180" y="747" type="line" smooth="yes"/>
      <point x="129" y="726" type="line" smooth="yes"/>
      <point x="110" y="663" type="line" smooth="yes"/>
      <point x="145" y="663" type="line" smooth="yes"/>
      <point x="156" y="702" type="line" smooth="yes"/>
      <point x="182" y="713" type="line" smooth="yes"/>
      <point x="245" y="683" type="line" smooth="yes"/>
      <point x="320" y="653" type="line" smooth="yes"/>
      <point x="371" y="674" type="line" smooth="yes"/>
      <point x="390" y="737" type="line" smooth="yes"/>
    </contour>
    <contour>
      <point x="205" y="28" type="line" smooth="yes"/>
      <point x="118" y="59" type="line" smooth="yes"/>
      <point x="90" y="130" type="line" smooth="yes"/>
      <point x="90" y="140" type="line" smooth="yes"/>
      <point x="124" y="221" type="line" smooth="yes"/>
      <point x="215" y="259" type="line" smooth="yes"/>
      <point x="390" y="288" type="line" smooth="yes"/>
      <point x="390" y="128" type="line" smooth="yes"/>
      <point x="335" y="65" type="line" smooth="yes"/>
    </contour>
    <contour>
      <point x="405" y="0" type="line" smooth="yes"/>
      <point x="435" y="0" type="line" smooth="yes"/>
      <point x="430" y="150" type="line" smooth="yes"/>
      <point x="430" y="345" type="line" smooth="yes"/>
      <point x="392" y="485" type="line" smooth="yes"/>
      <point x="250" y="540" type="line" smooth="yes"/>
      <point x="104" y="481" type="line" smooth="yes"/>
      <point x="70" y="364" type="line" smooth="yes"/>
      <point x="70" y="355" type="line" smooth="yes"/>
      <point x="110" y="355" type="line" smooth="yes"/>
      <point x="137" y="459" type="line" smooth="yes"/>
      <point x="250" y="502" type="line" smooth="yes"/>
      <point x="360" y="462" type="line" smooth="yes"/>
      <point x="390" y="345" type="line" smooth="yes"/>
      <point x="390" y="325" type="line" smooth="yes"/>
      <point x="218" y="298" type="line" smooth="yes"/>
      <point x="105" y="258" type="line" smooth="yes"/>
      <point x="50" y="140" type="line" smooth="yes"/>
      <point x="50" y="130" type="line" smooth="yes"/>
      <point x="91" y="28" type="line" smooth="yes"/>
      <point x="200" y="-10" type="line" smooth="yes"/>
      <point x="322" y="18" type="line" smooth="yes"/>
      <point x="395" y="80" type="line" smooth="yes"/>
    </contour>
  </outline>
</glyph>
<glyph name="aring" format="1">
  <advance width="500"/>
  <unicode hex="00E5"/>
  <outline>
    <contour>
      <point x="187" y="700" type="line" smooth="yes"/>
      <point x="204" y="741" type="line" smooth="yes"/>
      <point x="245" y="758" type="line" smooth="yes"/>
      <point x="286" y="741" type="line" smooth="yes"/>
      <point x="303" y="700" type="line" smooth="yes"/>
      <point x="286" y="659" type="line" smooth="yes"/>
      <point x="245" y="642" type="line" smooth="yes"/>
      <point x="204" y="659" type="line" smooth="yes"/>
    </contour>
    <contour>
      <point x="155" y="700" type="line" smooth="yes"/>
      <point x="181" y="636" type="line" smooth="yes"/>
      <point x="245" y="610" type="line" smooth="yes"/>
      <point x="309" y="636" type="line" smooth="yes"/>
      <point x="335" y="700" type="line" smooth="yes"/>
      <point x="309" y="764" type="line" smooth="yes"/>
      <point x="245" y="790" type="line" smooth="yes"/>
      <point x="181" y="764" type="line" smooth="yes"/>
    </contour>
    <contour>
      <point x="205" y="28" type="line" smooth="yes"/>
      <point x="118" y="59" type="line" smooth="yes"/>
      <point x="90" y="130" type="line" smooth="yes"/>
      <point x="90" y="140" type="line" smooth="yes"/>
      <point x="124" y="221" type="line" smooth="yes"/>
      <point x="215" y="259" type="line" smooth="yes"/>
      <point x="390" y="288" type="line" smooth="yes"/>
      <point x="390" y="128" type="line" smooth="yes"/>
      <point x="335" y="65" type="line" smooth="yes"/>
    </contour>
    <contour>
      <point x="50" y="130" type="line" smooth="yes"/>
      <point x="91" y="28" type="line" smooth="yes"/>
      <point x="200" y="-10" type="line" smooth="yes"/>
      <point x="322" y="18" type="line" smooth="yes"/>
      <point x="395" y="80" type="line" smooth="yes"/>
      <point x="405" y="0" type="line" smooth="yes"/>
      <point x="435" y="0" type="line" smooth="yes"/>
      <point x="430" y="150" type="line" smooth="yes"/>
      <point x="430" y="345" type="line" smooth="yes"/>
      <point x="392" y="485" type="line" smooth="yes"/>
      <point x="250" y="540" type="line" smooth="yes"/>
      <point x="104" y="481" type="line" smooth="yes"/>
      <point x="70" y="364" type="line" smooth="yes"/>
      <point x="70" y="355" type="line" smooth="yes"/>
      <point x="110" y="355" type="line" smooth="yes"/>
      <point x="137" y="459" type="line" smooth="yes"/>
      <point x="250" y="502" type="line" smooth="yes"/>
      <point x="360" y="462" type="line" smooth="yes"/>
      <point x="390" y="345" type="line" smooth="yes"/>
      <point x="390" y="325" type="line" smooth="yes"/>
      <point x="218" y="298" type="line" smooth="yes"/>
      <point x="105" y="258" type="line" smooth="yes"/>
      <point x="50" y="140" type="line" smooth="yes"/>
    </contour>
  </outline>
</glyph>
<glyph name="ae" format="1">
  <advance width="875"/>
  <unicode hex="00E6"/>
  <outline>
    <contour>
      <point x="605" y="502" type="line" smooth="yes"/>
      <point x="734" y="442" type="line" smooth="yes"/>
      <point x="778" y="284" type="line" smooth="yes"/>
      <point x="432" y="284" type="line" smooth="yes"/>
      <point x="475" y="442" type="line" smooth="yes"/>
    </contour>
    <contour>
      <point x="391" y="130" type="line" smooth="yes"/>
      <point x="336" y="67" type="line" smooth="yes"/>
      <point x="205" y="28" type="line" smooth="yes"/>
      <point x="118" y="59" type="line" smooth="yes"/>
      <point x="90" y="130" type="line" smooth="yes"/>
      <point x="90" y="140" type="line" smooth="yes"/>
      <point x="124" y="221" type="line" smooth="yes"/>
      <point x="215" y="259" type="line" smooth="yes"/>
      <point x="390" y="288" type="line" smooth="yes"/>
      <point x="390" y="255" type="line" smooth="yes"/>
      <point x="393" y="202" type="line" smooth="yes"/>
      <point x="402" y="153" type="line" smooth="yes"/>
    </contour>
    <contour>
      <point x="820" y="246" type="line" smooth="yes"/>
      <point x="820" y="275" type="line" smooth="yes"/>
      <point x="769" y="462" type="line" smooth="yes"/>
      <point x="605" y="540" type="line" smooth="yes"/>
      <point x="486" y="506" type="line" smooth="yes"/>
      <point x="418" y="415" type="line" smooth="yes"/>
      <point x="369" y="506" type="line" smooth="yes"/>
      <point x="250" y="540" type="line" smooth="yes"/>
      <point x="104" y="481" type="line" smooth="yes"/>
      <point x="70" y="364" type="line" smooth="yes"/>
      <point x="70" y="355" type="line" smooth="yes"/>
      <point x="110" y="355" type="line" smooth="yes"/>
      <point x="137" y="459" type="line" smooth="yes"/>
      <point x="250" y="502" type="line" smooth="yes"/>
      <point x="360" y="462" type="line" smooth="yes"/>
      <point x="390" y="345" type="line" smooth="yes"/>
      <point x="390" y="325" type="line" smooth="yes"/>
      <point x="218" y="298" type="line" smooth="yes"/>
      <point x="105" y="258" type="line" smooth="yes"/>
      <point x="50" y="140" type="line" smooth="yes"/>
      <point x="50" y="130" type="line" smooth="yes"/>
      <point x="91" y="28" type="line" smooth="yes"/>
      <point x="200" y="-10" type="line" smooth="yes"/>
      <point x="344" y="30" type="line" smooth="yes"/>
      <point x="417" y="110" type="line" smooth="yes"/>
      <point x="489" y="23" type="line" smooth="yes"/>
      <point x="610" y="-10" type="line" smooth="yes"/>
      <point x="771" y="50" type="line" smooth="yes"/>
      <point x="820" y="166" type="line" smooth="yes"/>
      <point x="820" y="170" type="line" smooth="yes"/>
      <point x="780" y="170" type="line" smooth="yes"/>
      <point x="741" y="75" type="line" smooth="yes"/>
      <point x="610" y="28" type="line" smooth="yes"/>
      <point x="476" y="88" type="line" smooth="yes"/>
      <point x="432" y="246" type="line" smooth="yes"/>
    </contour>
  </outline>
</glyph>
<glyph name="ccedilla" format="1">
  <advance width="520"/>
  <unicode hex="00E7"/>
  <outline>
    <contour>
      <point x="186" y="-188" type="line" smooth="yes"/>
      <point x="225" y="-204" type="line" smooth="yes"/>
      <point x="274" y="-210" type="line" smooth="yes"/>
      <point x="343" y="-193" type="line" smooth="yes"/>
      <point x="371" y="-135" type="line" smooth="yes"/>
      <point x="340" y="-79" type="line" smooth="yes"/>
      <point x="278" y="-64" type="line" smooth="yes"/>
      <point x="273" y="-64" type="line" smooth="yes"/>
      <point x="293" y="-9" type="line" smooth="yes"/>
      <point x="426" y="55" type="line" smooth="yes"/>
      <point x="465" y="166" type="line" smooth="yes"/>
      <point x="465" y="180" type="line" smooth="yes"/>
      <point x="425" y="180" type="line" smooth="yes"/>
      <point x="391" y="75" type="line" smooth="yes"/>
      <point x="270" y="28" type="line" smooth="yes"/>
      <point x="139" y="91" type="line" smooth="yes"/>
      <point x="97" y="255" type="line" smooth="yes"/>
      <point x="97" y="275" type="line" smooth="yes"/>
      <point x="139" y="439" type="line" smooth="yes"/>
      <point x="270" y="502" type="line" smooth="yes"/>
      <point x="390" y="455" type="line" smooth="yes"/>
      <point x="425" y="340" type="line" smooth="yes"/>
      <point x="465" y="340" type="line" smooth="yes"/>
      <point x="465" y="359" type="line" smooth="yes"/>
      <point x="422" y="478" type="line" smooth="yes"/>
      <point x="270" y="540" type="line" smooth="yes"/>
      <point x="106" y="462" type="line" smooth="yes"/>
      <point x="55" y="275" type="line" smooth="yes"/>
      <point x="55" y="255" type="line" smooth="yes"/>
      <point x="103" y="72" type="line" smooth="yes"/>
      <point x="257" y="-10" type="line" smooth="yes"/>
      <point x="230" y="-83" type="line" smooth="yes"/>
      <point x="247" y="-99" type="line" smooth="yes"/>
      <point x="255" y="-98" type="line" smooth="yes"/>
      <point x="273" y="-97" type="line" smooth="yes"/>
      <point x="319" y="-106" type="line" smooth="yes"/>
      <point x="338" y="-136" type="line" smooth="yes"/>
      <point x="321" y="-168" type="line" smooth="yes"/>
      <point x="269" y="-177" type="line" smooth="yes"/>
      <point x="231" y="-172" type="line" smooth="yes"/>
      <point x="199" y="-158" type="line" smooth="yes"/>
    </contour>
  </outline>
</glyph>
<glyph name="eacute" format="1">
  <advance width="540"/>
  <unicode hex="00E9"/>
  <outline>
    <contour>
      <point x="339" y="780" type="line" smooth="yes"/>
      <point x="249" y="620" type="line" smooth="yes"/>
      <point x="291" y="620" type="line" smooth="yes"/>
      <point x="381" y="780" type="line" smooth="yes"/>
    </contour>
    <contour>
      <point x="270" y="502" type="line" smooth="yes"/>
      <point x="399" y="442" type="line" smooth="yes"/>
      <point x="443" y="284" type="line" smooth="yes"/>
      <point x="97" y="284" type="line" smooth="yes"/>
      <point x="140" y="442" type="line" smooth="yes"/>
    </contour>
    <contour>
      <point x="485" y="246" type="line" smooth="yes"/>
      <point x="485" y="275" type="line" smooth="yes"/>
      <point x="434" y="462" type="line" smooth="yes"/>
      <point x="270" y="540" type="line" smooth="yes"/>
      <point x="106" y="462" type="line" smooth="yes"/>
      <point x="55" y="275" type="line" smooth="yes"/>
      <point x="55" y="255" type="line" smooth="yes"/>
      <point x="107" y="68" type="line" smooth="yes"/>
      <point x="275" y="-10" type="line" smooth="yes"/>
      <point x="436" y="50" type="line" smooth="yes"/>
      <point x="485" y="166" type="line" smooth="yes"/>
      <point x="485" y="170" type="line" smooth="yes"/>
      <point x="445" y="170" type="line" smooth="yes"/>
      <point x="406" y="75" type="line" smooth="yes"/>
      <point x="275" y="28" type="line" smooth="yes"/>
      <point x="141" y="88" type="line" smooth="yes"/>
      <point x="97" y="246" type="line" smooth="yes"/>
    </contour>
  </outline>
</glyph>
<glyph name="iacute" format="1">
  <advance width="200"/>
  <unicode hex="00ED"/>
  <outline>
    <contour>
      <point x="169" y="780" type="line" smooth="yes"/>
      <point x="79" y="620" type="line" smooth="yes"/>
      <point x="121" y="620" type="line" smooth="yes"/>
      <point x="211" y="780" type="line" smooth="yes"/>
    </contour>
    <contour>
      <point x="80" y="0" type="line" smooth="yes"/>
      <point x="120" y="0" type="line" smooth="yes"/>
      <point x="120" y="530" type="line" smooth="yes"/>
      <point x="80" y="530" type="line" smooth="yes"/>
    </contour>
  </outline>
</glyph>
<glyph name="icircumflex" format="1">
  <advance width="200"/>
  <unicode hex="00EE"/>
  <outline>
    <contour>
      <point x="0" y="620" type="line" smooth="yes"/>
      <point x="100" y="744" type="line" smooth="yes"/>
      <point x="200" y="620" type="line" smooth="yes"/>
      <point x="245" y="620" type="line" smooth="yes"/>
      <point x="115" y="780" type="line" smooth="yes"/>
      <point x="85" y="780" type="line" smooth="yes"/>
      <point x="-45" y="620" type="line" smooth="yes"/>
    </contour>
    <contour>
      <point x="80" y="0" type="line" smooth="yes"/>
      <point x="120" y="0" type="line" smooth="yes"/>
      <point x="120" y="530" type="line" smooth="yes"/>
      <point x="80" y="530" type="line" smooth="yes"/>
    </contour>
  </outline>
</glyph>
<glyph name="idieresis" format="1">
  <advance width="200"/>
  <unicode hex="00EF"/>
  <outline>
    <contour>
      <point x="55" y="735" type="line" smooth="yes"/>
      <point x="-5" y="735" type="line" smooth="yes"/>
      <point x="-5" y="675" type="line" smooth="yes"/>
      <point x="55" y="675" type="line" smooth="yes"/>
    </contour>
    <contour>
      <point x="205" y="735" type="line" smooth="yes"/>
      <point x="145" y="735" type="line" smooth="yes"/>
      <point x="145" y="675" type="line" smooth="yes"/>
      <point x="205" y="675" type="line" smooth="yes"/>
    </contour>
    <contour>
      <point x="80" y="0" type="line" smooth="yes"/>
      <point x="120" y="0" type="line" smooth="yes"/>
      <point x="120" y="530" type="line" smooth="yes"/>
      <point x="80" y="530" type="line" smooth="yes"/>
    </contour>
  </outline>
</glyph>
<glyph name="eth" format="1">
  <advance width="540"/>
  <unicode hex="00F0"/>
  <outline>
    <contour>
      <point x="270" y="28" type="line" smooth="yes"/>
      <point x="139" y="91" type="line" smooth="yes"/>
      <point x="97" y="255" type="line" smooth="yes"/>
      <point x="97" y="275" type="line" smooth="yes"/>
      <point x="139" y="439" type="line" smooth="yes"/>
      <point x="270" y="502" type="line" smooth="yes"/>
      <point x="401" y="439" type="line" smooth="yes"/>
      <point x="443" y="275" type="line" smooth="yes"/>
      <point x="443" y="255" type="line" smooth="yes"/>
      <point x="401" y="91" type="line" smooth="yes"/>
    </contour>
    <contour>
      <point x="55" y="772" type="line" smooth="yes"/>
      <point x="144" y="754" type="line" smooth="yes"/>
      <point x="230" y="718" type="line" smooth="yes"/>
      <point x="97" y="640" type="line" smooth="yes"/>
      <point x="97" y="597" type="line" smooth="yes"/>
      <point x="266" y="696" type="line" smooth="yes"/>
      <point x="300" y="670" type="line" smooth="yes"/>
      <point x="334" y="638" type="line" smooth="yes"/>
      <point x="389" y="558" type="line" smooth="yes"/>
      <point x="425" y="464" type="line" smooth="yes"/>
      <point x="364" y="520" type="line" smooth="yes"/>
      <point x="270" y="540" type="line" smooth="yes"/>
      <point x="106" y="462" type="line" smooth="yes"/>
      <point x="55" y="275" type="line" smooth="yes"/>
      <point x="55" y="255" type="line" smooth="yes"/>
      <point x="106" y="68" type="line" smooth="yes"/>
      <point x="270" y="-10" type="line" smooth="yes"/>
      <point x="434" y="68" type="line" smooth="yes"/>
      <point x="485" y="255" type="line" smooth="yes"/>
      <point x="485" y="275" type="line" smooth="yes"/>
      <point x="461" y="475" type="line" smooth="yes"/>
      <point x="366" y="664" type="line" smooth="yes"/>
      <point x="336" y="693" type="line" smooth="yes"/>
      <point x="305" y="719" type="line" smooth="yes"/>
      <point x="387" y="767" type="line" smooth="yes"/>
      <point x="387" y="810" type="line" smooth="yes"/>
      <point x="271" y="742" type="line" smooth="yes"/>
      <point x="167" y="789" type="line" smooth="yes"/>
      <point x="55" y="810" type="line" smooth="yes"/>
    </contour>
  </outline>
</glyph>
<glyph name="ntilde" format="1">
  <advance width="510"/>
  <unicode hex="00F1"/>
  <outline>
    <contour>
      <point x="363" y="737" type="line" smooth="yes"/>
      <point x="352" y="698" type="line" smooth="yes"/>
      <point x="326" y="687" type="line" smooth="yes"/>
      <point x="263" y="717" type="line" smooth="yes"/>
      <point x="188" y="747" type="line" smooth="yes"/>
      <point x="137" y="726" type="line" smooth="yes"/>
      <point x="118" y="663" type="line" smooth="yes"/>
      <point x="153" y="663" type="line" smooth="yes"/>
      <point x="164" y="702" type="line" smooth="yes"/>
      <point x="190" y="713" type="line" smooth="yes"/>
      <point x="253" y="683" type="line" smooth="yes"/>
      <point x="328" y="653" type="line" smooth="yes"/>
      <point x="379" y="674" type="line" smooth="yes"/>
      <point x="398" y="737" type="line" smooth="yes"/>
    </contour>
    <contour>
      <point x="445" y="0" type="line" smooth="yes"/>
      <point x="445" y="375" type="line" smooth="yes"/>
      <point x="403" y="495" type="line" smooth="yes"/>
      <point x="285" y="540" type="line" smooth="yes"/>
      <point x="170" y="513" type="line" smooth="yes"/>
      <point x="104" y="452" type="line" smooth="yes"/>
      <point x="95" y="530" type="line" smooth="yes"/>
      <point x="65" y="530" type="line" smooth="yes"/>
      <point x="70" y="380" type="line" smooth="yes"/>
      <point x="70" y="0" type="line" smooth="yes"/>
      <point x="110" y="0" type="line" smooth="yes"/>
      <point x="110" y="410" type="line" smooth="yes"/>
      <point x="166" y="471" type="line" smooth="yes"/>
      <point x="275" y="502" type="line" smooth="yes"/>
      <point x="368" y="472" type="line" smooth="yes"/>
      <point x="405" y="370" type="line" smooth="yes"/>
      <point x="405" y="0" type="line" smooth="yes"/>
    </contour>
  </outline>
</glyph>
<glyph name="ocircumflex" format="1">
  <advance width="540"/>
  <unicode hex="00F4"/>
  <outline>
    <contour>
      <point x="170" y="620" type="line" smooth="yes"/>
      <point x="270" y="744" type="line" smooth="yes"/>
      <point x="370" y="620" type="line" smooth="yes"/>
      <point x="415" y="620" type="line" smooth="yes"/>
      <point x="285" y="780" type="line" smooth="yes"/>
      <point x="255" y="780" type="line" smooth="yes"/>
      <point x="125" y="620" type="line" smooth="yes"/>
    </contour>
    <contour>
      <point x="270" y="28" type="line" smooth="yes"/>
      <point x="139" y="91" type="line" smooth="yes"/>
      <point x="97" y="255" type="line" smooth="yes"/>
      <point x="97" y="275" type="line" smooth="yes"/>
      <point x="139" y="439" type="line" smooth="yes"/>
      <point x="270" y="502" type="line" smooth="yes"/>
      <point x="401" y="439" type="line" smooth="yes"/>
      <point x="443" y="275" type="line" smooth="yes"/>
      <point x="443" y="255" type="line" smooth="yes"/>
      <point x="401" y="91" type="line" smooth="yes"/>
    </contour>
    <contour>
      <point x="270" y="-10" type="line" smooth="yes"/>
      <point x="434" y="68" type="line" smooth="yes"/>
      <point x="485" y="255" type="line" smooth="yes"/>
      <point x="485" y="275" type="line" smooth="yes"/>
      <point x="434" y="462" type="line" smooth="yes"/>
      <point x="270" y="540" type="line" smooth="yes"/>
      <point x="106" y="462" type="line" smooth="yes"/>
      <point x="55" y="275" type="line" smooth="yes"/>
      <point x="55" y="255" type="line" smooth="yes"/>
      <point x="106" y="68" type="line" smooth="yes"/>
    </contour>
  </outline>
</glyph>
<glyph name="otilde" format="1">
  <advance width="540"/>
  <unicode hex="00F5"/>
  <outline>
    <contour>
      <point x="375" y="737" type="line" smooth="yes"/>
      <point x="364" y="698" type="line" smooth="yes"/>
      <point x="338" y="687" type="line" smooth="yes"/>
      <point x="275" y="717" type="line" smooth="yes"/>
      <point x="200" y="747" type="line" smooth="yes"/>
      <point x="149" y="726" type="line" smooth="yes"/>
      <point x="130" y="663" type="line" smooth="yes"/>
      <point x="165" y="663" type="line" smooth="yes"/>
      <point x="176" y="702" type="line" smooth="yes"/>
      <point x="202" y="713" type="line" smooth="yes"/>
      <point x="265" y="683" type="line" smooth="yes"/>
      <point x="340" y="653" type="line" smooth="yes"/>
      <point x="391" y="674" type="line" smooth="yes"/>
      <point x="410" y="737" type="line" smooth="yes"/>
    </contour>
    <contour>
      <point x="270" y="28" type="line" smooth="yes"/>
      <point x="139" y="91" type="line" smooth="yes"/>
      <point x="97" y="255" type="line" smooth="yes"/>
      <point x="97" y="275" type="line" smooth="yes"/>
      <point x="139" y="439" type="line" smooth="yes"/>
      <point x="270" y="502" type="line" smooth="yes"/>
      <point x="401" y="439" type="line" smooth="yes"/>
      <point x="443" y="275" type="line" smooth="yes"/>
      <point x="443" y="255" type="line" smooth="yes"/>
      <point x="401" y="91" type="line" smooth="yes"/>
    </contour>
    <contour>
      <point x="270" y="-10" type="line" smooth="yes"/>
      <point x="434" y="68" type="line" smooth="yes"/>
      <point x="485" y="255" type="line" smooth="yes"/>
      <point x="485" y="275" type="line" smooth="yes"/>
      <point x="434" y="462" type="line" smooth="yes"/>
      <point x="270" y="540" type="line" smooth="yes"/>
      <point x="106" y="462" type="line" smooth="yes"/>
      <point x="55" y="275" type="line" smooth="yes"/>
      <point x="55" y="255" type="line" smooth="yes"/>
      <point x="106" y="68" type="line" smooth="yes"/>
    </contour>
  </outline>
</glyph>
<glyph name="oslash" format="1">
  <advance width="540"/>
  <unicode hex="00F8"/>
  <outline>
    <contour>
      <point x="443" y="275" type="line" smooth="yes"/>
      <point x="443" y="255" type="line" smooth="yes"/>
      <point x="401" y="91" type="line" smooth="yes"/>
      <point x="270" y="28" type="line" smooth="yes"/>
      <point x="202" y="40" type="line" smooth="yes"/>
      <point x="152" y="74" type="line" smooth="yes"/>
      <point x="409" y="426" type="line" smooth="yes"/>
      <point x="435" y="358" type="line" smooth="yes"/>
    </contour>
    <contour>
      <point x="97" y="255" type="line" smooth="yes"/>
      <point x="97" y="275" type="line" smooth="yes"/>
      <point x="139" y="439" type="line" smooth="yes"/>
      <point x="270" y="502" type="line" smooth="yes"/>
      <point x="337" y="490" type="line" smooth="yes"/>
      <point x="387" y="456" type="line" smooth="yes"/>
      <point x="130" y="103" type="line" smooth="yes"/>
      <point x="105" y="171" type="line" smooth="yes"/>
    </contour>
    <contour>
      <point x="485" y="530" type="line" smooth="yes"/>
      <point x="441" y="530" type="line" smooth="yes"/>
      <point x="411" y="488" type="line" smooth="yes"/>
      <point x="350" y="526" type="line" smooth="yes"/>
      <point x="270" y="540" type="line" smooth="yes"/>
      <point x="106" y="462" type="line" smooth="yes"/>
      <point x="55" y="275" type="line" smooth="yes"/>
      <point x="55" y="255" type="line" smooth="yes"/>
      <point x="67" y="153" type="line" smooth="yes"/>
      <point x="105" y="69" type="line" smooth="yes"/>
      <point x="55" y="0" type="line" smooth="yes"/>
      <point x="99" y="0" type="line" smooth="yes"/>
      <point x="129" y="41" type="line" smooth="yes"/>
      <point x="189" y="4" type="line" smooth="yes"/>
      <point x="270" y="-10" type="line" smooth="yes"/>
      <point x="434" y="68" type="line" smooth="yes"/>
      <point x="485" y="255" type="line" smooth="yes"/>
      <point x="485" y="275" type="line" smooth="yes"/>
      <point x="473" y="377" type="line" smooth="yes"/>
      <point x="434" y="461" type="line" smooth="yes"/>
    </contour>
  </outline>
</glyph>
<glyph name="ugrave" format="1">
  <advance width="510"/>
  <unicode hex="00F9"/>
  <outline>
    <contour>
      <point x="141" y="780" type="line" smooth="yes"/>
      <point x="231" y="620" type="line" smooth="yes"/>
      <point x="273" y="620" type="line" smooth="yes"/>
      <point x="183" y="780" type="line" smooth="yes"/>
    </contour>
    <contour>
      <point x="65" y="530" type="line" smooth="yes"/>
      <point x="65" y="155" type="line" smooth="yes"/>
      <point x="108" y="35" type="line" smooth="yes"/>
      <point x="225" y="-10" type="line" smooth="yes"/>
      <point x="339" y="16" type="line" smooth="yes"/>
      <point x="405" y="77" type="line" smooth="yes"/>
      <point x="415" y="0" type="line" smooth="yes"/>
      <point x="445" y="0" type="line" smooth="yes"/>
      <point x="440" y="150" type="line" smooth="yes"/>
      <point x="440" y="530" type="line" smooth="yes"/>
      <point x="400" y="530" type="line" smooth="yes"/>
      <point x="400" y="120" type="line" smooth="yes"/>
      <point x="344" y="59" type="line" smooth="yes"/>
      <point x="235" y="28" type="line" smooth="yes"/>
      <point x="142" y="58" type="line" smooth="yes"/>
      <point x="105" y="160" type="line" smooth="yes"/>
      <point x="105" y="530" type="line" smooth="yes"/>
    </contour>
  </outline>
</glyph>
<glyph name="ucircumflex" format="1">
  <advance width="510"/>
  <unicode hex="00FB"/>
  <outline>
    <contour>
      <point x="152" y="620" type="line" smooth="yes"/>
      <point x="252" y="744" type="line" smooth="yes"/>
      <point x="352" y="620" type="line" smooth="yes"/>
      <point x="397" y="620" type="line" smooth="yes"/>
      <point x="267" y="780" type="line" smooth="yes"/>
      <point x="237" y="780" type="line" smooth="yes"/>
      <point x="107" y="620" type="line" smooth="yes"/>
    </contour>
    <contour>
      <point x="65" y="530" type="line" smooth="yes"/>
      <point x="65" y="155" type="line" smooth="yes"/>
      <point x="108" y="35" type="line" smooth="yes"/>
      <point x="225" y="-10" type="line" smooth="yes"/>
      <point x="339" y="16" type="line" smooth="yes"/>
      <point x="405" y="77" type="line" smooth="yes"/>
      <point x="415" y="0" type="line" smooth="yes"/>
      <point x="445" y="0" type="line" smooth="yes"/>
      <point x="440" y="150" type="line" smooth="yes"/>
      <point x="440" y="530" type="line" smooth="yes"/>
      <point x="400" y="530" type="line" smooth="yes"/>
      <point x="400" y="120" type="line" smooth="yes"/>
      <point x="344" y="59" type="line" smooth="yes"/>
      <point x="235" y="28" type="line" smooth="yes"/>
      <point x="142" y="58" type="line" smooth="yes"/>
      <point x="105" y="160" type="line" smooth="yes"/>
      <point x="105" y="530" type="line" smooth="yes"/>
    </contour>
  </outline>
</glyph>
<glyph name="ydieresis" format="1">
  <advance width="462"/>
  <unicode hex="00FF"/>
  <outline>
    <contour>
      <point x="195" y="735" type="line" smooth="yes"/>
      <point x="135" y="735" type="line" smooth="yes"/>
      <point x="135" y="675" type="line" smooth="yes"/>
      <point x="195" y="675" type="line" smooth="yes"/>
    </contour>
    <contour>
      <point x="345" y="735" type="line" smooth="yes"/>
      <point x="285" y="735" type="line" smooth="yes"/>
      <point x="285" y="675" type="line" smooth="yes"/>
      <point x="345" y="675" type="line" smooth="yes"/>
    </contour>
    <contour>
      <point x="240" y="65" type="line" smooth="yes"/>
      <point x="71" y="530" type="line" smooth="yes"/>
      <point x="29" y="530" type="line" smooth="yes"/>
      <point x="220" y="18" type="line" smooth="yes"/>
      <point x="138" y="-200" type="line" smooth="yes"/>
      <point x="182" y="-200" type="line" smooth="yes"/>
      <point x="260" y="18" type="line" smooth="yes"/>
      <point x="451" y="530" type="line" smooth="yes"/>
      <point x="409" y="530" type="line" smooth="yes"/>
    </contour>
  </outline>
</glyph>
<glyph name="aogonek" format="1">
  <advance width="500"/>
  <unicode hex="0105"/>
  <outline>
    <contour>
      <point x="205" y="28" type="line" smooth="yes"/>
      <point x="118" y="59" type="line" smooth="yes"/>
      <point x="90" y="130" type="line" smooth="yes"/>
      <point x="90" y="140" type="line" smooth="yes"/>
      <point x="124" y="221" type="line" smooth="yes"/>
      <point x="215" y="259" type="line" smooth="yes"/>
      <point x="390" y="288" type="line" smooth="yes"/>
      <point x="390" y="128" type="line" smooth="yes"/>
      <point x="335" y="65" type="line" smooth="yes"/>
    </contour>
    <contour>
      <point x="337" y="-117" type="line" smooth="yes"/>
      <point x="367" y="-43" type="line" smooth="yes"/>
      <point x="431" y="0" type="line" smooth="yes"/>
      <point x="435" y="0" type="line" smooth="yes"/>
      <point x="430" y="150" type="line" smooth="yes"/>
      <point x="430" y="345" type="line" smooth="yes"/>
      <point x="392" y="485" type="line" smooth="yes"/>
      <point x="250" y="540" type="line" smooth="yes"/>
      <point x="104" y="481" type="line" smooth="yes"/>
      <point x="70" y="364" type="line" smooth="yes"/>
      <point x="70" y="355" type="line" smooth="yes"/>
      <point x="110" y="355" type="line" smooth="yes"/>
      <point x="137" y="459" type="line" smooth="yes"/>
      <point x="250" y="502" type="line" smooth="yes"/>
      <point x="360" y="462" type="line" smooth="yes"/>
      <point x="390" y="345" type="line" smooth="yes"/>
      <point x="390" y="325" type="line" smooth="yes"/>
      <point x="218" y="298" type="line" smooth="yes"/>
      <point x="105" y="258" type="line" smooth="yes"/>
      <point x="50" y="140" type="line" smooth="yes"/>
      <point x="50" y="130" type="line" smooth="yes"/>
      <point x="91" y="28" type="line" smooth="yes"/>
      <point x="200" y="-10" type="line" smooth="yes"/>
      <point x="322" y="18" type="line" smooth="yes"/>
      <point x="395" y="80" type="line" smooth="yes"/>
      <point x="402" y="19" type="line" smooth="yes"/>
      <point x="334" y="-33" type="line" smooth="yes"/>
      <point x="304" y="-117" type="line" smooth="yes"/>
      <point x="332" y="-188" type="line" smooth="yes"/>
      <point x="408" y="-210" type="line" smooth="yes"/>
      <point x="447" y="-205" type="line" smooth="yes"/>
      <point x="484" y="-191" type="line" smooth="yes"/>
      <point x="472" y="-163" type="line" smooth="yes"/>
      <point x="443" y="-173" type="line" smooth="yes"/>
      <point x="411" y="-177" type="line" smooth="yes"/>
      <point x="357" y="-161" type="line" smooth="yes"/>
    </contour>
  </outline>
</glyph>
<glyph name="ccircumflex" format="1">
  <advance width="520"/>
  <unicode hex="0109"/>
  <outline>
    <contour>
      <point x="170" y="620" type="line" smooth="yes"/>
      <point x="270" y="744" type="line" smooth="yes"/>
      <point x="370" y="620" type="line" smooth="yes"/>
      <point x="415" y="620" type="line" smooth="yes"/>
      <point x="285" y="780" type="line" smooth="yes"/>
      <point x="255" y="780" type="line" smooth="yes"/>
      <point x="125" y="620" type="line" smooth="yes"/>
    </contour>
    <contour>
      <point x="97" y="255" type="line" smooth="yes"/>
      <point x="97" y="275" type="line" smooth="yes"/>
      <point x="139" y="439" type="line" smooth="yes"/>
      <point x="270" y="502" type="line" smooth="yes"/>
      <point x="390" y="455" type="line" smooth="yes"/>
      <point x="425" y="340" type="line" smooth="yes"/>
      <point x="465" y="340" type="line" smooth="yes"/>
      <point x="465" y="359" type="line" smooth="yes"/>
      <point x="422" y="478" type="line" smooth="yes"/>
      <point x="270" y="540" type="line" smooth="yes"/>
      <point x="106" y="462" type="line" smooth="yes"/>
      <point x="55" y="275" type="line" smooth="yes"/>
      <point x="55" y="255" type="line" smooth="yes"/>
      <point x="106" y="68" type="line" smooth="yes"/>
      <point x="270" y="-10" type="line" smooth="yes"/>
      <point x="422" y="50" type="line" smooth="yes"/>
      <point x="465" y="166" type="line" smooth="yes"/>
      <point x="465" y="180" type="line" smooth="yes"/>
      <point x="425" y="180" type="line" smooth="yes"/>
      <point x="391" y="75" type="line" smooth="yes"/>
      <point x="270" y="28" type="line" smooth="yes"/>
      <point x="139" y="91" type="line" smooth="yes"/>
    </contour>
  </outline>
</glyph>
<glyph name="cdotaccent" format="1">
  <advance width="520"/>
  <unicode hex="010B"/>
  <outline>
    <contour>
      <point x="300" y="735" type="line" smooth="yes"/>
      <point x="240" y="735" type="line" smooth="yes"/>
      <point x="240" y="675" type="line" smooth="yes"/>
      <point x="300" y="675" type="line" smooth="yes"/>
    </contour>
    <contour>
      <point x="97" y="255" type="line" smooth="yes"/>
      <point x="97" y="275" type="line" smooth="yes"/>
      <point x="139" y="439" type="line" smooth="yes"/>
      <point x="270" y="502" type="line" smooth="yes"/>
      <point x="390" y="455" type="line" smooth="yes"/>
      <point x="425" y="340" type="line" smooth="yes"/>
      <point x="465" y="340" type="line" smooth="yes"/>
      <point x="465" y="359" type="line" smooth="yes"/>
      <point x="422" y="478" type="line" smooth="yes"/>
      <point x="270" y="540" type="line" smooth="yes"/>
      <point x="106" y="462" type="line" smooth="yes"/>
      <point x="55" y="275" type="line" smooth="yes"/>
      <point x="55" y="255" type="line" smooth="yes"/>
      <point x="106" y="68" type="line" smooth="yes"/>
      <point x="270" y="-10" type="line" smooth="yes"/>
      <point x="422" y="50" type="line" smooth="yes"/>
      <point x="465" y="166" type="line" smooth="yes"/>
      <point x="465" y="180" type="line" smooth="yes"/>
      <point x="425" y="180" type="line" smooth="yes"/>
      <point x="391" y="75" type="line" smooth="yes"/>
      <point x="270" y="28" type="line" smooth="yes"/>
      <point x="139" y="91" type="line" smooth="yes"/>
    </contour>
  </outline>
</glyph>
<glyph name="Ccaron" format="1">
  <advance width="607"/>
  <unicode hex="010C"/>
  <outline>
    <contour>
      <point x="203" y="950" type="line" smooth="yes"/>
      <point x="303" y="840" type="line" smooth="yes"/>
      <point x="333" y="840" type="line" smooth="yes"/>
      <point x="433" y="950" type="line" smooth="yes"/>
      <point x="388" y="950" type="line" smooth="yes"/>
      <point x="318" y="873" type="line" smooth="yes"/>
      <point x="248" y="950" type="line" smooth="yes"/>
    </contour>
    <contour>
      <point x="105" y="370" type="line" smooth="yes"/>
      <point x="105" y="410" type="line" smooth="yes"/>
      <point x="159" y="673" type="line" smooth="yes"/>
      <point x="317" y="752" type="line" smooth="yes"/>
      <point x="323" y="752" type="line" smooth="yes"/>
      <point x="465" y="694" type="line" smooth="yes"/>
      <point x="510" y="500" type="line" smooth="yes"/>
      <point x="552" y="500" type="line" smooth="yes"/>
      <point x="552" y="525" type="line" smooth="yes"/>
      <point x="495" y="721" type="line" smooth="yes"/>
      <point x="318" y="790" type="line" smooth="yes"/>
      <point x="127" y="701" type="line" smooth="yes"/>
      <point x="63" y="410" type="line" smooth="yes"/>
      <point x="63" y="370" type="line" smooth="yes"/>
      <point x="127" y="79" type="line" smooth="yes"/>
      <point x="318" y="-10" type="line" smooth="yes"/>
      <point x="495" y="57" type="line" smooth="yes"/>
      <point x="552" y="240" type="line" smooth="yes"/>
      <point x="552" y="250" type="line" smooth="yes"/>
      <point x="510" y="250" type="line" smooth="yes"/>
      <point x="466" y="85" type="line" smooth="yes"/>
      <point x="323" y="28" type="line" smooth="yes"/>
      <point x="317" y="28" type="line" smooth="yes"/>
      <point x="158" y="107" type="line" smooth="yes"/>
    </contour>
  </outline>
</glyph>
<glyph name="Dcroat" format="1">
  <advance width="690"/>
  <unicode hex="0110"/>
  <outline>
    <contour>
      <point x="180" y="742" type="line" smooth="yes"/>
      <point x="330" y="742" type="line" smooth="yes"/>
      <point x="516" y="668" type="line" smooth="yes"/>
      <point x="585" y="410" type="line" smooth="yes"/>
      <point x="585" y="370" type="line" smooth="yes"/>
      <point x="516" y="112" type="line" smooth="yes"/>
      <point x="330" y="38" type="line" smooth="yes"/>
      <point x="180" y="38" type="line" smooth="yes"/>
      <point x="180" y="379" type="line" smooth="yes"/>
      <point x="410" y="379" type="line" smooth="yes"/>
      <point x="410" y="417" type="line" smooth="yes"/>
      <point x="180" y="417" type="line" smooth="yes"/>
    </contour>
    <contour>
      <point x="20" y="379" type="line" smooth="yes"/>
      <point x="140" y="379" type="line" smooth="yes"/>
      <point x="140" y="0" type="line" smooth="yes"/>
      <point x="335" y="0" type="line" smooth="yes"/>
      <point x="547" y="84" type="line" smooth="yes"/>
      <point x="627" y="370" type="line" smooth="yes"/>
      <point x="627" y="410" type="line" smooth="yes"/>
      <point x="547" y="696" type="line" smooth="yes"/>
      <point x="335" y="780" type="line" smooth="yes"/>
      <point x="140" y="780" type="line" smooth="yes"/>
      <point x="140" y="417" type="line" smooth="yes"/>
      <point x="20" y="417" type="line" smooth="yes"/>
    </contour>
  </outline>
</glyph>
<glyph name="Emacron" format="1">
  <advance width="540"/>
  <unicode hex="0112"/>
  <outline>
    <contour>
      <point x="200" y="875" type="line" smooth="yes"/>
      <point x="400" y="875" type="line" smooth="yes"/>
      <point x="400" y="915" type="line" smooth="yes"/>
      <point x="200" y="915" type="line" smooth="yes"/>
    </contour>
    <contour>
      <point x="80" y="780" type="line" smooth="yes"/>
      <point x="80" y="0" type="line" smooth="yes"/>
      <point x="500" y="0" type="line" smooth="yes"/>
      <point x="500" y="38" type="line" smooth="yes"/>
      <point x="120" y="38" type="line" smooth="yes"/>
      <point x="120" y="379" type="line" smooth="yes"/>
      <point x="450" y="379" type="line" smooth="yes"/>
      <point x="450" y="417" type="line" smooth="yes"/>
      <point x="120" y="417" type="line" smooth="yes"/>
      <point x="120" y="742" type="line" smooth="yes"/>
      <point x="500" y="742" type="line" smooth="yes"/>
      <point x="500" y="780" type="line" smooth="yes"/>
    </contour>
  </outline>
</glyph>
<glyph name="emacron" format="1">
  <advance width="540"/>
  <unicode hex="0113"/>
  <outline>
    <contour>
      <point x="165" y="680" type="line" smooth="yes"/>
      <point x="375" y="680" type="line" smooth="yes"/>
      <point x="375" y="720" type="line" smooth="yes"/>
      <point x="165" y="720" type="line" smooth="yes"/>
    </contour>
    <contour>
      <point x="270" y="502" type="line" smooth="yes"/>
      <point x="399" y="442" type="line" smooth="yes"/>
      <point x="443" y="284" type="line" smooth="yes"/>
      <point x="97" y="284" type="line" smooth="yes"/>
      <point x="140" y="442" type="line" smooth="yes"/>
    </contour>
    <contour>
      <point x="485" y="246" type="line" smooth="yes"/>
      <point x="485" y="275" type="line" smooth="yes"/>
      <point x="434" y="462" type="line" smooth="yes"/>
      <point x="270" y="540" type="line" smooth="yes"/>
      <point x="106" y="462" type="line" smooth="yes"/>
      <point x="55" y="275" type="line" smooth="yes"/>
      <point x="55" y="255" type="line" smooth="yes"/>
      <point x="107" y="68" type="line" smooth="yes"/>
      <point x="275" y="-10" type="line" smooth="yes"/>
      <point x="436" y="50" type="line" smooth="yes"/>
      <point x="485" y="166" type="line" smooth="yes"/>
      <point x="485" y="170" type="line" smooth="yes"/>
      <point x="445" y="170" type="line" smooth="yes"/>
      <point x="406" y="75" type="line" smooth="yes"/>
      <point x="275" y="28" type="line" smooth="yes"/>
      <point x="141" y="88" type="line" smooth="yes"/>
      <point x="97" y="246" type="line" smooth="yes"/>
    </contour>
  </outline>
</glyph>
<glyph name="Ebreve" format="1">
  <advance width="540"/>
  <unicode hex="0114"/>
  <outline>
    <contour>
      <point x="300" y="830" type="line" smooth="yes"/>
      <point x="398" y="864" type="line" smooth="yes"/>
      <point x="432" y="950" type="line" smooth="yes"/>
      <point x="396" y="950" type="line" smooth="yes"/>
      <point x="372" y="888" type="line" smooth="yes"/>
      <point x="300" y="863" type="line" smooth="yes"/>
      <point x="228" y="888" type="line" smooth="yes"/>
      <point x="204" y="950" type="line" smooth="yes"/>
      <point x="168" y="950" type="line" smooth="yes"/>
      <point x="203" y="864" type="line" smooth="yes"/>
    </contour>
    <contour>
      <point x="80" y="780" type="line" smooth="yes"/>
      <point x="80" y="0" type="line" smooth="yes"/>
      <point x="500" y="0" type="line" smooth="yes"/>
      <point x="500" y="38" type="line" smooth="yes"/>
      <point x="120" y="38" type="line" smooth="yes"/>
      <point x="120" y="379" type="line" smooth="yes"/>
      <point x="450" y="379" type="line" smooth="yes"/>
      <point x="450" y="417" type="line" smooth="yes"/>
      <point x="120" y="417" type="line" smooth="yes"/>
      <point x="120" y="742" type="line" smooth="yes"/>
      <point x="500" y="742" type="line" smooth="yes"/>
      <point x="500" y="780" type="line" smooth="yes"/>
    </contour>
  </outline>
</glyph>
<glyph name="Eogonek" format="1">
  <advance width="540"/>
  <unicode hex="0118"/>
  <outline>
    <contour>
      <point x="406" y="-117" type="line" smooth="yes"/>
      <point x="436" y="-43" type="line" smooth="yes"/>
      <point x="500" y="0" type="line" smooth="yes"/>
      <point x="500" y="38" type="line" smooth="yes"/>
      <point x="120" y="38" type="line" smooth="yes"/>
      <point x="120" y="379" type="line" smooth="yes"/>
      <point x="450" y="379" type="line" smooth="yes"/>
      <point x="450" y="417" type="line" smooth="yes"/>
      <point x="120" y="417" type="line" smooth="yes"/>
      <point x="120" y="742" type="line" smooth="yes"/>
      <point x="500" y="742" type="line" smooth="yes"/>
      <point x="500" y="780" type="line" smooth="yes"/>
      <point x="80" y="780" type="line" smooth="yes"/>
      <point x="80" y="0" type="line" smooth="yes"/>
      <point x="439" y="0" type="line" smooth="yes"/>
      <point x="392" y="-48" type="line" smooth="yes"/>
      <point x="373" y="-117" type="line" smooth="yes"/>
      <point x="401" y="-188" type="line" smooth="yes"/>
      <point x="477" y="-210" type="line" smooth="yes"/>
      <point x="516" y="-205" type="line" smooth="yes"/>
      <point x="553" y="-191" type="line" smooth="yes"/>
      <point x="541" y="-163" type="line" smooth="yes"/>
      <point x="512" y="-173" type="line" smooth="yes"/>
      <point x="480" y="-177" type="line" smooth="yes"/>
      <point x="426" y="-161" type="line" smooth="yes"/>
    </contour>
  </outline>
</glyph>
<glyph name="eogonek" format="1">
  <advance width="540"/>
  <unicode hex="0119"/>
  <outline>
    <contour>
      <point x="270" y="502" type="line" smooth="yes"/>
      <point x="399" y="442" type="line" smooth="yes"/>
      <point x="443" y="284" type="line" smooth="yes"/>
      <point x="97" y="284" type="line" smooth="yes"/>
      <point x="140" y="442" type="line" smooth="yes"/>
    </contour>
    <contour>
      <point x="256" y="-117" type="line" smooth="yes"/>
      <point x="287" y="-40" type="line" smooth="yes"/>
      <point x="350" y="0" type="line" smooth="yes"/>
      <point x="454" y="70" type="line" smooth="yes"/>
      <point x="485" y="166" type="line" smooth="yes"/>
      <point x="485" y="170" type="line" smooth="yes"/>
      <point x="445" y="170" type="line" smooth="yes"/>
      <point x="406" y="75" type="line" smooth="yes"/>
      <point x="275" y="28" type="line" smooth="yes"/>
      <point x="141" y="88" type="line" smooth="yes"/>
      <point x="97" y="246" type="line" smooth="yes"/>
      <point x="485" y="246" type="line" smooth="yes"/>
      <point x="485" y="275" type="line" smooth="yes"/>
      <point x="434" y="462" type="line" smooth="yes"/>
      <point x="270" y="540" type="line" smooth="yes"/>
      <point x="106" y="462" type="line" smooth="yes"/>
      <point x="55" y="275" type="line" smooth="yes"/>
      <point x="55" y="255" type="line" smooth="yes"/>
      <point x="107" y="68" type="line" smooth="yes"/>
      <point x="275" y="-10" type="line" smooth="yes"/>
      <point x="276" y="-10" type="line" smooth="yes"/>
      <point x="238" y="-56" type="line" smooth="yes"/>
      <point x="223" y="-117" type="line" smooth="yes"/>
      <point x="251" y="-188" type="line" smooth="yes"/>
      <point x="327" y="-210" type="line" smooth="yes"/>
      <point x="366" y="-205" type="line" smooth="yes"/>
      <point x="403" y="-191" type="line" smooth="yes"/>
      <point x="391" y="-163" type="line" smooth="yes"/>
      <point x="362" y="-173" type="line" smooth="yes"/>
      <point x="330" y="-177" type="line" smooth="yes"/>
      <point x="276" y="-161" type="line" smooth="yes"/>
    </contour>
  </outline>
</glyph>
<glyph name="Gcircumflex" format="1">
  <advance width="638"/>
  <unicode hex="011C"/>
  <outline>
    <contour>
      <point x="258" y="840" type="line" smooth="yes"/>
      <point x="328" y="917" type="line" smooth="yes"/>
      <point x="398" y="840" type="line" smooth="yes"/>
      <point x="443" y="840" type="line" smooth="yes"/>
      <point x="343" y="950" type="line" smooth="yes"/>
      <point x="313" y="950" type="line" smooth="yes"/>
      <point x="213" y="840" type="line" smooth="yes"/>
    </contour>
    <contour>
      <point x="338" y="-10" type="line" smooth="yes"/>
      <point x="482" y="19" type="line" smooth="yes"/>
      <point x="563" y="79" type="line" smooth="yes"/>
      <point x="563" y="371" type="line" smooth="yes"/>
      <point x="378" y="371" type="line" smooth="yes"/>
      <point x="378" y="333" type="line" smooth="yes"/>
      <point x="523" y="333" type="line" smooth="yes"/>
      <point x="523" y="99" type="line" smooth="yes"/>
      <point x="456" y="50" type="line" smooth="yes"/>
      <point x="343" y="28" type="line" smooth="yes"/>
      <point x="337" y="28" type="line" smooth="yes"/>
      <point x="163" y="107" type="line" smooth="yes"/>
      <point x="105" y="370" type="line" smooth="yes"/>
      <point x="105" y="410" type="line" smooth="yes"/>
      <point x="164" y="673" type="line" smooth="yes"/>
      <point x="327" y="752" type="line" smooth="yes"/>
      <point x="333" y="752" type="line" smooth="yes"/>
      <point x="476" y="694" type="line" smooth="yes"/>
      <point x="521" y="500" type="line" smooth="yes"/>
      <point x="563" y="500" type="line" smooth="yes"/>
      <point x="563" y="525" type="line" smooth="yes"/>
      <point x="506" y="721" type="line" smooth="yes"/>
      <point x="328" y="790" type="line" smooth="yes"/>
      <point x="132" y="701" type="line" smooth="yes"/>
      <point x="63" y="410" type="line" smooth="yes"/>
      <point x="63" y="370" type="line" smooth="yes"/>
      <point x="133" y="79" type="line" smooth="yes"/>
    </contour>
  </outline>
</glyph>
<glyph name="Gbreve" format="1">
  <advance width="638"/>
  <unicode hex="011E"/>
  <outline>
    <contour>
      <point x="328" y="830" type="line" smooth="yes"/>
      <point x="426" y="864" type="line" smooth="yes"/>
      <point x="460" y="950" type="line" smooth="yes"/>
      <point x="424" y="950" type="line" smooth="yes"/>
      <point x="400" y="888" type="line" smooth="yes"/>
      <point x="328" y="863" type="line" smooth="yes"/>
      <point x="256" y="888" type="line" smooth="yes"/>
      <point x="232" y="950" type="line" smooth="yes"/>
      <point x="196" y="950" type="line" smooth="yes"/>
      <point x="231" y="864" type="line" smooth="yes"/>
    </contour>
    <contour>
      <point x="338" y="-10" type="line" smooth="yes"/>
      <point x="482" y="19" type="line" smooth="yes"/>
      <point x="563" y="79" type="line" smooth="yes"/>
      <point x="563" y="371" type="line" smooth="yes"/>
      <point x="378" y="371" type="line" smooth="yes"/>
      <point x="378" y="333" type="line" smooth="yes"/>
      <point x="523" y="333" type="line" smooth="yes"/>
      <point x="523" y="99" type="line" smooth="yes"/>
      <point x="456" y="50" type="line" smooth="yes"/>
      <point x="343" y="28" type="line" smooth="yes"/>
      <point x="337" y="28" type="line" smooth="yes"/>
      <point x="163" y="107" type="line" smooth="yes"/>
      <point x="105" y="370" type="line" smooth="yes"/>
      <point x="105" y="410" type="line" smooth="yes"/>
      <point x="164" y="673" type="line" smooth="yes"/>
      <point x="327" y="752" type="line" smooth="yes"/>
      <point x="333" y="752" type="line" smooth="yes"/>
      <point x="476" y="694" type="line" smooth="yes"/>
      <point x="521" y="500" type="line" smooth="yes"/>
      <point x="563" y="500" type="line" smooth="yes"/>
      <point x="563" y="525" type="line" smooth="yes"/>
      <point x="506" y="721" type="line" smooth="yes"/>
      <point x="328" y="790" type="line" smooth="yes"/>
      <point x="132" y="701" type="line" smooth="yes"/>
      <point x="63" y="410" type="line" smooth="yes"/>
      <point x="63" y="370" type="line" smooth="yes"/>
      <point x="133" y="79" type="line" smooth="yes"/>
    </contour>
  </outline>
</glyph>
<glyph name="gdotaccent" format="1">
  <advance width="525"/>
  <unicode hex="0121"/>
  <outline>
    <contour>
      <point x="290" y="735" type="line" smooth="yes"/>
      <point x="230" y="735" type="line" smooth="yes"/>
      <point x="230" y="675" type="line" smooth="yes"/>
      <point x="290" y="675" type="line" smooth="yes"/>
    </contour>
    <contour>
      <point x="265" y="68" type="line" smooth="yes"/>
      <point x="139" y="125" type="line" smooth="yes"/>
      <point x="97" y="275" type="line" smooth="yes"/>
      <point x="97" y="295" type="line" smooth="yes"/>
      <point x="139" y="445" type="line" smooth="yes"/>
      <point x="265" y="502" type="line" smooth="yes"/>
      <point x="361" y="471" type="line" smooth="yes"/>
      <point x="415" y="410" type="line" smooth="yes"/>
      <point x="415" y="160" type="line" smooth="yes"/>
      <point x="361" y="99" type="line" smooth="yes"/>
    </contour>
    <contour>
      <point x="415" y="-5" type="line" smooth="yes"/>
      <point x="381" y="-128" type="line" smooth="yes"/>
      <point x="260" y="-172" type="line" smooth="yes"/>
      <point x="141" y="-130" type="line" smooth="yes"/>
      <point x="105" y="0" type="line" smooth="yes"/>
      <point x="65" y="0" type="line" smooth="yes"/>
      <point x="65" y="-10" type="line" smooth="yes"/>
      <point x="108" y="-151" type="line" smooth="yes"/>
      <point x="260" y="-210" type="line" smooth="yes"/>
      <point x="412" y="-151" type="line" smooth="yes"/>
      <point x="455" y="-10" type="line" smooth="yes"/>
      <point x="455" y="380" type="line" smooth="yes"/>
      <point x="460" y="530" type="line" smooth="yes"/>
      <point x="430" y="530" type="line" smooth="yes"/>
      <point x="420" y="455" type="line" smooth="yes"/>
      <point x="362" y="514" type="line" smooth="yes"/>
      <point x="260" y="540" type="line" smooth="yes"/>
      <point x="103" y="466" type="line" smooth="yes"/>
      <point x="55" y="295" type="line" smooth="yes"/>
      <point x="55" y="275" type="line" smooth="yes"/>
      <point x="103" y="104" type="line" smooth="yes"/>
      <point x="260" y="30" type="line" smooth="yes"/>
      <point x="356" y="52" type="line" smooth="yes"/>
      <point x="415" y="105" type="line" smooth="yes"/>
    </contour>
  </outline>
</glyph>
<glyph name="Gcommaaccent" format="1">
  <advance width="638"/>
  <unicode hex="0122"/>
  <outline>
    <contour>
      <point x="368" y="-60" type="line" smooth="yes"/>
      <point x="308" y="-60" type="line" smooth="yes"/>
      <point x="308" y="-120" type="line" smooth="yes"/>
      <point x="338" y="-120" type="line" smooth="yes"/>
      <point x="319" y="-166" type="line" smooth="yes"/>
      <point x="278" y="-180" type="line" smooth="yes"/>
      <point x="278" y="-210" type="line" smooth="yes"/>
      <point x="344" y="-182" type="line" smooth="yes"/>
      <point x="368" y="-108" type="line" smooth="yes"/>
    </contour>
    <contour>
      <point x="338" y="-10" type="line" smooth="yes"/>
      <point x="482" y="19" type="line" smooth="yes"/>
      <point x="563" y="79" type="line" smooth="yes"/>
      <point x="563" y="371" type="line" smooth="yes"/>
      <point x="378" y="371" type="line" smooth="yes"/>
      <point x="378" y="333" type="line" smooth="yes"/>
      <point x="523" y="333" type="line" smooth="yes"/>
      <point x="523" y="99" type="line" smooth="yes"/>
      <point x="456" y="50" type="line" smooth="yes"/>
      <point x="343" y="28" type="line" smooth="yes"/>
      <point x="337" y="28" type="line" smooth="yes"/>
      <point x="163" y="107" type="line" smooth="yes"/>
      <point x="105" y="370" type="line" smooth="yes"/>
      <point x="105" y="410" type="line" smooth="yes"/>
      <point x="164" y="673" type="line" smooth="yes"/>
      <point x="327" y="752" type="line" smooth="yes"/>
      <point x="333" y="752" type="line" smooth="yes"/>
      <point x="476" y="694" type="line" smooth="yes"/>
      <point x="521" y="500" type="line" smooth="yes"/>
      <point x="563" y="500" type="line" smooth="yes"/>
      <point x="563" y="525" type="line" smooth="yes"/>
      <point x="506" y="721" type="line" smooth="yes"/>
      <point x="328" y="790" type="line" smooth="yes"/>
      <point x="132" y="701" type="line" smooth="yes"/>
      <point x="63" y="410" type="line" smooth="yes"/>
      <point x="63" y="370" type="line" smooth="yes"/>
      <point x="133" y="79" type="line" smooth="yes"/>
    </contour>
  </outline>
</glyph>
<glyph name="hcircumflex" format="1">
  <advance width="510"/>
  <unicode hex="0125"/>
  <outline>
    <contour>
      <point x="20" y="840" type="line" smooth="yes"/>
      <point x="90" y="917" type="line" smooth="yes"/>
      <point x="160" y="840" type="line" smooth="yes"/>
      <point x="205" y="840" type="line" smooth="yes"/>
      <point x="105" y="950" type="line" smooth="yes"/>
      <point x="75" y="950" type="line" smooth="yes"/>
      <point x="-25" y="840" type="line" smooth="yes"/>
    </contour>
    <contour>
      <point x="110" y="800" type="line" smooth="yes"/>
      <point x="70" y="800" type="line" smooth="yes"/>
      <point x="70" y="0" type="line" smooth="yes"/>
      <point x="110" y="0" type="line" smooth="yes"/>
      <point x="110" y="410" type="line" smooth="yes"/>
      <point x="166" y="471" type="line" smooth="yes"/>
      <point x="275" y="502" type="line" smooth="yes"/>
      <point x="368" y="472" type="line" smooth="yes"/>
      <point x="405" y="370" type="line" smooth="yes"/>
      <point x="405" y="0" type="line" smooth="yes"/>
      <point x="445" y="0" type="line" smooth="yes"/>
      <point x="445" y="375" type="line" smooth="yes"/>
      <point x="403" y="495" type="line" smooth="yes"/>
      <point x="285" y="540" type="line" smooth="yes"/>
      <point x="175" y="516" type="line" smooth="yes"/>
      <point x="110" y="460" type="line" smooth="yes"/>
    </contour>
  </outline>
</glyph>
<glyph name="hbar" format="1">
  <advance width="510"/>
  <unicode hex="0127"/>
  <outline>
    <contour>
      <point x="110" y="800" type="line" smooth="yes"/>
      <point x="70" y="800" type="line" smooth="yes"/>
      <point x="70" y="684" type="line" smooth="yes"/>
      <point x="-30" y="684" type="line" smooth="yes"/>
      <point x="-30" y="646" type="line" smooth="yes"/>
      <point x="70" y="646" type="line" smooth="yes"/>
      <point x="70" y="0" type="line" smooth="yes"/>
      <point x="110" y="0" type="line" smooth="yes"/>
      <point x="110" y="410" type="line" smooth="yes"/>
      <point x="166" y="471" type="line" smooth="yes"/>
      <point x="275" y="502" type="line" smooth="yes"/>
      <point x="368" y="472" type="line" smooth="yes"/>
      <point x="405" y="370" type="line" smooth="yes"/>
      <point x="405" y="0" type="line" smooth="yes"/>
      <point x="445" y="0" type="line" smooth="yes"/>
      <point x="445" y="375" type="line" smooth="yes"/>
      <point x="403" y="495" type="line" smooth="yes"/>
      <point x="285" y="540" type="line" smooth="yes"/>
      <point x="175" y="516" type="line" smooth="yes"/>
      <point x="110" y="460" type="line" smooth="yes"/>
      <point x="110" y="646" type="line" smooth="yes"/>
      <point x="250" y="646" type="line" smooth="yes"/>
      <point x="250" y="684" type="line" smooth="yes"/>
      <point x="110" y="684" type="line" smooth="yes"/>
    </contour>
  </outline>
</glyph>
<glyph name="Itilde" format="1">
  <advance width="210"/>
  <unicode hex="0128"/>
  <outline>
    <contour>
      <point x="209" y="932" type="line" smooth="yes"/>
      <point x="199" y="893" type="line" smooth="yes"/>
      <point x="170" y="881" type="line" smooth="yes"/>
      <point x="110" y="912" type="line" smooth="yes"/>
      <point x="37" y="942" type="line" smooth="yes"/>
      <point x="-15" y="921" type="line" smooth="yes"/>
      <point x="-35" y="858" type="line" smooth="yes"/>
      <point x="1" y="858" type="line" smooth="yes"/>
      <point x="11" y="897" type="line" smooth="yes"/>
      <point x="40" y="909" type="line" smooth="yes"/>
      <point x="100" y="879" type="line" smooth="yes"/>
      <point x="173" y="848" type="line" smooth="yes"/>
      <point x="225" y="869" type="line" smooth="yes"/>
      <point x="245" y="932" type="line" smooth="yes"/>
    </contour>
    <contour>
      <point x="125" y="780" type="line" smooth="yes"/>
      <point x="85" y="780" type="line" smooth="yes"/>
      <point x="85" y="0" type="line" smooth="yes"/>
      <point x="125" y="0" type="line" smooth="yes"/>
    </contour>
  </outline>
</glyph>
<glyph name="itilde" format="1">
  <advance width="200"/>
  <unicode hex="0129"/>
  <outline>
    <contour>
      <point x="205" y="737" type="line" smooth="yes"/>
      <point x="194" y="698" type="line" smooth="yes"/>
      <point x="168" y="687" type="line" smooth="yes"/>
      <point x="105" y="717" type="line" smooth="yes"/>
      <point x="30" y="747" type="line" smooth="yes"/>
      <point x="-21" y="726" type="line" smooth="yes"/>
      <point x="-40" y="663" type="line" smooth="yes"/>
      <point x="-5" y="663" type="line" smooth="yes"/>
      <point x="6" y="702" type="line" smooth="yes"/>
      <point x="32" y="713" type="line" smooth="yes"/>
      <point x="95" y="683" type="line" smooth="yes"/>
      <point x="170" y="653" type="line" smooth="yes"/>
      <point x="221" y="674" type="line" smooth="yes"/>
      <point x="240" y="737" type="line" smooth="yes"/>
    </contour>
    <contour>
      <point x="80" y="0" type="line" smooth="yes"/>
      <point x="120" y="0" type="line" smooth="yes"/>
      <point x="120" y="530" type="line" smooth="yes"/>
      <point x="80" y="530" type="line" smooth="yes"/>
    </contour>
  </outline>
</glyph>
<glyph name="ibreve" format="1">
  <advance width="200"/>
  <unicode hex="012D"/>
  <outline>
    <contour>
      <point x="100" y="610" type="line" smooth="yes"/>
      <point x="215" y="658" type="line" smooth="yes"/>
      <point x="252" y="780" type="line" smooth="yes"/>
      <point x="216" y="780" type="line" smooth="yes"/>
      <point x="190" y="682" type="line" smooth="yes"/>
      <point x="100" y="643" type="line" smooth="yes"/>
      <point x="10" y="682" type="line" smooth="yes"/>
      <point x="-16" y="780" type="line" smooth="yes"/>
      <point x="-52" y="780" type="line" smooth="yes"/>
      <point x="-15" y="658" type="line" smooth="yes"/>
    </contour>
    <contour>
      <point x="80" y="0" type="line" smooth="yes"/>
      <point x="120" y="0" type="line" smooth="yes"/>
      <point x="120" y="530" type="line" smooth="yes"/>
      <point x="80" y="530" type="line" smooth="yes"/>
    </contour>
  </outline>
</glyph>
<glyph name="Iogonek" format="1">
  <advance width="210"/>
  <unicode hex="012E"/>
  <outline>
    <contour>
      <point x="31" y="-117" type="line" smooth="yes"/>
      <point x="61" y="-43" type="line" smooth="yes"/>
      <point x="125" y="0" type="line" smooth="yes"/>
      <point x="125" y="780" type="line" smooth="yes"/>
      <point x="85" y="780" type="line" smooth="yes"/>
      <point x="85" y="13" type="line" smooth="yes"/>
      <point x="24" y="-38" type="line" smooth="yes"/>
      <point x="-2" y="-117" type="line" smooth="yes"/>
      <point x="26" y="-188" type="line" smooth="yes"/>
      <point x="102" y="-210" type="line" smooth="yes"/>
      <point x="141" y="-205" type="line" smooth="yes"/>
      <point x="178" y="-191" type="line" smooth="yes"/>
      <point x="166" y="-163" type="line" smooth="yes"/>
      <point x="137" y="-173" type="line" smooth="yes"/>
      <point x="105" y="-177" type="line" smooth="yes"/>
      <point x="51" y="-161" type="line" smooth="yes"/>
    </contour>
  </outline>
</glyph>
<glyph name="iogonek" format="1">
  <advance width="200"/>
  <unicode hex="012F"/>
  <outline>
    <contour>
      <point x="130" y="735" type="line" smooth="yes"/>
      <point x="70" y="735" type="line" smooth="yes"/>
      <point x="70" y="675" type="line" smooth="yes"/>
      <point x="130" y="675" type="line" smooth="yes"/>
    </contour>
    <contour>
      <point x="26" y="-117" type="line" smooth="yes"/>
      <point x="56" y="-43" type="line" smooth="yes"/>
      <point x="120" y="0" type="line" smooth="yes"/>
      <point x="120" y="530" type="line" smooth="yes"/>
      <point x="80" y="530" type="line" smooth="yes"/>
      <point x="80" y="13" type="line" smooth="yes"/>
      <point x="19" y="-38" type="line" smooth="yes"/>
      <point x="-7" y="-117" type="line" smooth="yes"/>
      <point x="21" y="-188" type="line" smooth="yes"/>
      <point x="97" y="-210" type="line" smooth="yes"/>
      <point x="136" y="-205" type="line" smooth="yes"/>
      <point x="173" y="-191" type="line" smooth="yes"/>
      <point x="161" y="-163" type="line" smooth="yes"/>
      <point x="132" y="-173" type="line" smooth="yes"/>
      <point x="100" y="-177" type="line" smooth="yes"/>
      <point x="46" y="-161" type="line" smooth="yes"/>
    </contour>
  </outline>
</glyph>
<glyph name="IJ" format="1">
  <advance width="460"/>
  <unicode hex="0132"/>
  <outline>
    <contour>
      <point x="125" y="780" type="line" smooth="yes"/>
      <point x="85" y="780" type="line" smooth="yes"/>
      <point x="85" y="0" type="line" smooth="yes"/>
      <point x="125" y="0" type="line" smooth="yes"/>
    </contour>
    <contour>
      <point x="345" y="150" type="line" smooth="yes"/>
      <point x="321" y="55" type="line" smooth="yes"/>
      <point x="245" y="28" type="line" smooth="yes"/>
      <point x="211" y="32" type="line" smooth="yes"/>
      <point x="185" y="39" type="line" smooth="yes"/>
      <point x="185" y="2" type="line" smooth="yes"/>
      <point x="208" y="-6" type="line" smooth="yes"/>
      <point x="255" y="-10" type="line" smooth="yes"/>
      <point x="348" y="26" type="line" smooth="yes"/>
      <point x="385" y="145" type="line" smooth="yes"/>
      <point x="385" y="780" type="line" smooth="yes"/>
      <point x="345" y="780" type="line" smooth="yes"/>
    </contour>
  </outline>
</glyph>
<glyph name="Jcircumflex" format="1">
  <advance width="480"/>
  <unicode hex="0134"/>
  <outline>
    <contour>
      <point x="315" y="840" type="line" smooth="yes"/>
      <point x="385" y="917" type="line" smooth="yes"/>
      <point x="455" y="840" type="line" smooth="yes"/>
      <point x="500" y="840" type="line" smooth="yes"/>
      <point x="400" y="950" type="line" smooth="yes"/>
      <point x="370" y="950" type="line" smooth="yes"/>
      <point x="270" y="840" type="line" smooth="yes"/>
    </contour>
    <contour>
      <point x="365" y="780" type="line" smooth="yes"/>
      <point x="365" y="250" type="line" smooth="yes"/>
      <point x="330" y="81" type="line" smooth="yes"/>
      <point x="217" y="28" type="line" smooth="yes"/>
      <point x="104" y="81" type="line" smooth="yes"/>
      <point x="69" y="250" type="line" smooth="yes"/>
      <point x="31" y="250" type="line" smooth="yes"/>
      <point x="31" y="240" type="line" smooth="yes"/>
      <point x="72" y="56" type="line" smooth="yes"/>
      <point x="217" y="-10" type="line" smooth="yes"/>
      <point x="364" y="57" type="line" smooth="yes"/>
      <point x="405" y="240" type="line" smooth="yes"/>
      <point x="405" y="780" type="line" smooth="yes"/>
    </contour>
  </outline>
</glyph>
<glyph name="jcircumflex" format="1">
  <advance width="200"/>
  <unicode hex="0135"/>
  <outline>
    <contour>
      <point x="0" y="620" type="line" smooth="yes"/>
      <point x="100" y="744" type="line" smooth="yes"/>
      <point x="200" y="620" type="line" smooth="yes"/>
      <point x="245" y="620" type="line" smooth="yes"/>
      <point x="115" y="780" type="line" smooth="yes"/>
      <point x="85" y="780" type="line" smooth="yes"/>
      <point x="-45" y="620" type="line" smooth="yes"/>
    </contour>
    <contour>
      <point x="80" y="-60" type="line" smooth="yes"/>
      <point x="52" y="-150" type="line" smooth="yes"/>
      <point x="-30" y="-172" type="line" smooth="yes"/>
      <point x="-66" y="-169" type="line" smooth="yes"/>
      <point x="-90" y="-163" type="line" smooth="yes"/>
      <point x="-90" y="-200" type="line" smooth="yes"/>
      <point x="-67" y="-206" type="line" smooth="yes"/>
      <point x="-20" y="-210" type="line" smooth="yes"/>
      <point x="80" y="-177" type="line" smooth="yes"/>
      <point x="120" y="-65" type="line" smooth="yes"/>
      <point x="120" y="530" type="line" smooth="yes"/>
      <point x="80" y="530" type="line" smooth="yes"/>
    </contour>
  </outline>
</glyph>
<glyph name="Kcommaaccent" format="1">
  <advance width="540"/>
  <unicode hex="0136"/>
  <outline>
    <contour>
      <point x="295" y="-60" type="line" smooth="yes"/>
      <point x="235" y="-60" type="line" smooth="yes"/>
      <point x="235" y="-120" type="line" smooth="yes"/>
      <point x="265" y="-120" type="line" smooth="yes"/>
      <point x="246" y="-166" type="line" smooth="yes"/>
      <point x="205" y="-180" type="line" smooth="yes"/>
      <point x="205" y="-210" type="line" smooth="yes"/>
      <point x="271" y="-182" type="line" smooth="yes"/>
      <point x="295" y="-108" type="line" smooth="yes"/>
    </contour>
    <contour>
      <point x="120" y="780" type="line" smooth="yes"/>
      <point x="80" y="780" type="line" smooth="yes"/>
      <point x="80" y="0" type="line" smooth="yes"/>
      <point x="120" y="0" type="line" smooth="yes"/>
      <point x="120" y="245" type="line" smooth="yes"/>
      <point x="237" y="410" type="line" smooth="yes"/>
      <point x="453" y="0" type="line" smooth="yes"/>
      <point x="500" y="0" type="line" smooth="yes"/>
      <point x="262" y="446" type="line" smooth="yes"/>
      <point x="500" y="780" type="line" smooth="yes"/>
      <point x="451" y="780" type="line" smooth="yes"/>
      <point x="120" y="307" type="line" smooth="yes"/>
    </contour>
  </outline>
</glyph>
<glyph name="kcommaaccent" format="1">
  <advance width="480"/>
  <unicode hex="0137"/>
  <outline>
    <contour>
      <point x="275" y="-60" type="line" smooth="yes"/>
      <point x="215" y="-60" type="line" smooth="yes"/>
      <point x="215" y="-120" type="line" smooth="yes"/>
      <point x="245" y="-120" type="line" smooth="yes"/>
      <point x="226" y="-166" type="line" smooth="yes"/>
      <point x="185" y="-180" type="line" smooth="yes"/>
      <point x="185" y="-210" type="line" smooth="yes"/>
      <point x="251" y="-182" type="line" smooth="yes"/>
      <point x="275" y="-108" type="line" smooth="yes"/>
    </contour>
    <contour>
      <point x="70" y="0" type="line" smooth="yes"/>
      <point x="110" y="0" type="line" smooth="yes"/>
      <point x="110" y="162" type="line" smooth="yes"/>
      <point x="237" y="300" type="line" smooth="yes"/>
      <point x="405" y="0" type="line" smooth="yes"/>
      <point x="450" y="0" type="line" smooth="yes"/>
      <point x="265" y="330" type="line" smooth="yes"/>
      <point x="450" y="530" type="line" smooth="yes"/>
      <point x="398" y="530" type="line" smooth="yes"/>
      <point x="110" y="217" type="line" smooth="yes"/>
      <point x="110" y="800" type="line" smooth="yes"/>
      <point x="70" y="800" type="line" smooth="yes"/>
    </contour>
  </outline>
</glyph>
<glyph name="lacute" format="1">
  <advance width="200"/>
  <unicode hex="013A"/>
  <outline>
    <contour>
      <point x="141" y="950" type="line" smooth="yes"/>
      <point x="79" y="840" type="line" smooth="yes"/>
      <point x="121" y="840" type="line" smooth="yes"/>
      <point x="183" y="950" type="line" smooth="yes"/>
    </contour>
    <contour>
      <point x="80" y="0" type="line" smooth="yes"/>
      <point x="120" y="0" type="line" smooth="yes"/>
      <point x="120" y="800" type="line" smooth="yes"/>
      <point x="80" y="800" type="line" smooth="yes"/>
    </contour>
  </outline>
</glyph>
<glyph name="Lcaron" format="1">
  <advance width="480"/>
  <unicode hex="013D"/>
  <outline>
    <contour>
      <point x="278" y="800" type="line" smooth="yes"/>
      <point x="278" y="620" type="line" smooth="yes"/>
      <point x="308" y="620" type="line" smooth="yes"/>
      <point x="323" y="800" type="line" smooth="yes"/>
    </contour>
    <contour>
      <point x="465" y="0" type="line" smooth="yes"/>
      <point x="465" y="38" type="line" smooth="yes"/>
      <point x="120" y="38" type="line" smooth="yes"/>
      <point x="120" y="780" type="line" smooth="yes"/>
      <point x="80" y="780" type="line" smooth="yes"/>
      <point x="80" y="0" type="line" smooth="yes"/>
    </contour>
  </outline>
</glyph>
<glyph name="ncommaaccent" format="1">
  <advance width="510"/>
  <unicode hex="0146"/>
  <outline>
    <contour>
      <point x="288" y="-60" type="line" smooth="yes"/>
      <point x="228" y="-60" type="line" smooth="yes"/>
      <point x="228" y="-120" type="line" smooth="yes"/>
      <point x="258" y="-120" type="line" smooth="yes"/>
      <point x="239" y="-166" type="line" smooth="yes"/>
      <point x="198" y="-180" type="line" smooth="yes"/>
      <point x="198" y="-210" type="line" smooth="yes"/>
      <point x="264" y="-182" type="line" smooth="yes"/>
      <point x="288" y="-108" type="line" smooth="yes"/>
    </contour>
    <contour>
      <point x="445" y="0" type="line" smooth="yes"/>
      <point x="445" y="375" type="line" smooth="yes"/>
      <point x="403" y="495" type="line" smooth="yes"/>
      <point x="285" y="540" type="line" smooth="yes"/>
      <point x="170" y="513" type="line" smooth="yes"/>
      <point x="104" y="452" type="line" smooth="yes"/>
      <point x="95" y="530" type="line" smooth="yes"/>
      <point x="65" y="530" type="line" smooth="yes"/>
      <point x="70" y="380" type="line" smooth="yes"/>
      <point x="70" y="0" type="line" smooth="yes"/>
      <point x="110" y="0" type="line" smooth="yes"/>
      <point x="110" y="410" type="line" smooth="yes"/>
      <point x="166" y="471" type="line" smooth="yes"/>
      <point x="275" y="502" type="line" smooth="yes"/>
      <point x="368" y="472" type="line" smooth="yes"/>
      <point x="405" y="370" type="line" smooth="yes"/>
      <point x="405" y="0" type="line" smooth="yes"/>
    </contour>
  </outline>
</glyph>
<glyph name="Eng" format="1">
  <advance width="650"/>
  <unicode hex="014A"/>
  <outline>
    <contour>
      <point x="530" y="-60" type="line" smooth="yes"/>
      <point x="502" y="-150" type="line" smooth="yes"/>
      <point x="420" y="-172" type="line" smooth="yes"/>
      <point x="384" y="-169" type="line" smooth="yes"/>
      <point x="360" y="-163" type="line" smooth="yes"/>
      <point x="360" y="-200" type="line" smooth="yes"/>
      <point x="383" y="-206" type="line" smooth="yes"/>
      <point x="430" y="-210" type="line" smooth="yes"/>
      <point x="530" y="-177" type="line" smooth="yes"/>
      <point x="570" y="-65" type="line" smooth="yes"/>
      <point x="570" y="780" type="line" smooth="yes"/>
      <point x="532" y="780" type="line" smooth="yes"/>
      <point x="532" y="250" type="line" smooth="yes"/>
      <point x="535" y="60" type="line" smooth="yes"/>
      <point x="125" y="780" type="line" smooth="yes"/>
      <point x="80" y="780" type="line" smooth="yes"/>
      <point x="80" y="0" type="line" smooth="yes"/>
      <point x="118" y="0" type="line" smooth="yes"/>
      <point x="118" y="530" type="line" smooth="yes"/>
      <point x="115" y="720" type="line" smooth="yes"/>
      <point x="530" y="-9" type="line" smooth="yes"/>
    </contour>
  </outline>
</glyph>
<glyph name="Omacron" format="1">
  <advance width="640"/>
  <unicode hex="014C"/>
  <outline>
    <contour>
      <point x="220" y="875" type="line" smooth="yes"/>
      <point x="420" y="875" type="line" smooth="yes"/>
      <point x="420" y="915" type="line" smooth="yes"/>
      <point x="220" y="915" type="line" smooth="yes"/>
    </contour>
    <contour>
      <point x="317" y="28" type="line" smooth="yes"/>
      <point x="158" y="107" type="line" smooth="yes"/>
      <point x="105" y="370" type="line" smooth="yes"/>
      <point x="105" y="410" type="line" smooth="yes"/>
      <point x="158" y="673" type="line" smooth="yes"/>
      <point x="317" y="752" type="line" smooth="yes"/>
      <point x="323" y="752" type="line" smooth="yes"/>
      <point x="482" y="673" type="line" smooth="yes"/>
      <point x="535" y="410" type="line" smooth="yes"/>
      <point x="535" y="370" type="line" smooth="yes"/>
      <point x="482" y="107" type="line" smooth="yes"/>
      <point x="323" y="28" type="line" smooth="yes"/>
    </contour>
    <contour>
      <point x="320" y="-10" type="line" smooth="yes"/>
      <point x="512" y="79" type="line" smooth="yes"/>
      <point x="577" y="370" type="line" smooth="yes"/>
      <point x="577" y="410" type="line" smooth="yes"/>
      <point x="512" y="701" type="line" smooth="yes"/>
      <point x="320" y="790" type="line" smooth="yes"/>
      <point x="128" y="701" type="line" smooth="yes"/>
      <point x="63" y="410" type="line" smooth="yes"/>
      <point x="63" y="370" type="line" smooth="yes"/>
      <point x="128" y="79" type="line" smooth="yes"/>
    </contour>
  </outline>
</glyph>
<glyph name="Obreve" format="1">
  <advance width="640"/>
  <unicode hex="014E"/>
  <outline>
    <contour>
      <point x="320" y="830" type="line" smooth="yes"/>
      <point x="418" y="864" type="line" smooth="yes"/>
      <point x="452" y="950" type="line" smooth="yes"/>
      <point x="416" y="950" type="line" smooth="yes"/>
      <point x="392" y="888" type="line" smooth="yes"/>
      <point x="320" y="863" type="line" smooth="yes"/>
      <point x="248" y="888" type="line" smooth="yes"/>
      <point x="224" y="950" type="line" smooth="yes"/>
      <point x="188" y="950" type="line" smooth="yes"/>
      <point x="223" y="864" type="line" smooth="yes"/>
    </contour>
    <contour>
      <point x="317" y="28" type="line" smooth="yes"/>
      <point x="158" y="107" type="line" smooth="yes"/>
      <point x="105" y="370" type="line" smooth="yes"/>
      <point x="105" y="410" type="line" smooth="yes"/>
      <point x="158" y="673" type="line" smooth="yes"/>
      <point x="317" y="752" type="line" smooth="yes"/>
      <point x="323" y="752" type="line" smooth="yes"/>
      <point x="482" y="673" type="line" smooth="yes"/>
      <point x="535" y="410" type="line" smooth="yes"/>
      <point x="535" y="370" type="line" smooth="yes"/>
      <point x="482" y="107" type="line" smooth="yes"/>
      <point x="323" y="28" type="line" smooth="yes"/>
    </contour>
    <contour>
      <point x="320" y="-10" type="line" smooth="yes"/>
      <point x="512" y="79" type="line" smooth="yes"/>
      <point x="577" y="370" type="line" smooth="yes"/>
      <point x="577" y="410" type="line" smooth="yes"/>
      <point x="512" y="701" type="line" smooth="yes"/>
      <point x="320" y="790" type="line" smooth="yes"/>
      <point x="128" y="701" type="line" smooth="yes"/>
      <point x="63" y="410" type="line" smooth="yes"/>
      <point x="63" y="370" type="line" smooth="yes"/>
      <point x="128" y="79" type="line" smooth="yes"/>
    </contour>
  </outline>
</glyph>
<glyph name="oe" format="1">
  <advance width="928"/>
  <unicode hex="0153"/>
  <outline>
    <contour>
      <point x="658" y="502" type="line" smooth="yes"/>
      <point x="787" y="442" type="line" smooth="yes"/>
      <point x="831" y="284" type="line" smooth="yes"/>
      <point x="485" y="284" type="line" smooth="yes"/>
      <point x="528" y="442" type="line" smooth="yes"/>
    </contour>
    <contour>
      <point x="97" y="255" type="line" smooth="yes"/>
      <point x="97" y="275" type="line" smooth="yes"/>
      <point x="139" y="439" type="line" smooth="yes"/>
      <point x="270" y="502" type="line" smooth="yes"/>
      <point x="401" y="439" type="line" smooth="yes"/>
      <point x="443" y="275" type="line" smooth="yes"/>
      <point x="443" y="255" type="line" smooth="yes"/>
      <point x="401" y="91" type="line" smooth="yes"/>
      <point x="270" y="28" type="line" smooth="yes"/>
      <point x="139" y="91" type="line" smooth="yes"/>
    </contour>
    <contour>
      <point x="873" y="246" type="line" smooth="yes"/>
      <point x="873" y="275" type="line" smooth="yes"/>
      <point x="822" y="462" type="line" smooth="yes"/>
      <point x="658" y="540" type="line" smooth="yes"/>
      <point x="531" y="499" type="line" smooth="yes"/>
      <point x="464" y="393" type="line" smooth="yes"/>
      <point x="397" y="499" type="line" smooth="yes"/>
      <point x="270" y="540" type="line" smooth="yes"/>
      <point x="106" y="462" type="line" smooth="yes"/>
      <point x="55" y="275" type="line" smooth="yes"/>
      <point x="55" y="255" type="line" smooth="yes"/>
      <point x="106" y="68" type="line" smooth="yes"/>
      <point x="270" y="-10" type="line" smooth="yes"/>
      <point x="397" y="31" type="line" smooth="yes"/>
      <point x="464" y="137" type="line" smooth="yes"/>
      <point x="532" y="31" type="line" smooth="yes"/>
      <point x="663" y="-10" type="line" smooth="yes"/>
      <point x="824" y="50" type="line" smooth="yes"/>
      <point x="873" y="166" type="line" smooth="yes"/>
      <point x="873" y="170" type="line" smooth="yes"/>
      <point x="833" y="170" type="line" smooth="yes"/>
      <point x="794" y="75" type="line" smooth="yes"/>
      <point x="663" y="28" type="line" smooth="yes"/>
      <point x="529" y="88" type="line" smooth="yes"/>
      <point x="485" y="246" type="line" smooth="yes"/>
    </contour>
  </outline>
</glyph>
<glyph name="racute" format="1">
  <advance width="315"/>
  <unicode hex="0155"/>
  <outline>
    <contour>
      <point x="239" y="780" type="line" smooth="yes"/>
      <point x="149" y="620" type="line" smooth="yes"/>
      <point x="191" y="620" type="line" smooth="yes"/>
      <point x="281" y="780" type="line" smooth="yes"/>
    </contour>
    <contour>
      <point x="255" y="540" type="line" smooth="yes"/>
      <point x="162" y="514" type="line" smooth="yes"/>
      <point x="104" y="455" type="line" smooth="yes"/>
      <point x="95" y="530" type="line" smooth="yes"/>
      <point x="65" y="530" type="line" smooth="yes"/>
      <point x="70" y="380" type="line" smooth="yes"/>
      <point x="70" y="0" type="line" smooth="yes"/>
      <point x="110" y="0" type="line" smooth="yes"/>
      <point x="110" y="410" type="line" smooth="yes"/>
      <point x="163" y="471" type="line" smooth="yes"/>
      <point x="260" y="502" type="line" smooth="yes"/>
      <point x="270" y="502" type="line" smooth="yes"/>
      <point x="270" y="539" type="line" smooth="yes"/>
      <point x="265" y="540" type="line" smooth="yes"/>
    </contour>
  </outline>
</glyph>
<glyph name="Rcommaaccent" format="1">
  <advance width="570"/>
  <unicode hex="0156"/>
  <outline>
    <contour>
      <point x="305" y="-60" type="line" smooth="yes"/>
      <point x="245" y="-60" type="line" smooth="yes"/>
      <point x="245" y="-120" type="line" smooth="yes"/>
      <point x="275" y="-120" type="line" smooth="yes"/>
      <point x="256" y="-166" type="line" smooth="yes"/>
      <point x="215" y="-180" type="line" smooth="yes"/>
      <point x="215" y="-210" type="line" smooth="yes"/>
      <point x="281" y="-182" type="line" smooth="yes"/>
      <point x="305" y="-108" type="line" smooth="yes"/>
    </contour>
    <contour>
      <point x="120" y="368" type="line" smooth="yes"/>
      <point x="120" y="742" type="line" smooth="yes"/>
      <point x="282" y="742" type="line" smooth="yes"/>
      <point x="404" y="709" type="line" smooth="yes"/>
      <point x="468" y="563" type="line" smooth="yes"/>
      <point x="468" y="547" type="line" smooth="yes"/>
      <point x="404" y="401" type="line" smooth="yes"/>
      <point x="282" y="368" type="line" smooth="yes"/>
    </contour>
    <contour>
      <point x="120" y="330" type="line" smooth="yes"/>
      <point x="282" y="330" type="line" smooth="yes"/>
      <point x="308" y="331" type="line" smooth="yes"/>
      <point x="333" y="334" type="line" smooth="yes"/>
      <point x="465" y="0" type="line" smooth="yes"/>
      <point x="510" y="0" type="line" smooth="yes"/>
      <point x="371" y="342" type="line" smooth="yes"/>
      <point x="469" y="406" type="line" smooth="yes"/>
      <point x="510" y="545" type="line" smooth="yes"/>
      <point x="510" y="565" type="line" smooth="yes"/>
      <point x="436" y="736" type="line" smooth="yes"/>
      <point x="282" y="780" type="line" smooth="yes"/>
      <point x="80" y="780" type="line" smooth="yes"/>
      <point x="80" y="0" type="line" smooth="yes"/>
      <point x="120" y="0" type="line" smooth="yes"/>
    </contour>
  </outline>
</glyph>
<glyph name="rcaron" format="1">
  <advance width="315"/>
  <unicode hex="0159"/>
  <outline>
    <contour>
      <point x="25" y="780" type="line" smooth="yes"/>
      <point x="155" y="620" type="line" smooth="yes"/>
      <point x="185" y="620" type="line" smooth="yes"/>
      <point x="315" y="780" type="line" smooth="yes"/>
      <point x="270" y="780" type="line" smooth="yes"/>
      <point x="170" y="656" type="line" smooth="yes"/>
      <point x="70" y="780" type="line" smooth="yes"/>
    </contour>
    <contour>
      <point x="255" y="540" type="line" smooth="yes"/>
      <point x="162" y="514" type="line" smooth="yes"/>
      <point x="104" y="455" type="line" smooth="yes"/>
      <point x="95" y="530" type="line" smooth="yes"/>
      <point x="65" y="530" type="line" smooth="yes"/>
      <point x="70" y="380" type="line" smooth="yes"/>
      <point x="70" y="0" type="line" smooth="yes"/>
      <point x="110" y="0" type="line" smooth="yes"/>
      <point x="110" y="410" type="line" smooth="yes"/>
      <point x="163" y="471" type="line" smooth="yes"/>
      <point x="260" y="502" type="line" smooth="yes"/>
      <point x="270" y="502" type="line" smooth="yes"/>
      <point x="270" y="539" type="line" smooth="yes"/>
      <point x="265" y="540" type="line" smooth="yes"/>
    </contour>
  </outline>
</glyph>
<glyph name="scircumflex" format="1">
  <advance width="520"/>
  <unicode hex="015D"/>
  <outline>
    <contour>
      <point x="160" y="620" type="line" smooth="yes"/>
      <point x="260" y="744" type="line" smooth="yes"/>
      <point x="360" y="620" type="line" smooth="yes"/>
      <point x="405" y="620" type="line" smooth="yes"/>
      <point x="275" y="780" type="line" smooth="yes"/>
      <point x="245" y="780" type="line" smooth="yes"/>
      <point x="115" y="620" type="line" smooth="yes"/>
    </contour>
    <contour>
      <point x="260" y="28" type="line" smooth="yes"/>
      <point x="136" y="69" type="line" smooth="yes"/>
      <point x="105" y="160" type="line" smooth="yes"/>
      <point x="65" y="160" type="line" smooth="yes"/>
      <point x="65" y="156" type="line" smooth="yes"/>
      <point x="107" y="46" type="line" smooth="yes"/>
      <point x="260" y="-10" type="line" smooth="yes"/>
      <point x="404" y="32" type="line" smooth="yes"/>
      <point x="455" y="138" type="line" smooth="yes"/>
      <point x="455" y="142" type="line" smooth="yes"/>
      <point x="415" y="245" type="line" smooth="yes"/>
      <point x="275" y="286" type="line" smooth="yes"/>
      <point x="144" y="321" type="line" smooth="yes"/>
      <point x="113" y="395" type="line" smooth="yes"/>
      <point x="152" y="474" type="line" smooth="yes"/>
      <point x="260" y="502" type="line" smooth="yes"/>
      <point x="379" y="464" type="line" smooth="yes"/>
      <point x="410" y="360" type="line" smooth="yes"/>
      <point x="450" y="360" type="line" smooth="yes"/>
      <point x="450" y="364" type="line" smooth="yes"/>
      <point x="408" y="490" type="line" smooth="yes"/>
      <point x="260" y="540" type="line" smooth="yes"/>
      <point x="119" y="499" type="line" smooth="yes"/>
      <point x="71" y="397" type="line" smooth="yes"/>
      <point x="71" y="392" type="line" smooth="yes"/>
      <point x="106" y="300" type="line" smooth="yes"/>
      <point x="245" y="253" type="line" smooth="yes"/>
      <point x="373" y="225" type="line" smooth="yes"/>
      <point x="413" y="140" type="line" smooth="yes"/>
      <point x="373" y="58" type="line" smooth="yes"/>
    </contour>
  </outline>
</glyph>
<glyph name="Scedilla" format="1">
  <advance width="590"/>
  <unicode hex="015E"/>
  <outline>
    <contour>
      <point x="204" y="-188" type="line" smooth="yes"/>
      <point x="243" y="-204" type="line" smooth="yes"/>
      <point x="292" y="-210" type="line" smooth="yes"/>
      <point x="361" y="-193" type="line" smooth="yes"/>
      <point x="389" y="-135" type="line" smooth="yes"/>
      <point x="358" y="-79" type="line" smooth="yes"/>
      <point x="296" y="-64" type="line" smooth="yes"/>
      <point x="291" y="-64" type="line" smooth="yes"/>
      <point x="311" y="-9" type="line" smooth="yes"/>
      <point x="477" y="51" type="line" smooth="yes"/>
      <point x="540" y="204" type="line" smooth="yes"/>
      <point x="540" y="214" type="line" smooth="yes"/>
      <point x="487" y="350" type="line" smooth="yes"/>
      <point x="306" y="421" type="line" smooth="yes"/>
      <point x="147" y="479" type="line" smooth="yes"/>
      <point x="102" y="590" type="line" smooth="yes"/>
      <point x="102" y="600" type="line" smooth="yes"/>
      <point x="157" y="712" type="line" smooth="yes"/>
      <point x="292" y="752" type="line" smooth="yes"/>
      <point x="298" y="752" type="line" smooth="yes"/>
      <point x="444" y="698" type="line" smooth="yes"/>
      <point x="490" y="520" type="line" smooth="yes"/>
      <point x="530" y="520" type="line" smooth="yes"/>
      <point x="530" y="545" type="line" smooth="yes"/>
      <point x="475" y="725" type="line" smooth="yes"/>
      <point x="295" y="790" type="line" smooth="yes"/>
      <point x="126" y="737" type="line" smooth="yes"/>
      <point x="60" y="590" type="line" smooth="yes"/>
      <point x="60" y="580" type="line" smooth="yes"/>
      <point x="110" y="458" type="line" smooth="yes"/>
      <point x="287" y="385" type="line" smooth="yes"/>
      <point x="447" y="329" type="line" smooth="yes"/>
      <point x="498" y="209" type="line" smooth="yes"/>
      <point x="498" y="199" type="line" smooth="yes"/>
      <point x="442" y="72" type="line" smooth="yes"/>
      <point x="298" y="28" type="line" smooth="yes"/>
      <point x="292" y="28" type="line" smooth="yes"/>
      <point x="148" y="82" type="line" smooth="yes"/>
      <point x="90" y="250" type="line" smooth="yes"/>
      <point x="50" y="250" type="line" smooth="yes"/>
      <point x="50" y="240" type="line" smooth="yes"/>
      <point x="108" y="63" type="line" smooth="yes"/>
      <point x="275" y="-9" type="line" smooth="yes"/>
      <point x="248" y="-83" type="line" smooth="yes"/>
      <point x="265" y="-99" type="line" smooth="yes"/>
      <point x="273" y="-98" type="line" smooth="yes"/>
      <point x="291" y="-97" type="line" smooth="yes"/>
      <point x="337" y="-106" type="line" smooth="yes"/>
      <point x="356" y="-136" type="line" smooth="yes"/>
      <point x="339" y="-168" type="line" smooth="yes"/>
      <point x="287" y="-177" type="line" smooth="yes"/>
      <point x="249" y="-172" type="line" smooth="yes"/>
      <point x="217" y="-158" type="line" smooth="yes"/>
    </contour>
  </outline>
</glyph>
<glyph name="scedilla" format="1">
  <advance width="520"/>
  <unicode hex="015F"/>
  <outline>
    <contour>
      <point x="169" y="-188" type="line" smooth="yes"/>
      <point x="208" y="-204" type="line" smooth="yes"/>
      <point x="257" y="-210" type="line" smooth="yes"/>
      <point x="326" y="-193" type="line" smooth="yes"/>
      <point x="354" y="-135" type="line" smooth="yes"/>
      <point x="323" y="-79" type="line" smooth="yes"/>
      <point x="261" y="-64" type="line" smooth="yes"/>
      <point x="256" y="-64" type="line" smooth="yes"/>
      <point x="276" y="-9" type="line" smooth="yes"/>
      <point x="408" y="36" type="line" smooth="yes"/>
      <point x="455" y="138" type="line" smooth="yes"/>
      <point x="455" y="142" type="line" smooth="yes"/>
      <point x="415" y="245" type="line" smooth="yes"/>
      <point x="275" y="286" type="line" smooth="yes"/>
      <point x="144" y="321" type="line" smooth="yes"/>
      <point x="113" y="395" type="line" smooth="yes"/>
      <point x="152" y="474" type="line" smooth="yes"/>
      <point x="260" y="502" type="line" smooth="yes"/>
      <point x="379" y="464" type="line" smooth="yes"/>
      <point x="410" y="360" type="line" smooth="yes"/>
      <point x="450" y="360" type="line" smooth="yes"/>
      <point x="450" y="364" type="line" smooth="yes"/>
      <point x="408" y="490" type="line" smooth="yes"/>
      <point x="260" y="540" type="line" smooth="yes"/>
      <point x="119" y="499" type="line" smooth="yes"/>
      <point x="71" y="397" type="line" smooth="yes"/>
      <point x="71" y="392" type="line" smooth="yes"/>
      <point x="106" y="300" type="line" smooth="yes"/>
      <point x="245" y="253" type="line" smooth="yes"/>
      <point x="373" y="225" type="line" smooth="yes"/>
      <point x="413" y="140" type="line" smooth="yes"/>
      <point x="373" y="58" type="line" smooth="yes"/>
      <point x="260" y="28" type="line" smooth="yes"/>
      <point x="136" y="69" type="line" smooth="yes"/>
      <point x="105" y="160" type="line" smooth="yes"/>
      <point x="65" y="160" type="line" smooth="yes"/>
      <point x="65" y="156" type="line" smooth="yes"/>
      <point x="103" y="50" type="line" smooth="yes"/>
      <point x="240" y="-9" type="line" smooth="yes"/>
      <point x="213" y="-83" type="line" smooth="yes"/>
      <point x="230" y="-99" type="line" smooth="yes"/>
      <point x="238" y="-98" type="line" smooth="yes"/>
      <point x="256" y="-97" type="line" smooth="yes"/>
      <point x="302" y="-106" type="line" smooth="yes"/>
      <point x="321" y="-136" type="line" smooth="yes"/>
      <point x="304" y="-168" type="line" smooth="yes"/>
      <point x="252" y="-177" type="line" smooth="yes"/>
      <point x="214" y="-172" type="line" smooth="yes"/>
      <point x="182" y="-158" type="line" smooth="yes"/>
    </contour>
  </outline>
</glyph>
<glyph name="Scaron" format="1">
  <advance width="590"/>
  <unicode hex="0160"/>
  <outline>
    <contour>
      <point x="180" y="950" type="line" smooth="yes"/>
      <point x="280" y="840" type="line" smooth="yes"/>
      <point x="310" y="840" type="line" smooth="yes"/>
      <point x="410" y="950" type="line" smooth="yes"/>
      <point x="365" y="950" type="line" smooth="yes"/>
      <point x="295" y="873" type="line" smooth="yes"/>
      <point x="225" y="950" type="line" smooth="yes"/>
    </contour>
    <contour>
      <point x="287" y="385" type="line" smooth="yes"/>
      <point x="447" y="329" type="line" smooth="yes"/>
      <point x="498" y="209" type="line" smooth="yes"/>
      <point x="498" y="199" type="line" smooth="yes"/>
      <point x="442" y="72" type="line" smooth="yes"/>
      <point x="298" y="28" type="line" smooth="yes"/>
      <point x="292" y="28" type="line" smooth="yes"/>
      <point x="148" y="82" type="line" smooth="yes"/>
      <point x="90" y="250" type="line" smooth="yes"/>
      <point x="50" y="250" type="line" smooth="yes"/>
      <point x="50" y="240" type="line" smooth="yes"/>
      <point x="113" y="58" type="line" smooth="yes"/>
      <point x="295" y="-10" type="line" smooth="yes"/>
      <point x="472" y="47" type="line" smooth="yes"/>
      <point x="540" y="204" type="line" smooth="yes"/>
      <point x="540" y="214" type="line" smooth="yes"/>
      <point x="487" y="350" type="line" smooth="yes"/>
      <point x="306" y="421" type="line" smooth="yes"/>
      <point x="147" y="479" type="line" smooth="yes"/>
      <point x="102" y="590" type="line" smooth="yes"/>
      <point x="102" y="600" type="line" smooth="yes"/>
      <point x="157" y="712" type="line" smooth="yes"/>
      <point x="292" y="752" type="line" smooth="yes"/>
      <point x="298" y="752" type="line" smooth="yes"/>
      <point x="444" y="698" type="line" smooth="yes"/>
      <point x="490" y="520" type="line" smooth="yes"/>
      <point x="530" y="520" type="line" smooth="yes"/>
      <point x="530" y="545" type="line" smooth="yes"/>
      <point x="475" y="725" type="line" smooth="yes"/>
      <point x="295" y="790" type="line" smooth="yes"/>
      <point x="126" y="737" type="line" smooth="yes"/>
      <point x="60" y="590" type="line" smooth="yes"/>
      <point x="60" y="580" type="line" smooth="yes"/>
      <point x="110" y="458" type="line" smooth="yes"/>
    </contour>
  </outline>
</glyph>
<glyph name="tcommaaccent" format="1">
  <advance width="390"/>
  <unicode hex="0163"/>
  <outline>
    <contour>
      <point x="260" y="-60" type="line" smooth="yes"/>
      <point x="200" y="-60" type="line" smooth="yes"/>
      <point x="200" y="-120" type="line" smooth="yes"/>
      <point x="230" y="-120" type="line" smooth="yes"/>
      <point x="211" y="-166" type="line" smooth="yes"/>
      <point x="170" y="-180" type="line" smooth="yes"/>
      <point x="170" y="-210" type="line" smooth="yes"/>
      <point x="236" y="-182" type="line" smooth="yes"/>
      <point x="260" y="-108" type="line" smooth="yes"/>
    </contour>
    <contour>
      <point x="160" y="530" type="line" smooth="yes"/>
      <point x="160" y="680" type="line" smooth="yes"/>
      <point x="120" y="680" type="line" smooth="yes"/>
      <point x="120" y="530" type="line" smooth="yes"/>
      <point x="35" y="530" type="line" smooth="yes"/>
      <point x="35" y="492" type="line" smooth="yes"/>
      <point x="120" y="492" type="line" smooth="yes"/>
      <point x="120" y="135" type="line" smooth="yes"/>
      <point x="160" y="23" type="line" smooth="yes"/>
      <point x="260" y="-10" type="line" smooth="yes"/>
      <point x="307" y="-6" type="line" smooth="yes"/>
      <point x="330" y="0" type="line" smooth="yes"/>
      <point x="330" y="37" type="line" smooth="yes"/>
      <point x="306" y="31" type="line" smooth="yes"/>
      <point x="270" y="28" type="line" smooth="yes"/>
      <point x="188" y="50" type="line" smooth="yes"/>
      <point x="160" y="140" type="line" smooth="yes"/>
      <point x="160" y="492" type="line" smooth="yes"/>
      <point x="340" y="492" type="line" smooth="yes"/>
      <point x="340" y="530" type="line" smooth="yes"/>
    </contour>
  </outline>
</glyph>
<glyph name="tbar" format="1">
  <advance width="390"/>
  <unicode hex="0167"/>
  <outline>
    <contour>
      <point x="160" y="530" type="line" smooth="yes"/>
      <point x="160" y="680" type="line" smooth="yes"/>
      <point x="120" y="680" type="line" smooth="yes"/>
      <point x="120" y="530" type="line" smooth="yes"/>
      <point x="35" y="530" type="line" smooth="yes"/>
      <point x="35" y="492" type="line" smooth="yes"/>
      <point x="120" y="492" type="line" smooth="yes"/>
      <point x="120" y="284" type="line" smooth="yes"/>
      <point x="35" y="284" type="line" smooth="yes"/>
      <point x="35" y="246" type="line" smooth="yes"/>
      <point x="120" y="246" type="line" smooth="yes"/>
      <point x="120" y="135" type="line" smooth="yes"/>
      <point x="160" y="23" type="line" smooth="yes"/>
      <point x="260" y="-10" type="line" smooth="yes"/>
      <point x="307" y="-6" type="line" smooth="yes"/>
      <point x="330" y="0" type="line" smooth="yes"/>
      <point x="330" y="37" type="line" smooth="yes"/>
      <point x="306" y="31" type="line" smooth="yes"/>
      <point x="270" y="28" type="line" smooth="yes"/>
      <point x="188" y="50" type="line" smooth="yes"/>
      <point x="160" y="140" type="line" smooth="yes"/>
      <point x="160" y="246" type="line" smooth="yes"/>
      <point x="300" y="246" type="line" smooth="yes"/>
      <point x="300" y="284" type="line" smooth="yes"/>
      <point x="160" y="284" type="line" smooth="yes"/>
      <point x="160" y="492" type="line" smooth="yes"/>
      <point x="340" y="492" type="line" smooth="yes"/>
      <point x="340" y="530" type="line" smooth="yes"/>
    </contour>
  </outline>
</glyph>
